<ttFont>
    <TTGlyph name=".notdef" xMin="50" yMin="0" xMax="700" yMax="700">
      <contour>
        <pt x="50" y="700" on="1"/>
        <pt x="700" y="700" on="1"/>
        <pt x="700" y="0" on="1"/>
        <pt x="50" y="0" on="1"/>
      </contour>
      <contour>
        <pt x="570" y="620" on="1"/>
        <pt x="375" y="403" on="1"/>
        <pt x="180" y="620" on="1"/>
        <pt x="130" y="570" on="1"/>
        <pt x="327" y="350" on="1"/>
        <pt x="130" y="130" on="1"/>
        <pt x="180" y="80" on="1"/>
        <pt x="375" y="297" on="1"/>
        <pt x="570" y="80" on="1"/>
        <pt x="620" y="130" on="1"/>
        <pt x="422" y="350" on="1"/>
        <pt x="620" y="570" on="1"/>
      </contour>
      <contour>
        <pt x="129" y="27" on="1"/>
        <pt x="137" y="27" on="1"/>
        <pt x="137" y="39" on="1"/>
        <pt x="141" y="39" on="1"/>
        <pt x="147" y="39" on="0"/>
        <pt x="157" y="44" on="0"/>
        <pt x="157" y="51" on="1"/>
        <pt x="157" y="59" on="0"/>
        <pt x="146" y="63" on="0"/>
        <pt x="140" y="63" on="1"/>
        <pt x="129" y="63" on="1"/>
      </contour>
      <contour>
        <pt x="141" y="57" on="1"/>
        <pt x="149" y="57" on="0"/>
        <pt x="149" y="52" on="1"/>
        <pt x="149" y="47" on="0"/>
        <pt x="144" y="46" on="0"/>
        <pt x="140" y="46" on="1"/>
        <pt x="137" y="46" on="1"/>
        <pt x="137" y="57" on="1"/>
      </contour>
      <contour>
        <pt x="189" y="63" on="1"/>
        <pt x="158" y="63" on="1"/>
        <pt x="158" y="57" on="1"/>
        <pt x="170" y="57" on="1"/>
        <pt x="170" y="27" on="1"/>
        <pt x="177" y="27" on="1"/>
        <pt x="177" y="57" on="1"/>
        <pt x="189" y="57" on="1"/>
      </contour>
      <contour>
        <pt x="222" y="37" on="1"/>
        <pt x="222" y="33" on="0"/>
        <pt x="215" y="33" on="1"/>
        <pt x="208" y="33" on="0"/>
        <pt x="206" y="35" on="1"/>
        <pt x="203" y="28" on="1"/>
        <pt x="205" y="28" on="0"/>
        <pt x="211" y="26" on="0"/>
        <pt x="216" y="26" on="1"/>
        <pt x="230" y="26" on="0"/>
        <pt x="230" y="38" on="1"/>
        <pt x="230" y="47" on="0"/>
        <pt x="212" y="49" on="0"/>
        <pt x="212" y="54" on="1"/>
        <pt x="212" y="57" on="0"/>
        <pt x="218" y="57" on="1"/>
        <pt x="223" y="57" on="0"/>
        <pt x="227" y="55" on="1"/>
        <pt x="229" y="62" on="1"/>
        <pt x="223" y="64" on="0"/>
        <pt x="218" y="64" on="1"/>
        <pt x="204" y="64" on="0"/>
        <pt x="204" y="53" on="1"/>
        <pt x="204" y="48" on="0"/>
        <pt x="210" y="44" on="0"/>
        <pt x="216" y="41" on="0"/>
        <pt x="222" y="39" on="0"/>
      </contour>
      <contour>
        <pt x="237" y="47" on="1"/>
        <pt x="241" y="49" on="0"/>
        <pt x="246" y="49" on="1"/>
        <pt x="251" y="49" on="0"/>
        <pt x="251" y="45" on="1"/>
        <pt x="251" y="43" on="1"/>
        <pt x="250" y="43" on="0"/>
        <pt x="248" y="44" on="0"/>
        <pt x="246" y="44" on="1"/>
        <pt x="234" y="44" on="0"/>
        <pt x="234" y="34" on="1"/>
        <pt x="234" y="26" on="0"/>
        <pt x="242" y="26" on="1"/>
        <pt x="248" y="26" on="0"/>
        <pt x="251" y="31" on="1"/>
        <pt x="253" y="27" on="1"/>
        <pt x="259" y="27" on="1"/>
        <pt x="258" y="29" on="0"/>
        <pt x="258" y="34" on="1"/>
        <pt x="258" y="45" on="1"/>
        <pt x="258" y="55" on="0"/>
        <pt x="248" y="55" on="1"/>
        <pt x="244" y="55" on="0"/>
        <pt x="237" y="53" on="0"/>
        <pt x="235" y="52" on="1"/>
      </contour>
      <contour>
        <pt x="245" y="32" on="1"/>
        <pt x="241" y="32" on="0"/>
        <pt x="241" y="36" on="1"/>
        <pt x="241" y="40" on="0"/>
        <pt x="246" y="40" on="1"/>
        <pt x="248" y="40" on="0"/>
        <pt x="250" y="39" on="0"/>
        <pt x="251" y="39" on="1"/>
        <pt x="251" y="36" on="1"/>
        <pt x="249" y="32" on="0"/>
      </contour>
      <contour>
        <pt x="292" y="27" on="1"/>
        <pt x="292" y="43" on="1"/>
        <pt x="292" y="55" on="0"/>
        <pt x="283" y="55" on="1"/>
        <pt x="276" y="55" on="0"/>
        <pt x="273" y="50" on="1"/>
        <pt x="271" y="54" on="1"/>
        <pt x="266" y="54" on="1"/>
        <pt x="266" y="27" on="1"/>
        <pt x="273" y="27" on="1"/>
        <pt x="273" y="44" on="1"/>
        <pt x="275" y="48" on="0"/>
        <pt x="279" y="48" on="1"/>
        <pt x="284" y="48" on="0"/>
        <pt x="284" y="42" on="1"/>
        <pt x="284" y="27" on="1"/>
      </contour>
      <contour>
        <pt x="297" y="28" on="1"/>
        <pt x="301" y="26" on="0"/>
        <pt x="307" y="26" on="1"/>
        <pt x="318" y="26" on="0"/>
        <pt x="318" y="35" on="1"/>
        <pt x="318" y="40" on="0"/>
        <pt x="313" y="42" on="0"/>
        <pt x="310" y="44" on="1"/>
        <pt x="305" y="46" on="0"/>
        <pt x="305" y="47" on="1"/>
        <pt x="305" y="49" on="0"/>
        <pt x="308" y="49" on="1"/>
        <pt x="312" y="49" on="0"/>
        <pt x="316" y="47" on="1"/>
        <pt x="318" y="53" on="1"/>
        <pt x="314" y="55" on="0"/>
        <pt x="308" y="55" on="1"/>
        <pt x="298" y="55" on="0"/>
        <pt x="298" y="46" on="1"/>
        <pt x="298" y="41" on="0"/>
        <pt x="304" y="38" on="0"/>
        <pt x="306" y="37" on="1"/>
        <pt x="311" y="37" on="0"/>
        <pt x="311" y="34" on="1"/>
        <pt x="311" y="32" on="0"/>
        <pt x="308" y="32" on="1"/>
        <pt x="303" y="32" on="0"/>
        <pt x="299" y="34" on="1"/>
      </contour>
      <contour>
        <pt x="338" y="42" on="1"/>
        <pt x="338" y="21" on="0"/>
        <pt x="358" y="21" on="1"/>
        <pt x="378" y="21" on="0"/>
        <pt x="378" y="42" on="1"/>
        <pt x="378" y="62" on="0"/>
        <pt x="358" y="62" on="1"/>
        <pt x="350" y="62" on="0"/>
        <pt x="338" y="51" on="0"/>
      </contour>
      <contour>
        <pt x="344" y="42" on="1"/>
        <pt x="344" y="57" on="0"/>
        <pt x="358" y="57" on="1"/>
        <pt x="372" y="57" on="0"/>
        <pt x="372" y="42" on="1"/>
        <pt x="372" y="27" on="0"/>
        <pt x="358" y="27" on="1"/>
        <pt x="344" y="27" on="0"/>
      </contour>
      <contour>
        <pt x="364" y="38" on="1"/>
        <pt x="362" y="37" on="0"/>
        <pt x="360" y="37" on="1"/>
        <pt x="356" y="37" on="0"/>
        <pt x="356" y="42" on="1"/>
        <pt x="356" y="46" on="0"/>
        <pt x="360" y="46" on="1"/>
        <pt x="363" y="46" on="1"/>
        <pt x="365" y="50" on="1"/>
        <pt x="361" y="52" on="0"/>
        <pt x="358" y="52" on="1"/>
        <pt x="349" y="52" on="0"/>
        <pt x="349" y="42" on="1"/>
        <pt x="349" y="31" on="0"/>
        <pt x="358" y="31" on="1"/>
        <pt x="363" y="31" on="0"/>
        <pt x="365" y="33" on="1"/>
      </contour>
      <contour>
        <pt x="399" y="27" on="1"/>
        <pt x="407" y="27" on="1"/>
        <pt x="407" y="39" on="1"/>
        <pt x="411" y="39" on="1"/>
        <pt x="417" y="39" on="0"/>
        <pt x="427" y="44" on="0"/>
        <pt x="427" y="51" on="1"/>
        <pt x="427" y="59" on="0"/>
        <pt x="416" y="63" on="0"/>
        <pt x="410" y="63" on="1"/>
        <pt x="399" y="63" on="1"/>
      </contour>
      <contour>
        <pt x="411" y="57" on="1"/>
        <pt x="419" y="57" on="0"/>
        <pt x="419" y="52" on="1"/>
        <pt x="419" y="47" on="0"/>
        <pt x="414" y="46" on="0"/>
        <pt x="410" y="46" on="1"/>
        <pt x="407" y="46" on="1"/>
        <pt x="407" y="57" on="1"/>
      </contour>
      <contour>
        <pt x="432" y="47" on="1"/>
        <pt x="436" y="49" on="0"/>
        <pt x="441" y="49" on="1"/>
        <pt x="446" y="49" on="0"/>
        <pt x="446" y="45" on="1"/>
        <pt x="446" y="43" on="1"/>
        <pt x="445" y="43" on="0"/>
        <pt x="443" y="44" on="0"/>
        <pt x="441" y="44" on="1"/>
        <pt x="428" y="44" on="0"/>
        <pt x="428" y="34" on="1"/>
        <pt x="428" y="26" on="0"/>
        <pt x="437" y="26" on="1"/>
        <pt x="443" y="26" on="0"/>
        <pt x="446" y="31" on="1"/>
        <pt x="448" y="27" on="1"/>
        <pt x="454" y="27" on="1"/>
        <pt x="453" y="29" on="0"/>
        <pt x="453" y="34" on="1"/>
        <pt x="453" y="45" on="1"/>
        <pt x="453" y="55" on="0"/>
        <pt x="443" y="55" on="1"/>
        <pt x="439" y="55" on="0"/>
        <pt x="432" y="53" on="0"/>
        <pt x="430" y="52" on="1"/>
      </contour>
      <contour>
        <pt x="440" y="32" on="1"/>
        <pt x="436" y="32" on="0"/>
        <pt x="436" y="36" on="1"/>
        <pt x="436" y="40" on="0"/>
        <pt x="441" y="40" on="1"/>
        <pt x="443" y="40" on="0"/>
        <pt x="445" y="39" on="0"/>
        <pt x="446" y="39" on="1"/>
        <pt x="446" y="36" on="1"/>
        <pt x="444" y="32" on="0"/>
      </contour>
      <contour>
        <pt x="478" y="54" on="1"/>
        <pt x="477" y="55" on="0"/>
        <pt x="474" y="55" on="1"/>
        <pt x="470" y="55" on="0"/>
        <pt x="468" y="50" on="1"/>
        <pt x="467" y="50" on="1"/>
        <pt x="466" y="54" on="1"/>
        <pt x="460" y="54" on="1"/>
        <pt x="460" y="27" on="1"/>
        <pt x="468" y="27" on="1"/>
        <pt x="468" y="44" on="1"/>
        <pt x="468" y="48" on="0"/>
        <pt x="474" y="48" on="1"/>
        <pt x="475" y="48" on="1"/>
        <pt x="476" y="48" on="0"/>
        <pt x="476" y="47" on="0"/>
        <pt x="477" y="47" on="1"/>
      </contour>
      <contour>
        <pt x="483" y="47" on="1"/>
        <pt x="489" y="49" on="0"/>
        <pt x="492" y="49" on="1"/>
        <pt x="497" y="49" on="0"/>
        <pt x="497" y="45" on="1"/>
        <pt x="497" y="43" on="1"/>
        <pt x="496" y="43" on="0"/>
        <pt x="494" y="44" on="0"/>
        <pt x="492" y="44" on="1"/>
        <pt x="479" y="44" on="0"/>
        <pt x="479" y="34" on="1"/>
        <pt x="479" y="26" on="0"/>
        <pt x="488" y="26" on="1"/>
        <pt x="495" y="26" on="0"/>
        <pt x="497" y="31" on="1"/>
        <pt x="498" y="31" on="1"/>
        <pt x="499" y="27" on="1"/>
        <pt x="505" y="27" on="1"/>
        <pt x="504" y="29" on="0"/>
        <pt x="504" y="34" on="1"/>
        <pt x="504" y="45" on="1"/>
        <pt x="504" y="55" on="0"/>
        <pt x="494" y="55" on="1"/>
        <pt x="490" y="55" on="0"/>
        <pt x="484" y="53" on="0"/>
        <pt x="482" y="52" on="1"/>
      </contour>
      <contour>
        <pt x="491" y="32" on="1"/>
        <pt x="487" y="32" on="0"/>
        <pt x="487" y="36" on="1"/>
        <pt x="487" y="40" on="0"/>
        <pt x="492" y="40" on="1"/>
        <pt x="494" y="40" on="0"/>
        <pt x="496" y="39" on="0"/>
        <pt x="497" y="39" on="1"/>
        <pt x="497" y="36" on="1"/>
        <pt x="495" y="32" on="0"/>
      </contour>
      <contour>
        <pt x="533" y="63" on="1"/>
        <pt x="502" y="63" on="1"/>
        <pt x="502" y="57" on="1"/>
        <pt x="513" y="57" on="1"/>
        <pt x="513" y="27" on="1"/>
        <pt x="521" y="27" on="1"/>
        <pt x="521" y="57" on="1"/>
        <pt x="533" y="57" on="1"/>
      </contour>
      <contour>
        <pt x="541" y="54" on="1"/>
        <pt x="533" y="54" on="1"/>
        <pt x="545" y="27" on="1"/>
        <pt x="544" y="22" on="0"/>
        <pt x="540" y="22" on="1"/>
        <pt x="539" y="23" on="1"/>
        <pt x="537" y="17" on="1"/>
        <pt x="539" y="16" on="0"/>
        <pt x="542" y="16" on="1"/>
        <pt x="547" y="16" on="0"/>
        <pt x="552" y="29" on="1"/>
        <pt x="562" y="54" on="1"/>
        <pt x="554" y="54" on="1"/>
        <pt x="549" y="39" on="1"/>
        <pt x="549" y="34" on="1"/>
        <pt x="548" y="34" on="1"/>
        <pt x="547" y="39" on="1"/>
      </contour>
      <contour>
        <pt x="565" y="16" on="1"/>
        <pt x="573" y="16" on="1"/>
        <pt x="573" y="28" on="1"/>
        <pt x="574" y="26" on="0"/>
        <pt x="578" y="26" on="1"/>
        <pt x="592" y="26" on="0"/>
        <pt x="592" y="41" on="1"/>
        <pt x="592" y="55" on="0"/>
        <pt x="581" y="55" on="1"/>
        <pt x="576" y="55" on="0"/>
        <pt x="572" y="51" on="1"/>
        <pt x="571" y="51" on="1"/>
        <pt x="570" y="54" on="1"/>
        <pt x="565" y="54" on="1"/>
      </contour>
      <contour>
        <pt x="579" y="49" on="1"/>
        <pt x="584" y="49" on="0"/>
        <pt x="584" y="41" on="1"/>
        <pt x="584" y="32" on="0"/>
        <pt x="577" y="32" on="1"/>
        <pt x="575" y="32" on="0"/>
        <pt x="573" y="34" on="1"/>
        <pt x="573" y="44" on="1"/>
        <pt x="573" y="49" on="0"/>
      </contour>
      <contour>
        <pt x="618" y="34" on="1"/>
        <pt x="616" y="32" on="0"/>
        <pt x="611" y="32" on="1"/>
        <pt x="604" y="32" on="0"/>
        <pt x="603" y="38" on="1"/>
        <pt x="622" y="38" on="1"/>
        <pt x="622" y="44" on="1"/>
        <pt x="622" y="50" on="0"/>
        <pt x="615" y="55" on="0"/>
        <pt x="610" y="55" on="1"/>
        <pt x="596" y="55" on="0"/>
        <pt x="596" y="40" on="1"/>
        <pt x="596" y="26" on="0"/>
        <pt x="610" y="26" on="1"/>
        <pt x="613" y="26" on="0"/>
        <pt x="619" y="28" on="0"/>
        <pt x="621" y="29" on="1"/>
      </contour>
      <contour>
        <pt x="610" y="49" on="1"/>
        <pt x="616" y="49" on="0"/>
        <pt x="615" y="43" on="1"/>
        <pt x="604" y="43" on="1"/>
        <pt x="604" y="49" on="0"/>
      </contour>
    </TTGlyph>
    <TTGlyph name="A" xMin="5" yMin="0" xMax="468" yMax="711">
      <contour>
        <pt x="333" y="196" on="1"/>
        <pt x="135" y="196" on="1"/>
        <pt x="79" y="0" on="1"/>
        <pt x="5" y="0" on="1"/>
        <pt x="216" y="711" on="1"/>
        <pt x="257" y="711" on="1"/>
        <pt x="468" y="0" on="1"/>
        <pt x="390" y="0" on="1"/>
      </contour>
      <contour>
        <pt x="155" y="263" on="1"/>
        <pt x="315" y="263" on="1"/>
        <pt x="254" y="479" on="1"/>
        <pt x="235" y="584" on="1"/>
        <pt x="233" y="584" on="1"/>
        <pt x="214" y="477" on="1"/>
      </contour>
    </TTGlyph>
    <TTGlyph name="AE" xMin="-18" yMin="0" xMax="634" yMax="700">
      <component glyphName="uni04D4" x="0" y="0" flags="0x204"/>
    </TTGlyph>
    <TTGlyph name="Aacute" xMin="5" yMin="0" xMax="468" yMax="870">
      <component glyphName="A" x="0" y="0" flags="0x204"/>
      <component glyphName="uniF6C9" x="109" y="0" flags="0x4"/>
    </TTGlyph>
    <TTGlyph name="Abreve" xMin="5" yMin="0" xMax="468" yMax="871">
      <component glyphName="A" x="0" y="0" flags="0x204"/>
      <component glyphName="uniF406" x="35" y="0" flags="0x4"/>
    </TTGlyph>
    <TTGlyph name="Acircumflex" xMin="5" yMin="0" xMax="468" yMax="870">
      <component glyphName="A" x="0" y="0" flags="0x204"/>
      <component glyphName="uniF408" x="46" y="0" flags="0x4"/>
    </TTGlyph>
    <TTGlyph name="Adieresis" xMin="5" yMin="0" xMax="468" yMax="841">
      <component glyphName="A" x="0" y="0" flags="0x204"/>
      <component glyphName="uniF6CB" x="51" y="0" flags="0x4"/>
    </TTGlyph>
    <TTGlyph name="Agrave" xMin="5" yMin="0" xMax="468" yMax="870">
      <component glyphName="A" x="0" y="0" flags="0x204"/>
      <component glyphName="uniF6CE" x="50" y="0" flags="0x4"/>
    </TTGlyph>
    <TTGlyph name="Amacron" xMin="5" yMin="0" xMax="468" yMax="843">
      <component glyphName="A" x="0" y="0" flags="0x204"/>
      <component glyphName="uniF6D0" x="47" y="0" flags="0x4"/>
    </TTGlyph>
    <TTGlyph name="Aogonek" xMin="5" yMin="-196" xMax="485" yMax="711">
      <contour>
        <pt x="333" y="196" on="1"/>
        <pt x="135" y="196" on="1"/>
        <pt x="79" y="0" on="1"/>
        <pt x="5" y="0" on="1"/>
        <pt x="216" y="711" on="1"/>
        <pt x="257" y="711" on="1"/>
        <pt x="468" y="0" on="1"/>
        <pt x="447" y="0" on="1"/>
        <pt x="425" y="-16" on="0"/>
        <pt x="400" y="-60" on="0"/>
        <pt x="400" y="-88" on="1"/>
        <pt x="401" y="-117" on="0"/>
        <pt x="438" y="-148" on="0"/>
        <pt x="475" y="-133" on="1"/>
        <pt x="485" y="-173" on="1"/>
        <pt x="474" y="-184" on="0"/>
        <pt x="433" y="-196" on="0"/>
        <pt x="414" y="-196" on="1"/>
        <pt x="374" y="-196" on="0"/>
        <pt x="328" y="-148" on="0"/>
        <pt x="327" y="-110" on="1"/>
        <pt x="328" y="-72" on="0"/>
        <pt x="364" y="-17" on="0"/>
        <pt x="395" y="0" on="1"/>
        <pt x="390" y="0" on="1"/>
      </contour>
      <contour>
        <pt x="155" y="263" on="1"/>
        <pt x="315" y="263" on="1"/>
        <pt x="254" y="479" on="1"/>
        <pt x="235" y="584" on="1"/>
        <pt x="233" y="584" on="1"/>
        <pt x="214" y="477" on="1"/>
      </contour>
    </TTGlyph>
    <TTGlyph name="Aring" xMin="5" yMin="0" xMax="468" yMax="853">
      <contour>
        <pt x="148" y="768" on="1"/>
        <pt x="148" y="805" on="0"/>
        <pt x="190" y="853" on="0"/>
        <pt x="238" y="852" on="1"/>
        <pt x="281" y="853" on="0"/>
        <pt x="328" y="810" on="0"/>
        <pt x="328" y="768" on="1"/>
        <pt x="328" y="737" on="0"/>
        <pt x="296" y="694" on="0"/>
        <pt x="264" y="687" on="1"/>
        <pt x="468" y="0" on="1"/>
        <pt x="390" y="0" on="1"/>
        <pt x="333" y="196" on="1"/>
        <pt x="135" y="196" on="1"/>
        <pt x="79" y="0" on="1"/>
        <pt x="5" y="0" on="1"/>
        <pt x="209" y="687" on="1"/>
        <pt x="179" y="695" on="0"/>
        <pt x="148" y="736" on="0"/>
      </contour>
      <contour>
        <pt x="155" y="263" on="1"/>
        <pt x="315" y="263" on="1"/>
        <pt x="254" y="479" on="1"/>
        <pt x="235" y="584" on="1"/>
        <pt x="233" y="584" on="1"/>
        <pt x="214" y="477" on="1"/>
      </contour>
      <contour>
        <pt x="202" y="768" on="1"/>
        <pt x="202" y="750" on="0"/>
        <pt x="219" y="727" on="0"/>
        <pt x="238" y="727" on="1"/>
        <pt x="274" y="727" on="0"/>
        <pt x="274" y="768" on="1"/>
        <pt x="274" y="811" on="0"/>
        <pt x="238" y="812" on="1"/>
        <pt x="202" y="811" on="0"/>
      </contour>
    </TTGlyph>
    <TTGlyph name="Atilde" xMin="5" yMin="0" xMax="468" yMax="839">
      <component glyphName="A" x="0" y="0" flags="0x204"/>
      <component glyphName="uniF40D" x="40" y="0" flags="0x4"/>
    </TTGlyph>
    <TTGlyph name="B" xMin="64" yMin="-8" xMax="428" yMax="708">
      <contour>
        <pt x="411" y="541" on="1"/>
        <pt x="411" y="515" on="0"/>
        <pt x="399" y="463" on="0"/>
        <pt x="373" y="417" on="0"/>
        <pt x="334" y="381" on="0"/>
        <pt x="306" y="372" on="1"/>
        <pt x="306" y="368" on="1"/>
        <pt x="330" y="363" on="0"/>
        <pt x="374" y="340" on="0"/>
        <pt x="408" y="299" on="0"/>
        <pt x="428" y="240" on="0"/>
        <pt x="428" y="199" on="1"/>
        <pt x="428" y="145" on="0"/>
        <pt x="394" y="66" on="0"/>
        <pt x="335" y="16" on="0"/>
        <pt x="258" y="-8" on="0"/>
        <pt x="215" y="-8" on="1"/>
        <pt x="201" y="-8" on="0"/>
        <pt x="164" y="-8" on="0"/>
        <pt x="122" y="-5" on="0"/>
        <pt x="81" y="0" on="0"/>
        <pt x="64" y="5" on="1"/>
        <pt x="64" y="694" on="1"/>
        <pt x="94" y="700" on="0"/>
        <pt x="175" y="708" on="0"/>
        <pt x="222" y="708" on="1"/>
        <pt x="256" y="708" on="0"/>
        <pt x="324" y="695" on="0"/>
        <pt x="378" y="659" on="0"/>
        <pt x="411" y="594" on="0"/>
      </contour>
      <contour>
        <pt x="221" y="61" on="1"/>
        <pt x="248" y="61" on="0"/>
        <pt x="294" y="78" on="0"/>
        <pt x="329" y="112" on="0"/>
        <pt x="349" y="161" on="0"/>
        <pt x="349" y="194" on="1"/>
        <pt x="349" y="235" on="0"/>
        <pt x="324" y="286" on="0"/>
        <pt x="284" y="314" on="0"/>
        <pt x="233" y="324" on="0"/>
        <pt x="206" y="324" on="1"/>
        <pt x="139" y="324" on="1"/>
        <pt x="139" y="68" on="1"/>
        <pt x="145" y="66" on="0"/>
        <pt x="164" y="64" on="0"/>
        <pt x="187" y="62" on="0"/>
        <pt x="211" y="61" on="0"/>
      </contour>
      <contour>
        <pt x="180" y="389" on="1"/>
        <pt x="194" y="389" on="0"/>
        <pt x="230" y="391" on="0"/>
        <pt x="242" y="393" on="1"/>
        <pt x="279" y="408" on="0"/>
        <pt x="332" y="475" on="0"/>
        <pt x="332" y="524" on="1"/>
        <pt x="332" y="557" on="0"/>
        <pt x="314" y="602" on="0"/>
        <pt x="283" y="628" on="0"/>
        <pt x="241" y="639" on="0"/>
        <pt x="218" y="639" on="1"/>
        <pt x="192" y="639" on="0"/>
        <pt x="150" y="636" on="0"/>
        <pt x="139" y="634" on="1"/>
        <pt x="139" y="389" on="1"/>
      </contour>
    </TTGlyph>
    <TTGlyph name="C" xMin="43" yMin="-12" xMax="430" yMax="712">
      <contour>
        <pt x="430" y="27" on="1"/>
        <pt x="405" y="6" on="0"/>
        <pt x="329" y="-12" on="0"/>
        <pt x="287" y="-12" on="1"/>
        <pt x="234" y="-12" on="0"/>
        <pt x="144" y="28" on="0"/>
        <pt x="79" y="115" on="0"/>
        <pt x="43" y="253" on="0"/>
        <pt x="43" y="350" on="1"/>
        <pt x="43" y="450" on="0"/>
        <pt x="84" y="588" on="0"/>
        <pt x="152" y="674" on="0"/>
        <pt x="241" y="712" on="0"/>
        <pt x="288" y="712" on="1"/>
        <pt x="336" y="712" on="0"/>
        <pt x="399" y="698" on="0"/>
        <pt x="422" y="688" on="1"/>
        <pt x="404" y="620" on="1"/>
        <pt x="384" y="631" on="0"/>
        <pt x="330" y="643" on="0"/>
        <pt x="295" y="643" on="1"/>
        <pt x="260" y="643" on="0"/>
        <pt x="198" y="612" on="0"/>
        <pt x="150" y="543" on="0"/>
        <pt x="122" y="431" on="0"/>
        <pt x="122" y="350" on="1"/>
        <pt x="122" y="204" on="0"/>
        <pt x="222" y="57" on="0"/>
        <pt x="305" y="57" on="1"/>
        <pt x="339" y="57" on="0"/>
        <pt x="393" y="76" on="0"/>
        <pt x="412" y="89" on="1"/>
      </contour>
    </TTGlyph>
    <TTGlyph name="Cacute" xMin="43" yMin="-12" xMax="430" yMax="870">
      <component glyphName="C" x="0" y="0" flags="0x204"/>
      <component glyphName="uniF6C9" x="178" y="0" flags="0x4"/>
    </TTGlyph>
    <TTGlyph name="Ccaron" xMin="43" yMin="-12" xMax="430" yMax="870">
      <component glyphName="C" x="0" y="0" flags="0x204"/>
      <component glyphName="uniF6CA" x="93" y="0" flags="0x4"/>
    </TTGlyph>
    <TTGlyph name="Ccedilla" xMin="43" yMin="-208" xMax="430" yMax="712">
      <contour>
        <pt x="430" y="27" on="1"/>
        <pt x="409" y="9" on="0"/>
        <pt x="347" y="-9" on="0"/>
        <pt x="312" y="-11" on="1"/>
        <pt x="298" y="-43" on="1"/>
        <pt x="363" y="-58" on="0"/>
        <pt x="363" y="-118" on="1"/>
        <pt x="363" y="-157" on="0"/>
        <pt x="306" y="-208" on="0"/>
        <pt x="258" y="-208" on="1"/>
        <pt x="238" y="-208" on="0"/>
        <pt x="221" y="-204" on="1"/>
        <pt x="228" y="-165" on="1"/>
        <pt x="251" y="-167" on="0"/>
        <pt x="278" y="-161" on="0"/>
        <pt x="292" y="-149" on="0"/>
        <pt x="296" y="-134" on="0"/>
        <pt x="296" y="-127" on="1"/>
        <pt x="296" y="-99" on="0"/>
        <pt x="227" y="-90" on="1"/>
        <pt x="262" y="-10" on="1"/>
        <pt x="214" y="-6" on="0"/>
        <pt x="133" y="39" on="0"/>
        <pt x="75" y="126" on="0"/>
        <pt x="43" y="258" on="0"/>
        <pt x="43" y="350" on="1"/>
        <pt x="43" y="450" on="0"/>
        <pt x="84" y="588" on="0"/>
        <pt x="152" y="674" on="0"/>
        <pt x="241" y="712" on="0"/>
        <pt x="288" y="712" on="1"/>
        <pt x="336" y="712" on="0"/>
        <pt x="399" y="698" on="0"/>
        <pt x="422" y="688" on="1"/>
        <pt x="404" y="620" on="1"/>
        <pt x="384" y="631" on="0"/>
        <pt x="330" y="643" on="0"/>
        <pt x="295" y="643" on="1"/>
        <pt x="260" y="643" on="0"/>
        <pt x="198" y="612" on="0"/>
        <pt x="150" y="543" on="0"/>
        <pt x="122" y="431" on="0"/>
        <pt x="122" y="350" on="1"/>
        <pt x="122" y="204" on="0"/>
        <pt x="222" y="58" on="0"/>
        <pt x="305" y="58" on="1"/>
        <pt x="339" y="58" on="0"/>
        <pt x="393" y="77" on="0"/>
        <pt x="412" y="90" on="1"/>
      </contour>
    </TTGlyph>
    <TTGlyph name="Ccircumflex" xMin="43" yMin="-12" xMax="430" yMax="870">
      <component glyphName="C" x="0" y="0" flags="0x204"/>
      <component glyphName="uniF408" x="88" y="0" flags="0x4"/>
    </TTGlyph>
    <TTGlyph name="D" xMin="64" yMin="-9" xMax="482" yMax="708">
      <contour>
        <pt x="64" y="700" on="1"/>
        <pt x="80" y="703" on="0"/>
        <pt x="119" y="706" on="0"/>
        <pt x="159" y="707" on="0"/>
        <pt x="198" y="708" on="0"/>
        <pt x="215" y="708" on="1"/>
        <pt x="288" y="708" on="0"/>
        <pt x="390" y="658" on="0"/>
        <pt x="454" y="565" on="0"/>
        <pt x="482" y="435" on="0"/>
        <pt x="482" y="355" on="1"/>
        <pt x="482" y="283" on="0"/>
        <pt x="455" y="151" on="0"/>
        <pt x="391" y="51" on="0"/>
        <pt x="286" y="-9" on="0"/>
        <pt x="207" y="-9" on="1"/>
        <pt x="194" y="-9" on="0"/>
        <pt x="154" y="-8" on="0"/>
        <pt x="111" y="-5" on="0"/>
        <pt x="74" y="-3" on="0"/>
        <pt x="64" y="-1" on="1"/>
      </contour>
      <contour>
        <pt x="219" y="639" on="1"/>
        <pt x="209" y="639" on="0"/>
        <pt x="186" y="639" on="0"/>
        <pt x="164" y="637" on="0"/>
        <pt x="145" y="635" on="0"/>
        <pt x="139" y="634" on="1"/>
        <pt x="139" y="64" on="1"/>
        <pt x="143" y="63" on="0"/>
        <pt x="164" y="62" on="0"/>
        <pt x="187" y="61" on="0"/>
        <pt x="208" y="60" on="0"/>
        <pt x="213" y="60" on="1"/>
        <pt x="268" y="60" on="0"/>
        <pt x="342" y="108" on="0"/>
        <pt x="385" y="189" on="0"/>
        <pt x="403" y="296" on="0"/>
        <pt x="403" y="356" on="1"/>
        <pt x="403" y="409" on="0"/>
        <pt x="387" y="511" on="0"/>
        <pt x="346" y="590" on="0"/>
        <pt x="275" y="639" on="0"/>
      </contour>
    </TTGlyph>
    <TTGlyph name="Dcaron" xMin="64" yMin="-9" xMax="482" yMax="870">
      <component glyphName="D" x="0" y="0" flags="0x204"/>
      <component glyphName="uniF6CA" x="29" y="0" flags="0x4"/>
    </TTGlyph>
    <TTGlyph name="Dcroat" xMin="-1" yMin="-9" xMax="488" yMax="708">
      <component glyphName="Eth" x="0" y="0" flags="0x204"/>
    </TTGlyph>
    <TTGlyph name="E" xMin="64" yMin="0" xMax="380" yMax="700">
      <contour>
        <pt x="64" y="700" on="1"/>
        <pt x="375" y="700" on="1"/>
        <pt x="375" y="631" on="1"/>
        <pt x="139" y="631" on="1"/>
        <pt x="139" y="394" on="1"/>
        <pt x="356" y="394" on="1"/>
        <pt x="356" y="325" on="1"/>
        <pt x="139" y="325" on="1"/>
        <pt x="139" y="69" on="1"/>
        <pt x="380" y="69" on="1"/>
        <pt x="380" y="0" on="1"/>
        <pt x="64" y="0" on="1"/>
      </contour>
    </TTGlyph>
    <TTGlyph name="Eacute" xMin="64" yMin="0" xMax="380" yMax="870">
      <component glyphName="E" x="0" y="0" flags="0x204"/>
      <component glyphName="uniF6C9" x="105" y="0" flags="0x4"/>
    </TTGlyph>
    <TTGlyph name="Ecaron" xMin="64" yMin="0" xMax="380" yMax="870">
      <component glyphName="E" x="0" y="0" flags="0x204"/>
      <component glyphName="uniF6CA" x="27" y="0" flags="0x4"/>
    </TTGlyph>
    <TTGlyph name="Ecircumflex" xMin="64" yMin="0" xMax="380" yMax="870">
      <component glyphName="E" x="0" y="0" flags="0x204"/>
      <component glyphName="uniF408" x="25" y="0" flags="0x4"/>
    </TTGlyph>
    <TTGlyph name="Edieresis" xMin="64" yMin="0" xMax="380" yMax="841">
      <component glyphName="E" x="0" y="0" flags="0x204"/>
      <component glyphName="uniF6CB" x="30" y="0" flags="0x4"/>
    </TTGlyph>
    <TTGlyph name="Edotaccent" xMin="64" yMin="0" xMax="380" yMax="849">
      <component glyphName="E" x="0" y="0" flags="0x204"/>
      <component glyphName="uniF40B" x="106" y="0" flags="0x4"/>
    </TTGlyph>
    <TTGlyph name="Egrave" xMin="64" yMin="0" xMax="380" yMax="870">
      <component glyphName="E" x="0" y="0" flags="0x204"/>
      <component glyphName="uniF6CE" x="15" y="0" flags="0x4"/>
    </TTGlyph>
    <TTGlyph name="Emacron" xMin="64" yMin="0" xMax="380" yMax="843">
      <component glyphName="E" x="0" y="0" flags="0x204"/>
      <component glyphName="uniF6D0" x="24" y="0" flags="0x4"/>
    </TTGlyph>
    <TTGlyph name="Eogonek" xMin="64" yMin="-196" xMax="387" yMax="700">
      <contour>
        <pt x="64" y="700" on="1"/>
        <pt x="375" y="700" on="1"/>
        <pt x="375" y="631" on="1"/>
        <pt x="139" y="631" on="1"/>
        <pt x="139" y="394" on="1"/>
        <pt x="356" y="394" on="1"/>
        <pt x="356" y="325" on="1"/>
        <pt x="139" y="325" on="1"/>
        <pt x="139" y="69" on="1"/>
        <pt x="380" y="69" on="1"/>
        <pt x="380" y="0" on="1"/>
        <pt x="349" y="0" on="1"/>
        <pt x="327" y="-16" on="0"/>
        <pt x="302" y="-60" on="0"/>
        <pt x="302" y="-88" on="1"/>
        <pt x="303" y="-117" on="0"/>
        <pt x="340" y="-148" on="0"/>
        <pt x="377" y="-133" on="1"/>
        <pt x="387" y="-173" on="1"/>
        <pt x="376" y="-184" on="0"/>
        <pt x="335" y="-196" on="0"/>
        <pt x="316" y="-196" on="1"/>
        <pt x="276" y="-196" on="0"/>
        <pt x="229" y="-148" on="0"/>
        <pt x="229" y="-110" on="1"/>
        <pt x="229" y="-72" on="0"/>
        <pt x="266" y="-17" on="0"/>
        <pt x="297" y="0" on="1"/>
        <pt x="64" y="0" on="1"/>
      </contour>
    </TTGlyph>
    <TTGlyph name="Eth" xMin="-1" yMin="-9" xMax="488" yMax="708">
      <contour>
        <pt x="-1" y="393" on="1"/>
        <pt x="70" y="393" on="1"/>
        <pt x="70" y="700" on="1"/>
        <pt x="86" y="703" on="0"/>
        <pt x="125" y="706" on="0"/>
        <pt x="165" y="707" on="0"/>
        <pt x="204" y="708" on="0"/>
        <pt x="221" y="708" on="1"/>
        <pt x="294" y="708" on="0"/>
        <pt x="396" y="658" on="0"/>
        <pt x="460" y="565" on="0"/>
        <pt x="488" y="435" on="0"/>
        <pt x="488" y="355" on="1"/>
        <pt x="488" y="283" on="0"/>
        <pt x="461" y="151" on="0"/>
        <pt x="397" y="51" on="0"/>
        <pt x="292" y="-9" on="0"/>
        <pt x="213" y="-9" on="1"/>
        <pt x="200" y="-9" on="0"/>
        <pt x="160" y="-8" on="0"/>
        <pt x="117" y="-5" on="0"/>
        <pt x="80" y="-3" on="0"/>
        <pt x="70" y="-1" on="1"/>
        <pt x="70" y="334" on="1"/>
        <pt x="-1" y="334" on="1"/>
      </contour>
      <contour>
        <pt x="225" y="639" on="1"/>
        <pt x="215" y="639" on="0"/>
        <pt x="192" y="639" on="0"/>
        <pt x="170" y="637" on="0"/>
        <pt x="151" y="635" on="0"/>
        <pt x="145" y="634" on="1"/>
        <pt x="145" y="393" on="1"/>
        <pt x="262" y="393" on="1"/>
        <pt x="262" y="334" on="1"/>
        <pt x="145" y="334" on="1"/>
        <pt x="145" y="64" on="1"/>
        <pt x="149" y="63" on="0"/>
        <pt x="170" y="62" on="0"/>
        <pt x="193" y="61" on="0"/>
        <pt x="214" y="60" on="0"/>
        <pt x="219" y="60" on="1"/>
        <pt x="274" y="60" on="0"/>
        <pt x="348" y="108" on="0"/>
        <pt x="391" y="189" on="0"/>
        <pt x="409" y="296" on="0"/>
        <pt x="409" y="356" on="1"/>
        <pt x="409" y="409" on="0"/>
        <pt x="393" y="511" on="0"/>
        <pt x="352" y="590" on="0"/>
        <pt x="281" y="639" on="0"/>
      </contour>
    </TTGlyph>
    <TTGlyph name="Euro" xMin="12" yMin="-12" xMax="435" yMax="712">
      <contour>
        <pt x="28" y="453" on="1"/>
        <pt x="78" y="453" on="1"/>
        <pt x="88" y="526" on="0"/>
        <pt x="130" y="622" on="0"/>
        <pt x="190" y="683" on="0"/>
        <pt x="263" y="712" on="0"/>
        <pt x="304" y="712" on="1"/>
        <pt x="345" y="712" on="0"/>
        <pt x="404" y="701" on="0"/>
        <pt x="427" y="690" on="1"/>
        <pt x="407" y="624" on="1"/>
        <pt x="388" y="633" on="0"/>
        <pt x="340" y="643" on="0"/>
        <pt x="306" y="643" on="1"/>
        <pt x="279" y="643" on="0"/>
        <pt x="231" y="623" on="0"/>
        <pt x="191" y="580" on="0"/>
        <pt x="161" y="510" on="0"/>
        <pt x="153" y="453" on="1"/>
        <pt x="376" y="453" on="1"/>
        <pt x="361" y="390" on="1"/>
        <pt x="147" y="390" on="1"/>
        <pt x="146" y="382" on="0"/>
        <pt x="146" y="358" on="0"/>
        <pt x="146" y="350" on="1"/>
        <pt x="146" y="340" on="0"/>
        <pt x="146" y="328" on="0"/>
        <pt x="147" y="319" on="1"/>
        <pt x="345" y="319" on="1"/>
        <pt x="330" y="257" on="1"/>
        <pt x="152" y="257" on="1"/>
        <pt x="166" y="152" on="0"/>
        <pt x="250" y="57" on="0"/>
        <pt x="316" y="57" on="1"/>
        <pt x="379" y="57" on="0"/>
        <pt x="418" y="85" on="1"/>
        <pt x="435" y="25" on="1"/>
        <pt x="411" y="5" on="0"/>
        <pt x="339" y="-12" on="0"/>
        <pt x="302" y="-12" on="1"/>
        <pt x="210" y="-12" on="0"/>
        <pt x="92" y="114" on="0"/>
        <pt x="76" y="257" on="1"/>
        <pt x="12" y="257" on="1"/>
        <pt x="28" y="319" on="1"/>
        <pt x="71" y="319" on="1"/>
        <pt x="71" y="350" on="1"/>
        <pt x="71" y="358" on="0"/>
        <pt x="71" y="382" on="0"/>
        <pt x="72" y="390" on="1"/>
        <pt x="12" y="390" on="1"/>
      </contour>
    </TTGlyph>
    <TTGlyph name="F" xMin="64" yMin="0" xMax="375" yMax="700">
      <contour>
        <pt x="64" y="700" on="1"/>
        <pt x="375" y="700" on="1"/>
        <pt x="375" y="631" on="1"/>
        <pt x="139" y="631" on="1"/>
        <pt x="139" y="384" on="1"/>
        <pt x="359" y="384" on="1"/>
        <pt x="359" y="315" on="1"/>
        <pt x="139" y="315" on="1"/>
        <pt x="139" y="0" on="1"/>
        <pt x="64" y="0" on="1"/>
      </contour>
    </TTGlyph>
    <TTGlyph name="G" xMin="43" yMin="-12" xMax="450" yMax="712">
      <contour>
        <pt x="257" y="349" on="1"/>
        <pt x="450" y="349" on="1"/>
        <pt x="450" y="41" on="1"/>
        <pt x="422" y="15" on="0"/>
        <pt x="334" y="-12" on="0"/>
        <pt x="289" y="-12" on="1"/>
        <pt x="233" y="-12" on="0"/>
        <pt x="142" y="30" on="0"/>
        <pt x="78" y="119" on="0"/>
        <pt x="43" y="255" on="0"/>
        <pt x="43" y="350" on="1"/>
        <pt x="43" y="448" on="0"/>
        <pt x="85" y="585" on="0"/>
        <pt x="156" y="672" on="0"/>
        <pt x="247" y="712" on="0"/>
        <pt x="295" y="712" on="1"/>
        <pt x="343" y="712" on="0"/>
        <pt x="408" y="699" on="0"/>
        <pt x="431" y="688" on="1"/>
        <pt x="413" y="620" on="1"/>
        <pt x="393" y="631" on="0"/>
        <pt x="338" y="643" on="0"/>
        <pt x="302" y="643" on="1"/>
        <pt x="267" y="643" on="0"/>
        <pt x="203" y="613" on="0"/>
        <pt x="152" y="544" on="0"/>
        <pt x="122" y="432" on="0"/>
        <pt x="122" y="350" on="1"/>
        <pt x="122" y="200" on="0"/>
        <pt x="217" y="57" on="0"/>
        <pt x="300" y="57" on="1"/>
        <pt x="352" y="57" on="0"/>
        <pt x="386" y="82" on="1"/>
        <pt x="386" y="286" on="1"/>
        <pt x="257" y="305" on="1"/>
      </contour>
    </TTGlyph>
    <TTGlyph name="Gbreve" xMin="43" yMin="-12" xMax="450" yMax="871">
      <component glyphName="G" x="0" y="0" flags="0x204"/>
      <component glyphName="uniF406" x="80" y="0" flags="0x4"/>
    </TTGlyph>
    <TTGlyph name="Gcircumflex" xMin="43" yMin="-12" xMax="450" yMax="870">
      <component glyphName="G" x="0" y="0" flags="0x204"/>
      <component glyphName="uniF408" x="100" y="0" flags="0x4"/>
    </TTGlyph>
    <TTGlyph name="Gcommaaccent" xMin="43" yMin="-245" xMax="450" yMax="712">
      <component glyphName="G" x="0" y="0" flags="0x204"/>
      <component glyphName="uniF6C3" x="177" y="0" flags="0x4"/>
    </TTGlyph>
    <TTGlyph name="H" xMin="64" yMin="0" xMax="472" yMax="700">
      <contour>
        <pt x="397" y="323" on="1"/>
        <pt x="139" y="323" on="1"/>
        <pt x="139" y="0" on="1"/>
        <pt x="64" y="0" on="1"/>
        <pt x="64" y="700" on="1"/>
        <pt x="139" y="700" on="1"/>
        <pt x="139" y="392" on="1"/>
        <pt x="397" y="392" on="1"/>
        <pt x="397" y="700" on="1"/>
        <pt x="472" y="700" on="1"/>
        <pt x="472" y="0" on="1"/>
        <pt x="397" y="0" on="1"/>
      </contour>
    </TTGlyph>
    <TTGlyph name="Hbar" xMin="8" yMin="0" xMax="542" yMax="700">
      <contour>
        <pt x="8" y="585" on="1"/>
        <pt x="71" y="585" on="1"/>
        <pt x="71" y="700" on="1"/>
        <pt x="146" y="700" on="1"/>
        <pt x="146" y="585" on="1"/>
        <pt x="404" y="585" on="1"/>
        <pt x="404" y="700" on="1"/>
        <pt x="479" y="700" on="1"/>
        <pt x="479" y="585" on="1"/>
        <pt x="542" y="585" on="1"/>
        <pt x="542" y="526" on="1"/>
        <pt x="479" y="526" on="1"/>
        <pt x="479" y="0" on="1"/>
        <pt x="404" y="0" on="1"/>
        <pt x="404" y="323" on="1"/>
        <pt x="146" y="323" on="1"/>
        <pt x="146" y="0" on="1"/>
        <pt x="71" y="0" on="1"/>
        <pt x="71" y="526" on="1"/>
        <pt x="8" y="526" on="1"/>
      </contour>
      <contour>
        <pt x="404" y="392" on="1"/>
        <pt x="404" y="526" on="1"/>
        <pt x="146" y="526" on="1"/>
        <pt x="146" y="392" on="1"/>
      </contour>
    </TTGlyph>
    <TTGlyph name="Hcircumflex" xMin="64" yMin="0" xMax="472" yMax="870">
      <component glyphName="H" x="0" y="0" flags="0x204"/>
      <component glyphName="uniF408" x="77" y="0" flags="0x4"/>
    </TTGlyph>
    <TTGlyph name="I" xMin="79" yMin="0" xMax="154" yMax="700">
      <contour>
        <pt x="79" y="700" on="1"/>
        <pt x="154" y="700" on="1"/>
        <pt x="154" y="0" on="1"/>
        <pt x="79" y="0" on="1"/>
      </contour>
    </TTGlyph>
    <TTGlyph name="Iacute" xMin="48" yMin="0" xMax="240" yMax="870">
      <component glyphName="I" x="0" y="0" flags="0x204"/>
      <component glyphName="uniF6C9" x="-12" y="0" flags="0x4"/>
    </TTGlyph>
    <TTGlyph name="Icircumflex" xMin="-13" yMin="0" xMax="246" yMax="870">
      <component glyphName="I" x="0" y="0" flags="0x204"/>
      <component glyphName="uniF408" x="-73" y="0" flags="0x4"/>
    </TTGlyph>
    <TTGlyph name="Idieresis" xMin="-8" yMin="0" xMax="243" yMax="841">
      <component glyphName="I" x="0" y="0" flags="0x204"/>
      <component glyphName="uniF6CB" x="-68" y="0" flags="0x4"/>
    </TTGlyph>
    <TTGlyph name="Idotaccent" xMin="62" yMin="0" xMax="171" yMax="849">
      <component glyphName="I" x="0" y="0" flags="0x204"/>
      <component glyphName="uniF40B" x="2" y="0" flags="0x4"/>
    </TTGlyph>
    <TTGlyph name="Igrave" xMin="-1" yMin="0" xMax="191" yMax="870">
      <component glyphName="I" x="0" y="0" flags="0x204"/>
      <component glyphName="uniF6CE" x="-61" y="0" flags="0x4"/>
    </TTGlyph>
    <TTGlyph name="Imacron" xMin="-12" yMin="0" xMax="247" yMax="843">
      <component glyphName="I" x="0" y="0" flags="0x204"/>
      <component glyphName="uniF6D0" x="-72" y="0" flags="0x4"/>
    </TTGlyph>
    <TTGlyph name="Iogonek" xMin="23" yMin="-196" xMax="181" yMax="700">
      <contour>
        <pt x="79" y="700" on="1"/>
        <pt x="154" y="700" on="1"/>
        <pt x="154" y="0" on="1"/>
        <pt x="141" y="0" on="1"/>
        <pt x="121" y="-15" on="0"/>
        <pt x="96" y="-58" on="0"/>
        <pt x="97" y="-89" on="1"/>
        <pt x="97" y="-117" on="0"/>
        <pt x="133" y="-149" on="0"/>
        <pt x="171" y="-134" on="1"/>
        <pt x="181" y="-173" on="1"/>
        <pt x="169" y="-185" on="0"/>
        <pt x="128" y="-196" on="0"/>
        <pt x="109" y="-196" on="1"/>
        <pt x="71" y="-196" on="0"/>
        <pt x="23" y="-150" on="0"/>
        <pt x="23" y="-109" on="1"/>
        <pt x="23" y="-74" on="0"/>
        <pt x="60" y="-17" on="0"/>
        <pt x="91" y="0" on="1"/>
        <pt x="79" y="0" on="1"/>
      </contour>
    </TTGlyph>
    <TTGlyph name="J" xMin="-26" yMin="-10" xMax="168" yMax="700">
      <contour>
        <pt x="93" y="700" on="1"/>
        <pt x="168" y="700" on="1"/>
        <pt x="168" y="157" on="1"/>
        <pt x="168" y="75" on="0"/>
        <pt x="115" y="-10" on="0"/>
        <pt x="49" y="-10" on="1"/>
        <pt x="33" y="-10" on="0"/>
        <pt x="-12" y="-2" on="0"/>
        <pt x="-26" y="6" on="1"/>
        <pt x="-10" y="71" on="1"/>
        <pt x="0" y="65" on="0"/>
        <pt x="25" y="59" on="0"/>
        <pt x="38" y="59" on="1"/>
        <pt x="56" y="59" on="0"/>
        <pt x="78" y="75" on="0"/>
        <pt x="90" y="104" on="0"/>
        <pt x="93" y="145" on="0"/>
        <pt x="93" y="171" on="1"/>
      </contour>
    </TTGlyph>
    <TTGlyph name="Jcircumflex" xMin="-26" yMin="-10" xMax="259" yMax="870">
      <component glyphName="J" x="0" y="0" flags="0x204"/>
      <component glyphName="uniF408" x="-60" y="0" flags="0x4"/>
    </TTGlyph>
    <TTGlyph name="K" xMin="64" yMin="0" xMax="468" yMax="700">
      <contour>
        <pt x="175" y="324" on="1"/>
        <pt x="139" y="324" on="1"/>
        <pt x="139" y="0" on="1"/>
        <pt x="64" y="0" on="1"/>
        <pt x="64" y="700" on="1"/>
        <pt x="139" y="700" on="1"/>
        <pt x="139" y="374" on="1"/>
        <pt x="174" y="388" on="1"/>
        <pt x="356" y="700" on="1"/>
        <pt x="442" y="700" on="1"/>
        <pt x="259" y="398" on="1"/>
        <pt x="224" y="366" on="1"/>
        <pt x="265" y="326" on="1"/>
        <pt x="468" y="0" on="1"/>
        <pt x="373" y="0" on="1"/>
      </contour>
    </TTGlyph>
    <TTGlyph name="Kcommaaccent" xMin="64" yMin="-245" xMax="468" yMax="700">
      <component glyphName="K" x="0" y="0" flags="0x204"/>
      <component glyphName="uniF6C3" x="127" y="0" flags="0x4"/>
    </TTGlyph>
    <TTGlyph name="L" xMin="64" yMin="0" xMax="401" yMax="700">
      <contour>
        <pt x="401" y="0" on="1"/>
        <pt x="64" y="0" on="1"/>
        <pt x="64" y="700" on="1"/>
        <pt x="139" y="700" on="1"/>
        <pt x="139" y="69" on="1"/>
        <pt x="401" y="69" on="1"/>
      </contour>
    </TTGlyph>
    <TTGlyph name="Lacute" xMin="64" yMin="0" xMax="401" yMax="870">
      <component glyphName="L" x="0" y="0" flags="0x204"/>
      <component glyphName="uniF6C9" x="20" y="0" flags="0x4"/>
    </TTGlyph>
    <TTGlyph name="Lcaron" xMin="64" yMin="0" xMax="401" yMax="700">
      <component glyphName="L" x="0" y="0" flags="0x204"/>
      <component glyphName="caron.l" x="91" y="0" flags="0x4"/>
    </TTGlyph>
    <TTGlyph name="Lcommaaccent" xMin="64" yMin="-245" xMax="401" yMax="700">
      <component glyphName="L" x="0" y="0" flags="0x204"/>
      <component glyphName="uniF6C3" x="93" y="0" flags="0x4"/>
    </TTGlyph>
    <TTGlyph name="Lslash" xMin="15" yMin="0" xMax="404" yMax="700">
      <contour>
        <pt x="15" y="290" on="1"/>
        <pt x="67" y="338" on="1"/>
        <pt x="67" y="700" on="1"/>
        <pt x="142" y="700" on="1"/>
        <pt x="142" y="407" on="1"/>
        <pt x="232" y="491" on="1"/>
        <pt x="232" y="408" on="1"/>
        <pt x="142" y="326" on="1"/>
        <pt x="142" y="69" on="1"/>
        <pt x="404" y="69" on="1"/>
        <pt x="404" y="0" on="1"/>
        <pt x="67" y="0" on="1"/>
        <pt x="67" y="258" on="1"/>
        <pt x="15" y="211" on="1"/>
      </contour>
    </TTGlyph>
    <TTGlyph name="M" xMin="64" yMin="0" xMax="573" yMax="700">
      <contour>
        <pt x="498" y="460" on="1"/>
        <pt x="507" y="566" on="1"/>
        <pt x="503" y="566" on="1"/>
        <pt x="471" y="467" on="1"/>
        <pt x="330" y="163" on="1"/>
        <pt x="305" y="163" on="1"/>
        <pt x="157" y="467" on="1"/>
        <pt x="126" y="566" on="1"/>
        <pt x="122" y="566" on="1"/>
        <pt x="136" y="460" on="1"/>
        <pt x="136" y="0" on="1"/>
        <pt x="64" y="0" on="1"/>
        <pt x="64" y="700" on="1"/>
        <pt x="127" y="700" on="1"/>
        <pt x="296" y="356" on="1"/>
        <pt x="321" y="274" on="1"/>
        <pt x="323" y="274" on="1"/>
        <pt x="347" y="357" on="1"/>
        <pt x="507" y="700" on="1"/>
        <pt x="573" y="700" on="1"/>
        <pt x="573" y="0" on="1"/>
        <pt x="498" y="0" on="1"/>
      </contour>
    </TTGlyph>
    <TTGlyph name="N" xMin="64" yMin="-11" xMax="474" yMax="711">
      <contour>
        <pt x="171" y="444" on="1"/>
        <pt x="128" y="554" on="1"/>
        <pt x="125" y="554" on="1"/>
        <pt x="136" y="444" on="1"/>
        <pt x="136" y="0" on="1"/>
        <pt x="64" y="0" on="1"/>
        <pt x="64" y="711" on="1"/>
        <pt x="109" y="711" on="1"/>
        <pt x="368" y="257" on="1"/>
        <pt x="409" y="152" on="1"/>
        <pt x="413" y="152" on="1"/>
        <pt x="402" y="257" on="1"/>
        <pt x="402" y="700" on="1"/>
        <pt x="474" y="700" on="1"/>
        <pt x="474" y="-11" on="1"/>
        <pt x="428" y="-11" on="1"/>
      </contour>
    </TTGlyph>
    <TTGlyph name="Nacute" xMin="64" yMin="-11" xMax="474" yMax="870">
      <component glyphName="N" x="0" y="0" flags="0x204"/>
      <component glyphName="uniF6C9" x="174" y="0" flags="0x4"/>
    </TTGlyph>
    <TTGlyph name="Ncaron" xMin="64" yMin="-11" xMax="474" yMax="870">
      <component glyphName="N" x="0" y="0" flags="0x204"/>
      <component glyphName="uniF6CA" x="80" y="0" flags="0x4"/>
    </TTGlyph>
    <TTGlyph name="Ncommaaccent" xMin="64" yMin="-245" xMax="474" yMax="711">
      <component glyphName="N" x="0" y="0" flags="0x204"/>
      <component glyphName="uniF6C3" x="162" y="0" flags="0x4"/>
    </TTGlyph>
    <TTGlyph name="Ntilde" xMin="64" yMin="-11" xMax="474" yMax="839">
      <component glyphName="N" x="0" y="0" flags="0x204"/>
      <component glyphName="uniF40D" x="75" y="0" flags="0x4"/>
    </TTGlyph>
    <TTGlyph name="O" xMin="43" yMin="-12" xMax="506" yMax="712">
      <contour>
        <pt x="43" y="350" on="1"/>
        <pt x="43" y="528" on="0"/>
        <pt x="157" y="712" on="0"/>
        <pt x="274" y="712" on="1"/>
        <pt x="337" y="712" on="0"/>
        <pt x="425" y="661" on="0"/>
        <pt x="480" y="567" on="0"/>
        <pt x="506" y="433" on="0"/>
        <pt x="506" y="350" on="1"/>
        <pt x="506" y="172" on="0"/>
        <pt x="391" y="-12" on="0"/>
        <pt x="274" y="-12" on="1"/>
        <pt x="212" y="-12" on="0"/>
        <pt x="124" y="39" on="0"/>
        <pt x="68" y="133" on="0"/>
        <pt x="43" y="267" on="0"/>
      </contour>
      <contour>
        <pt x="122" y="350" on="1"/>
        <pt x="122" y="291" on="0"/>
        <pt x="139" y="185" on="0"/>
        <pt x="175" y="105" on="0"/>
        <pt x="233" y="57" on="0"/>
        <pt x="274" y="57" on="1"/>
        <pt x="349" y="57" on="0"/>
        <pt x="427" y="201" on="0"/>
        <pt x="427" y="350" on="1"/>
        <pt x="427" y="408" on="0"/>
        <pt x="410" y="514" on="0"/>
        <pt x="374" y="595" on="0"/>
        <pt x="316" y="643" on="0"/>
        <pt x="274" y="643" on="1"/>
        <pt x="200" y="643" on="0"/>
        <pt x="122" y="499" on="0"/>
      </contour>
    </TTGlyph>
    <TTGlyph name="OE" xMin="43" yMin="-12" xMax="699" yMax="712">
      <contour>
        <pt x="383" y="623" on="1"/>
        <pt x="361" y="634" on="0"/>
        <pt x="305" y="643" on="0"/>
        <pt x="275" y="643" on="1"/>
        <pt x="202" y="643" on="0"/>
        <pt x="122" y="499" on="0"/>
        <pt x="122" y="350" on="1"/>
        <pt x="122" y="291" on="0"/>
        <pt x="139" y="185" on="0"/>
        <pt x="177" y="105" on="0"/>
        <pt x="237" y="57" on="0"/>
        <pt x="280" y="57" on="1"/>
        <pt x="303" y="57" on="0"/>
        <pt x="351" y="61" on="0"/>
        <pt x="383" y="73" on="1"/>
      </contour>
      <contour>
        <pt x="383" y="0" on="1"/>
        <pt x="363" y="-5" on="0"/>
        <pt x="307" y="-12" on="0"/>
        <pt x="273" y="-12" on="1"/>
        <pt x="213" y="-12" on="0"/>
        <pt x="126" y="39" on="0"/>
        <pt x="70" y="134" on="0"/>
        <pt x="43" y="267" on="0"/>
        <pt x="43" y="350" on="1"/>
        <pt x="43" y="527" on="0"/>
        <pt x="160" y="712" on="0"/>
        <pt x="273" y="712" on="1"/>
        <pt x="309" y="712" on="0"/>
        <pt x="358" y="705" on="0"/>
        <pt x="383" y="700" on="1"/>
        <pt x="694" y="700" on="1"/>
        <pt x="694" y="631" on="1"/>
        <pt x="458" y="631" on="1"/>
        <pt x="458" y="394" on="1"/>
        <pt x="674" y="394" on="1"/>
        <pt x="674" y="325" on="1"/>
        <pt x="458" y="325" on="1"/>
        <pt x="458" y="69" on="1"/>
        <pt x="699" y="69" on="1"/>
        <pt x="699" y="0" on="1"/>
      </contour>
    </TTGlyph>
    <TTGlyph name="Oacute" xMin="43" yMin="-12" xMax="506" yMax="870">
      <component glyphName="O" x="0" y="0" flags="0x204"/>
      <component glyphName="uniF6C9" x="182" y="0" flags="0x4"/>
    </TTGlyph>
    <TTGlyph name="Ocircumflex" xMin="43" yMin="-12" xMax="506" yMax="870">
      <component glyphName="O" x="0" y="0" flags="0x204"/>
      <component glyphName="uniF408" x="83" y="0" flags="0x4"/>
    </TTGlyph>
    <TTGlyph name="Odieresis" xMin="43" yMin="-12" xMax="506" yMax="841">
      <component glyphName="O" x="0" y="0" flags="0x204"/>
      <component glyphName="uniF6CB" x="89" y="0" flags="0x4"/>
    </TTGlyph>
    <TTGlyph name="Ograve" xMin="43" yMin="-12" xMax="506" yMax="870">
      <component glyphName="O" x="0" y="0" flags="0x204"/>
      <component glyphName="uniF6CE" x="81" y="0" flags="0x4"/>
    </TTGlyph>
    <TTGlyph name="Ohungarumlaut" xMin="43" yMin="-12" xMax="506" yMax="850">
      <component glyphName="O" x="0" y="0" flags="0x204"/>
      <component glyphName="uniF6CF" x="128" y="0" flags="0x4"/>
    </TTGlyph>
    <TTGlyph name="Omacron" xMin="43" yMin="-12" xMax="506" yMax="843">
      <component glyphName="O" x="0" y="0" flags="0x204"/>
      <component glyphName="uniF6D0" x="89" y="0" flags="0x4"/>
    </TTGlyph>
    <TTGlyph name="Oslash" xMin="43" yMin="-12" xMax="506" yMax="713">
      <contour>
        <pt x="43" y="350" on="1"/>
        <pt x="43" y="528" on="0"/>
        <pt x="157" y="712" on="0"/>
        <pt x="274" y="712" on="1"/>
        <pt x="319" y="712" on="0"/>
        <pt x="390" y="685" on="0"/>
        <pt x="416" y="660" on="1"/>
        <pt x="446" y="713" on="1"/>
        <pt x="494" y="686" on="1"/>
        <pt x="453" y="613" on="1"/>
        <pt x="481" y="565" on="0"/>
        <pt x="506" y="433" on="0"/>
        <pt x="506" y="350" on="1"/>
        <pt x="506" y="172" on="0"/>
        <pt x="391" y="-12" on="0"/>
        <pt x="274" y="-12" on="1"/>
        <pt x="187" y="-12" on="0"/>
        <pt x="134" y="38" on="1"/>
        <pt x="107" y="-12" on="1"/>
        <pt x="58" y="16" on="1"/>
        <pt x="96" y="85" on="1"/>
        <pt x="68" y="133" on="0"/>
        <pt x="43" y="266" on="0"/>
      </contour>
      <contour>
        <pt x="122" y="350" on="1"/>
        <pt x="122" y="301" on="0"/>
        <pt x="133" y="212" on="0"/>
        <pt x="145" y="174" on="1"/>
        <pt x="375" y="586" on="1"/>
        <pt x="357" y="613" on="0"/>
        <pt x="307" y="643" on="0"/>
        <pt x="274" y="643" on="1"/>
        <pt x="200" y="643" on="0"/>
        <pt x="122" y="499" on="0"/>
      </contour>
      <contour>
        <pt x="427" y="350" on="1"/>
        <pt x="427" y="398" on="0"/>
        <pt x="416" y="486" on="0"/>
        <pt x="404" y="523" on="1"/>
        <pt x="175" y="111" on="1"/>
        <pt x="193" y="85" on="0"/>
        <pt x="242" y="57" on="0"/>
        <pt x="274" y="57" on="1"/>
        <pt x="349" y="57" on="0"/>
        <pt x="427" y="201" on="0"/>
      </contour>
    </TTGlyph>
    <TTGlyph name="Otilde" xMin="43" yMin="-12" xMax="506" yMax="839">
      <component glyphName="O" x="0" y="0" flags="0x204"/>
      <component glyphName="uniF40D" x="79" y="0" flags="0x4"/>
    </TTGlyph>
    <TTGlyph name="P" xMin="64" yMin="0" xMax="423" yMax="708">
      <contour>
        <pt x="64" y="693" on="1"/>
        <pt x="96" y="702" on="0"/>
        <pt x="168" y="708" on="0"/>
        <pt x="203" y="708" on="1"/>
        <pt x="243" y="708" on="0"/>
        <pt x="321" y="690" on="0"/>
        <pt x="384" y="642" on="0"/>
        <pt x="423" y="558" on="0"/>
        <pt x="423" y="493" on="1"/>
        <pt x="423" y="430" on="0"/>
        <pt x="386" y="342" on="0"/>
        <pt x="325" y="287" on="0"/>
        <pt x="246" y="262" on="0"/>
        <pt x="204" y="262" on="1"/>
        <pt x="200" y="262" on="0"/>
        <pt x="182" y="262" on="0"/>
        <pt x="162" y="263" on="0"/>
        <pt x="143" y="265" on="0"/>
        <pt x="139" y="266" on="1"/>
        <pt x="139" y="0" on="1"/>
        <pt x="64" y="0" on="1"/>
      </contour>
      <contour>
        <pt x="207" y="639" on="1"/>
        <pt x="187" y="639" on="0"/>
        <pt x="150" y="636" on="0"/>
        <pt x="139" y="633" on="1"/>
        <pt x="139" y="335" on="1"/>
        <pt x="143" y="333" on="0"/>
        <pt x="160" y="332" on="0"/>
        <pt x="178" y="331" on="0"/>
        <pt x="195" y="331" on="0"/>
        <pt x="199" y="331" on="1"/>
        <pt x="227" y="331" on="0"/>
        <pt x="279" y="345" on="0"/>
        <pt x="319" y="382" on="0"/>
        <pt x="344" y="445" on="0"/>
        <pt x="344" y="493" on="1"/>
        <pt x="344" y="535" on="0"/>
        <pt x="321" y="591" on="0"/>
        <pt x="284" y="625" on="0"/>
        <pt x="234" y="639" on="0"/>
      </contour>
    </TTGlyph>
    <TTGlyph name="Q" xMin="43" yMin="-178" xMax="566" yMax="712">
      <contour>
        <pt x="566" y="-166" on="1"/>
        <pt x="546" y="-173" on="0"/>
        <pt x="509" y="-178" on="0"/>
        <pt x="490" y="-178" on="1"/>
        <pt x="450" y="-178" on="0"/>
        <pt x="373" y="-157" on="0"/>
        <pt x="302" y="-133" on="0"/>
        <pt x="236" y="-112" on="0"/>
        <pt x="206" y="-112" on="1"/>
        <pt x="188" y="-112" on="0"/>
        <pt x="170" y="-118" on="1"/>
        <pt x="170" y="-50" on="1"/>
        <pt x="192" y="-44" on="0"/>
        <pt x="214" y="-44" on="1"/>
        <pt x="247" y="-44" on="0"/>
        <pt x="314" y="-64" on="0"/>
        <pt x="382" y="-88" on="0"/>
        <pt x="455" y="-108" on="0"/>
        <pt x="494" y="-108" on="1"/>
        <pt x="530" y="-108" on="0"/>
        <pt x="566" y="-98" on="1"/>
      </contour>
      <contour>
        <pt x="43" y="350" on="1"/>
        <pt x="43" y="528" on="0"/>
        <pt x="157" y="712" on="0"/>
        <pt x="274" y="712" on="1"/>
        <pt x="337" y="712" on="0"/>
        <pt x="425" y="661" on="0"/>
        <pt x="480" y="567" on="0"/>
        <pt x="506" y="433" on="0"/>
        <pt x="506" y="350" on="1"/>
        <pt x="506" y="172" on="0"/>
        <pt x="391" y="-12" on="0"/>
        <pt x="274" y="-12" on="1"/>
        <pt x="212" y="-12" on="0"/>
        <pt x="124" y="39" on="0"/>
        <pt x="68" y="133" on="0"/>
        <pt x="43" y="267" on="0"/>
      </contour>
      <contour>
        <pt x="122" y="350" on="1"/>
        <pt x="122" y="291" on="0"/>
        <pt x="139" y="185" on="0"/>
        <pt x="175" y="105" on="0"/>
        <pt x="233" y="57" on="0"/>
        <pt x="274" y="57" on="1"/>
        <pt x="349" y="57" on="0"/>
        <pt x="427" y="201" on="0"/>
        <pt x="427" y="350" on="1"/>
        <pt x="427" y="408" on="0"/>
        <pt x="410" y="514" on="0"/>
        <pt x="374" y="595" on="0"/>
        <pt x="316" y="643" on="0"/>
        <pt x="274" y="643" on="1"/>
        <pt x="200" y="643" on="0"/>
        <pt x="122" y="499" on="0"/>
      </contour>
    </TTGlyph>
    <TTGlyph name="R" xMin="64" yMin="0" xMax="451" yMax="708">
      <contour>
        <pt x="64" y="693" on="1"/>
        <pt x="97" y="701" on="0"/>
        <pt x="176" y="708" on="0"/>
        <pt x="209" y="708" on="1"/>
        <pt x="248" y="708" on="0"/>
        <pt x="318" y="689" on="0"/>
        <pt x="370" y="644" on="0"/>
        <pt x="401" y="571" on="0"/>
        <pt x="401" y="516" on="1"/>
        <pt x="401" y="433" on="0"/>
        <pt x="332" y="333" on="0"/>
        <pt x="275" y="316" on="1"/>
        <pt x="313" y="279" on="1"/>
        <pt x="451" y="0" on="1"/>
        <pt x="364" y="0" on="1"/>
        <pt x="214" y="305" on="1"/>
        <pt x="139" y="320" on="1"/>
        <pt x="139" y="0" on="1"/>
        <pt x="64" y="0" on="1"/>
      </contour>
      <contour>
        <pt x="139" y="370" on="1"/>
        <pt x="199" y="370" on="1"/>
        <pt x="256" y="370" on="0"/>
        <pt x="322" y="440" on="0"/>
        <pt x="322" y="512" on="1"/>
        <pt x="322" y="567" on="0"/>
        <pt x="267" y="639" on="0"/>
        <pt x="213" y="639" on="1"/>
        <pt x="193" y="639" on="0"/>
        <pt x="150" y="636" on="0"/>
        <pt x="139" y="633" on="1"/>
      </contour>
    </TTGlyph>
    <TTGlyph name="Racute" xMin="64" yMin="0" xMax="451" yMax="870">
      <component glyphName="R" x="0" y="0" flags="0x204"/>
      <component glyphName="uniF6C9" x="102" y="0" flags="0x4"/>
    </TTGlyph>
    <TTGlyph name="Rcaron" xMin="64" yMin="0" xMax="451" yMax="870">
      <component glyphName="R" x="0" y="0" flags="0x204"/>
      <component glyphName="uniF6CA" x="13" y="0" flags="0x4"/>
    </TTGlyph>
    <TTGlyph name="Rcommaaccent" xMin="64" yMin="-245" xMax="451" yMax="708">
      <component glyphName="R" x="0" y="0" flags="0x204"/>
      <component glyphName="uniF6C3" x="131" y="0" flags="0x4"/>
    </TTGlyph>
    <TTGlyph name="S" xMin="33" yMin="-12" xMax="392" yMax="712">
      <contour>
        <pt x="59" y="93" on="1"/>
        <pt x="78" y="80" on="0"/>
        <pt x="147" y="57" on="0"/>
        <pt x="191" y="57" on="1"/>
        <pt x="247" y="57" on="0"/>
        <pt x="317" y="112" on="0"/>
        <pt x="317" y="171" on="1"/>
        <pt x="317" y="210" on="0"/>
        <pt x="277" y="268" on="0"/>
        <pt x="217" y="317" on="0"/>
        <pt x="148" y="364" on="0"/>
        <pt x="88" y="421" on="0"/>
        <pt x="48" y="495" on="0"/>
        <pt x="48" y="547" on="1"/>
        <pt x="48" y="631" on="0"/>
        <pt x="149" y="712" on="0"/>
        <pt x="230" y="712" on="1"/>
        <pt x="280" y="712" on="0"/>
        <pt x="358" y="694" on="0"/>
        <pt x="382" y="680" on="1"/>
        <pt x="358" y="614" on="1"/>
        <pt x="340" y="625" on="0"/>
        <pt x="273" y="643" on="0"/>
        <pt x="229" y="643" on="1"/>
        <pt x="175" y="643" on="0"/>
        <pt x="123" y="590" on="0"/>
        <pt x="123" y="550" on="1"/>
        <pt x="123" y="515" on="0"/>
        <pt x="163" y="461" on="0"/>
        <pt x="223" y="413" on="0"/>
        <pt x="292" y="364" on="0"/>
        <pt x="352" y="304" on="0"/>
        <pt x="392" y="228" on="0"/>
        <pt x="392" y="176" on="1"/>
        <pt x="392" y="88" on="0"/>
        <pt x="288" y="-12" on="0"/>
        <pt x="193" y="-12" on="1"/>
        <pt x="133" y="-12" on="0"/>
        <pt x="56" y="10" on="0"/>
        <pt x="33" y="24" on="1"/>
      </contour>
    </TTGlyph>
    <TTGlyph name="Sacute" xMin="33" yMin="-12" xMax="392" yMax="870">
      <component glyphName="S" x="0" y="0" flags="0x204"/>
      <component glyphName="uniF6C9" x="126" y="0" flags="0x4"/>
    </TTGlyph>
    <TTGlyph name="Scaron" xMin="33" yMin="-12" xMax="392" yMax="870">
      <component glyphName="S" x="0" y="0" flags="0x204"/>
      <component glyphName="uniF6CA" x="44" y="0" flags="0x4"/>
    </TTGlyph>
    <TTGlyph name="Scedilla" xMin="33" yMin="-208" xMax="392" yMax="712">
      <contour>
        <pt x="59" y="93" on="1"/>
        <pt x="78" y="80" on="0"/>
        <pt x="147" y="57" on="0"/>
        <pt x="191" y="57" on="1"/>
        <pt x="247" y="57" on="0"/>
        <pt x="317" y="112" on="0"/>
        <pt x="317" y="171" on="1"/>
        <pt x="317" y="210" on="0"/>
        <pt x="277" y="268" on="0"/>
        <pt x="217" y="317" on="0"/>
        <pt x="148" y="364" on="0"/>
        <pt x="88" y="421" on="0"/>
        <pt x="48" y="495" on="0"/>
        <pt x="48" y="547" on="1"/>
        <pt x="48" y="631" on="0"/>
        <pt x="149" y="712" on="0"/>
        <pt x="230" y="712" on="1"/>
        <pt x="280" y="712" on="0"/>
        <pt x="358" y="694" on="0"/>
        <pt x="382" y="680" on="1"/>
        <pt x="358" y="614" on="1"/>
        <pt x="340" y="625" on="0"/>
        <pt x="273" y="643" on="0"/>
        <pt x="229" y="643" on="1"/>
        <pt x="175" y="643" on="0"/>
        <pt x="123" y="590" on="0"/>
        <pt x="123" y="550" on="1"/>
        <pt x="123" y="515" on="0"/>
        <pt x="163" y="461" on="0"/>
        <pt x="223" y="413" on="0"/>
        <pt x="292" y="364" on="0"/>
        <pt x="352" y="304" on="0"/>
        <pt x="392" y="228" on="0"/>
        <pt x="392" y="176" on="1"/>
        <pt x="392" y="98" on="0"/>
        <pt x="309" y="2" on="0"/>
        <pt x="234" y="-9" on="1"/>
        <pt x="219" y="-43" on="1"/>
        <pt x="284" y="-58" on="0"/>
        <pt x="284" y="-118" on="1"/>
        <pt x="284" y="-157" on="0"/>
        <pt x="227" y="-208" on="0"/>
        <pt x="179" y="-208" on="1"/>
        <pt x="159" y="-208" on="0"/>
        <pt x="142" y="-204" on="1"/>
        <pt x="149" y="-165" on="1"/>
        <pt x="172" y="-167" on="0"/>
        <pt x="199" y="-161" on="0"/>
        <pt x="213" y="-149" on="0"/>
        <pt x="217" y="-134" on="0"/>
        <pt x="217" y="-127" on="1"/>
        <pt x="217" y="-99" on="0"/>
        <pt x="148" y="-90" on="1"/>
        <pt x="182" y="-12" on="1"/>
        <pt x="126" y="-10" on="0"/>
        <pt x="54" y="10" on="0"/>
        <pt x="33" y="24" on="1"/>
      </contour>
    </TTGlyph>
    <TTGlyph name="Scircumflex" xMin="33" yMin="-12" xMax="392" yMax="870">
      <component glyphName="S" x="0" y="0" flags="0x204"/>
      <component glyphName="uniF408" x="38" y="0" flags="0x4"/>
    </TTGlyph>
    <TTGlyph name="Scommaaccent" xMin="33" yMin="-245" xMax="392" yMax="712">
      <component glyphName="S" x="0" y="0" flags="0x204"/>
      <component glyphName="uniF6C3" x="96" y="0" flags="0x4"/>
    </TTGlyph>
    <TTGlyph name="T" xMin="14" yMin="0" xMax="433" yMax="700">
      <contour>
        <pt x="433" y="631" on="1"/>
        <pt x="261" y="631" on="1"/>
        <pt x="261" y="0" on="1"/>
        <pt x="186" y="0" on="1"/>
        <pt x="186" y="631" on="1"/>
        <pt x="14" y="631" on="1"/>
        <pt x="14" y="700" on="1"/>
        <pt x="433" y="700" on="1"/>
      </contour>
    </TTGlyph>
    <TTGlyph name="Tcaron" xMin="14" yMin="0" xMax="433" yMax="870">
      <component glyphName="T" x="0" y="0" flags="0x204"/>
      <component glyphName="uniF6CA" x="34" y="0" flags="0x4"/>
    </TTGlyph>
    <TTGlyph name="Tcedilla" xMin="14" yMin="-208" xMax="433" yMax="700">
      <contour>
        <pt x="186" y="0" on="1"/>
        <pt x="186" y="631" on="1"/>
        <pt x="14" y="631" on="1"/>
        <pt x="14" y="700" on="1"/>
        <pt x="433" y="700" on="1"/>
        <pt x="433" y="631" on="1"/>
        <pt x="261" y="631" on="1"/>
        <pt x="261" y="0" on="1"/>
        <pt x="249" y="0" on="1"/>
        <pt x="230" y="-43" on="1"/>
        <pt x="295" y="-58" on="0"/>
        <pt x="295" y="-118" on="1"/>
        <pt x="295" y="-157" on="0"/>
        <pt x="238" y="-208" on="0"/>
        <pt x="190" y="-208" on="1"/>
        <pt x="170" y="-208" on="0"/>
        <pt x="153" y="-204" on="1"/>
        <pt x="160" y="-165" on="1"/>
        <pt x="183" y="-167" on="0"/>
        <pt x="210" y="-161" on="0"/>
        <pt x="224" y="-149" on="0"/>
        <pt x="228" y="-134" on="0"/>
        <pt x="228" y="-127" on="1"/>
        <pt x="228" y="-99" on="0"/>
        <pt x="159" y="-90" on="1"/>
        <pt x="199" y="0" on="1"/>
      </contour>
    </TTGlyph>
    <TTGlyph name="Tcommaaccent" xMin="14" yMin="-245" xMax="433" yMax="700">
      <component glyphName="T" x="0" y="0" flags="0x204"/>
      <component glyphName="uniF6C3" x="114" y="0" flags="0x4"/>
    </TTGlyph>
    <TTGlyph name="Thorn" xMin="65" yMin="0" xMax="424" yMax="700">
      <contour>
        <pt x="65" y="700" on="1"/>
        <pt x="140" y="700" on="1"/>
        <pt x="140" y="622" on="1"/>
        <pt x="171" y="625" on="0"/>
        <pt x="204" y="625" on="1"/>
        <pt x="244" y="625" on="0"/>
        <pt x="322" y="606" on="0"/>
        <pt x="385" y="558" on="0"/>
        <pt x="424" y="474" on="0"/>
        <pt x="424" y="409" on="1"/>
        <pt x="424" y="346" on="0"/>
        <pt x="387" y="258" on="0"/>
        <pt x="326" y="204" on="0"/>
        <pt x="247" y="179" on="0"/>
        <pt x="205" y="179" on="1"/>
        <pt x="201" y="179" on="0"/>
        <pt x="183" y="179" on="0"/>
        <pt x="163" y="180" on="0"/>
        <pt x="144" y="182" on="0"/>
        <pt x="140" y="183" on="1"/>
        <pt x="140" y="0" on="1"/>
        <pt x="65" y="0" on="1"/>
      </contour>
      <contour>
        <pt x="140" y="252" on="1"/>
        <pt x="144" y="250" on="0"/>
        <pt x="161" y="249" on="0"/>
        <pt x="179" y="247" on="0"/>
        <pt x="196" y="247" on="0"/>
        <pt x="200" y="247" on="1"/>
        <pt x="228" y="247" on="0"/>
        <pt x="280" y="261" on="0"/>
        <pt x="320" y="298" on="0"/>
        <pt x="345" y="361" on="0"/>
        <pt x="345" y="410" on="1"/>
        <pt x="345" y="451" on="0"/>
        <pt x="322" y="507" on="0"/>
        <pt x="285" y="542" on="0"/>
        <pt x="235" y="557" on="0"/>
        <pt x="208" y="557" on="1"/>
        <pt x="188" y="557" on="0"/>
        <pt x="151" y="555" on="0"/>
        <pt x="140" y="552" on="1"/>
      </contour>
    </TTGlyph>
    <TTGlyph name="U" xMin="64" yMin="-9" xMax="457" yMax="700">
      <contour>
        <pt x="385" y="700" on="1"/>
        <pt x="457" y="700" on="1"/>
        <pt x="457" y="231" on="1"/>
        <pt x="457" y="104" on="0"/>
        <pt x="358" y="-9" on="0"/>
        <pt x="267" y="-9" on="1"/>
        <pt x="161" y="-9" on="0"/>
        <pt x="64" y="101" on="0"/>
        <pt x="64" y="215" on="1"/>
        <pt x="64" y="700" on="1"/>
        <pt x="139" y="700" on="1"/>
        <pt x="139" y="254" on="1"/>
        <pt x="139" y="200" on="0"/>
        <pt x="153" y="126" on="0"/>
        <pt x="185" y="80" on="0"/>
        <pt x="233" y="60" on="0"/>
        <pt x="268" y="60" on="1"/>
        <pt x="334" y="60" on="0"/>
        <pt x="385" y="152" on="0"/>
        <pt x="385" y="254" on="1"/>
      </contour>
    </TTGlyph>
    <TTGlyph name="Uacute" xMin="64" yMin="-9" xMax="457" yMax="870">
      <component glyphName="U" x="0" y="0" flags="0x204"/>
      <component glyphName="uniF6C9" x="158" y="0" flags="0x4"/>
    </TTGlyph>
    <TTGlyph name="Ubreve" xMin="64" yMin="-9" xMax="457" yMax="871">
      <component glyphName="U" x="0" y="0" flags="0x204"/>
      <component glyphName="uniF406" x="59" y="0" flags="0x4"/>
    </TTGlyph>
    <TTGlyph name="Ucircumflex" xMin="64" yMin="-9" xMax="457" yMax="870">
      <component glyphName="U" x="0" y="0" flags="0x204"/>
      <component glyphName="uniF408" x="73" y="0" flags="0x4"/>
    </TTGlyph>
    <TTGlyph name="Udieresis" xMin="64" yMin="-9" xMax="457" yMax="841">
      <component glyphName="U" x="0" y="0" flags="0x204"/>
      <component glyphName="uniF6CB" x="75" y="0" flags="0x4"/>
    </TTGlyph>
    <TTGlyph name="Ugrave" xMin="64" yMin="-9" xMax="457" yMax="870">
      <component glyphName="U" x="0" y="0" flags="0x204"/>
      <component glyphName="uniF6CE" x="74" y="0" flags="0x4"/>
    </TTGlyph>
    <TTGlyph name="Uhungarumlaut" xMin="64" yMin="-9" xMax="457" yMax="850">
      <component glyphName="U" x="0" y="0" flags="0x204"/>
      <component glyphName="uniF6CF" x="106" y="0" flags="0x4"/>
    </TTGlyph>
    <TTGlyph name="Umacron" xMin="64" yMin="-9" xMax="457" yMax="843">
      <component glyphName="U" x="0" y="0" flags="0x204"/>
      <component glyphName="uniF6D0" x="73" y="0" flags="0x4"/>
    </TTGlyph>
    <TTGlyph name="Uogonek" xMin="64" yMin="-196" xMax="457" yMax="700">
      <contour>
        <pt x="385" y="700" on="1"/>
        <pt x="457" y="700" on="1"/>
        <pt x="457" y="231" on="1"/>
        <pt x="457" y="134" on="0"/>
        <pt x="398" y="23" on="0"/>
        <pt x="344" y="3" on="1"/>
        <pt x="321" y="-14" on="0"/>
        <pt x="296" y="-58" on="0"/>
        <pt x="296" y="-88" on="1"/>
        <pt x="296" y="-102" on="0"/>
        <pt x="306" y="-125" on="0"/>
        <pt x="324" y="-139" on="0"/>
        <pt x="351" y="-141" on="0"/>
        <pt x="369" y="-134" on="1"/>
        <pt x="380" y="-174" on="1"/>
        <pt x="369" y="-184" on="0"/>
        <pt x="326" y="-196" on="0"/>
        <pt x="308" y="-196" on="1"/>
        <pt x="269" y="-196" on="0"/>
        <pt x="223" y="-147" on="0"/>
        <pt x="222" y="-108" on="1"/>
        <pt x="223" y="-78" on="0"/>
        <pt x="250" y="-27" on="0"/>
        <pt x="275" y="-9" on="1"/>
        <pt x="267" y="-9" on="1"/>
        <pt x="161" y="-9" on="0"/>
        <pt x="64" y="101" on="0"/>
        <pt x="64" y="215" on="1"/>
        <pt x="64" y="700" on="1"/>
        <pt x="139" y="700" on="1"/>
        <pt x="139" y="254" on="1"/>
        <pt x="139" y="200" on="0"/>
        <pt x="153" y="126" on="0"/>
        <pt x="185" y="80" on="0"/>
        <pt x="233" y="60" on="0"/>
        <pt x="268" y="60" on="1"/>
        <pt x="334" y="60" on="0"/>
        <pt x="385" y="152" on="0"/>
        <pt x="385" y="254" on="1"/>
      </contour>
    </TTGlyph>
    <TTGlyph name="Uring" xMin="64" yMin="-9" xMax="457" yMax="853">
      <component glyphName="U" x="0" y="0" flags="0x204"/>
      <component glyphName="uniF40C" x="114" y="0" flags="0x4"/>
    </TTGlyph>
    <TTGlyph name="V" xMin="-2" yMin="-11" xMax="465" yMax="700">
      <contour>
        <pt x="218" y="221" on="1"/>
        <pt x="236" y="114" on="1"/>
        <pt x="238" y="114" on="1"/>
        <pt x="258" y="223" on="1"/>
        <pt x="388" y="700" on="1"/>
        <pt x="465" y="700" on="1"/>
        <pt x="253" y="-11" on="1"/>
        <pt x="213" y="-11" on="1"/>
        <pt x="-2" y="700" on="1"/>
        <pt x="81" y="700" on="1"/>
      </contour>
    </TTGlyph>
    <TTGlyph name="W" xMin="5" yMin="-11" xMax="666" yMax="700">
      <contour>
        <pt x="182" y="237" on="1"/>
        <pt x="194" y="120" on="1"/>
        <pt x="196" y="120" on="1"/>
        <pt x="208" y="239" on="1"/>
        <pt x="320" y="700" on="1"/>
        <pt x="363" y="700" on="1"/>
        <pt x="475" y="238" on="1"/>
        <pt x="487" y="120" on="1"/>
        <pt x="488" y="120" on="1"/>
        <pt x="502" y="239" on="1"/>
        <pt x="591" y="700" on="1"/>
        <pt x="666" y="700" on="1"/>
        <pt x="510" y="-11" on="1"/>
        <pt x="464" y="-11" on="1"/>
        <pt x="353" y="450" on="1"/>
        <pt x="339" y="557" on="1"/>
        <pt x="336" y="557" on="1"/>
        <pt x="322" y="449" on="1"/>
        <pt x="211" y="-11" on="1"/>
        <pt x="164" y="-11" on="1"/>
        <pt x="5" y="700" on="1"/>
        <pt x="86" y="700" on="1"/>
      </contour>
    </TTGlyph>
    <TTGlyph name="X" xMin="19" yMin="0" xMax="480" yMax="700">
      <contour>
        <pt x="203" y="356" on="1"/>
        <pt x="35" y="700" on="1"/>
        <pt x="125" y="700" on="1"/>
        <pt x="234" y="463" on="1"/>
        <pt x="254" y="404" on="1"/>
        <pt x="274" y="463" on="1"/>
        <pt x="389" y="700" on="1"/>
        <pt x="472" y="700" on="1"/>
        <pt x="298" y="363" on="1"/>
        <pt x="480" y="0" on="1"/>
        <pt x="392" y="0" on="1"/>
        <pt x="271" y="251" on="1"/>
        <pt x="248" y="313" on="1"/>
        <pt x="227" y="251" on="1"/>
        <pt x="103" y="0" on="1"/>
        <pt x="19" y="0" on="1"/>
      </contour>
    </TTGlyph>
    <TTGlyph name="Y" xMin="5" yMin="0" xMax="450" yMax="700">
      <contour>
        <pt x="191" y="278" on="1"/>
        <pt x="5" y="700" on="1"/>
        <pt x="93" y="700" on="1"/>
        <pt x="219" y="395" on="1"/>
        <pt x="232" y="334" on="1"/>
        <pt x="234" y="334" on="1"/>
        <pt x="247" y="397" on="1"/>
        <pt x="369" y="700" on="1"/>
        <pt x="450" y="700" on="1"/>
        <pt x="266" y="279" on="1"/>
        <pt x="266" y="0" on="1"/>
        <pt x="191" y="0" on="1"/>
      </contour>
    </TTGlyph>
    <TTGlyph name="Yacute" xMin="5" yMin="0" xMax="450" yMax="870">
      <component glyphName="Y" x="0" y="0" flags="0x204"/>
      <component glyphName="uniF6C9" x="129" y="0" flags="0x4"/>
    </TTGlyph>
    <TTGlyph name="Ydieresis" xMin="5" yMin="0" xMax="450" yMax="841">
      <component glyphName="Y" x="0" y="0" flags="0x204"/>
      <component glyphName="uniF6CB" x="45" y="0" flags="0x4"/>
    </TTGlyph>
    <TTGlyph name="Z" xMin="29" yMin="0" xMax="410" yMax="700">
      <contour>
        <pt x="29" y="69" on="1"/>
        <pt x="307" y="591" on="1"/>
        <pt x="340" y="631" on="1"/>
        <pt x="29" y="631" on="1"/>
        <pt x="29" y="700" on="1"/>
        <pt x="410" y="700" on="1"/>
        <pt x="410" y="631" on="1"/>
        <pt x="131" y="106" on="1"/>
        <pt x="99" y="69" on="1"/>
        <pt x="410" y="69" on="1"/>
        <pt x="410" y="0" on="1"/>
        <pt x="29" y="0" on="1"/>
      </contour>
    </TTGlyph>
    <TTGlyph name="Zacute" xMin="29" yMin="0" xMax="410" yMax="870">
      <component glyphName="Z" x="0" y="0" flags="0x204"/>
      <component glyphName="uniF6C9" x="113" y="0" flags="0x4"/>
    </TTGlyph>
    <TTGlyph name="Zcaron" xMin="29" yMin="0" xMax="410" yMax="870">
      <component glyphName="Z" x="0" y="0" flags="0x204"/>
      <component glyphName="uniF6CA" x="22" y="0" flags="0x4"/>
    </TTGlyph>
    <TTGlyph name="Zdotaccent" xMin="29" yMin="0" xMax="410" yMax="849">
      <component glyphName="Z" x="0" y="0" flags="0x204"/>
      <component glyphName="uniF40B" x="107" y="0" flags="0x4"/>
    </TTGlyph>
    <TTGlyph name="a" xMin="29" yMin="-7" xMax="350" yMax="508">
      <contour>
        <pt x="54" y="470" on="1"/>
        <pt x="83" y="488" on="0"/>
        <pt x="166" y="508" on="0"/>
        <pt x="212" y="508" on="1"/>
        <pt x="254" y="508" on="0"/>
        <pt x="305" y="483" on="0"/>
        <pt x="334" y="440" on="0"/>
        <pt x="343" y="385" on="0"/>
        <pt x="343" y="355" on="1"/>
        <pt x="343" y="295" on="0"/>
        <pt x="338" y="181" on="0"/>
        <pt x="338" y="130" on="1"/>
        <pt x="338" y="92" on="0"/>
        <pt x="343" y="27" on="0"/>
        <pt x="350" y="-2" on="1"/>
        <pt x="295" y="-2" on="1"/>
        <pt x="278" y="57" on="1"/>
        <pt x="274" y="57" on="1"/>
        <pt x="259" y="31" on="0"/>
        <pt x="201" y="-7" on="0"/>
        <pt x="152" y="-7" on="1"/>
        <pt x="98" y="-7" on="0"/>
        <pt x="29" y="68" on="0"/>
        <pt x="29" y="134" on="1"/>
        <pt x="29" y="177" on="0"/>
        <pt x="58" y="235" on="0"/>
        <pt x="111" y="271" on="0"/>
        <pt x="184" y="286" on="0"/>
        <pt x="229" y="286" on="1"/>
        <pt x="239" y="286" on="0"/>
        <pt x="259" y="286" on="0"/>
        <pt x="270" y="285" on="1"/>
        <pt x="273" y="316" on="0"/>
        <pt x="273" y="340" on="1"/>
        <pt x="273" y="397" on="0"/>
        <pt x="239" y="443" on="0"/>
        <pt x="194" y="443" on="1"/>
        <pt x="166" y="443" on="0"/>
        <pt x="100" y="426" on="0"/>
        <pt x="78" y="413" on="1"/>
      </contour>
      <contour>
        <pt x="271" y="228" on="1"/>
        <pt x="261" y="229" on="0"/>
        <pt x="241" y="230" on="0"/>
        <pt x="231" y="230" on="1"/>
        <pt x="207" y="230" on="0"/>
        <pt x="161" y="222" on="0"/>
        <pt x="125" y="202" on="0"/>
        <pt x="104" y="168" on="0"/>
        <pt x="104" y="142" on="1"/>
        <pt x="104" y="102" on="0"/>
        <pt x="143" y="58" on="0"/>
        <pt x="174" y="58" on="1"/>
        <pt x="216" y="58" on="0"/>
        <pt x="262" y="98" on="0"/>
        <pt x="271" y="122" on="1"/>
      </contour>
    </TTGlyph>
    <TTGlyph name="aacute" xMin="29" yMin="-7" xMax="350" yMax="720">
      <component glyphName="a" x="0" y="0" flags="0x204"/>
      <component glyphName="acute" x="87" y="0" flags="0x4"/>
    </TTGlyph>
    <TTGlyph name="abreve" xMin="29" yMin="-7" xMax="350" yMax="717">
      <component glyphName="a" x="0" y="0" flags="0x204"/>
      <component glyphName="breve" x="15" y="0" flags="0x4"/>
    </TTGlyph>
    <TTGlyph name="acircumflex" xMin="29" yMin="-7" xMax="350" yMax="732">
      <component glyphName="a" x="0" y="0" flags="0x204"/>
      <component glyphName="circumflex" x="31" y="0" flags="0x4"/>
    </TTGlyph>
    <TTGlyph name="acute" xMin="60" yMin="571" xMax="185" yMax="720">
      <contour>
        <pt x="107" y="720" on="1"/>
        <pt x="185" y="720" on="1"/>
        <pt x="185" y="699" on="1"/>
        <pt x="103" y="571" on="1"/>
        <pt x="60" y="571" on="1"/>
      </contour>
    </TTGlyph>
    <TTGlyph name="acutecomb" xMin="-337" yMin="571" xMax="-212" yMax="720">
      <component glyphName="acute" x="-397" y="0" flags="0x4"/>
    </TTGlyph>
    <TTGlyph name="adieresis" xMin="29" yMin="-7" xMax="350" yMax="702">
      <component glyphName="a" x="0" y="0" flags="0x204"/>
      <component glyphName="dieresis" x="18" y="0" flags="0x4"/>
    </TTGlyph>
    <TTGlyph name="ae" xMin="29" yMin="-12" xMax="601" yMax="512">
      <component glyphName="uni04D5" x="0" y="0" flags="0x204"/>
    </TTGlyph>
    <TTGlyph name="afii10017" xMin="5" yMin="0" xMax="468" yMax="711">
      <component glyphName="A" x="0" y="0" flags="0x204"/>
    </TTGlyph>
    <TTGlyph name="afii10018" xMin="64" yMin="-8" xMax="416" yMax="700">
      <contour>
        <pt x="64" y="700" on="1"/>
        <pt x="377" y="700" on="1"/>
        <pt x="377" y="631" on="1"/>
        <pt x="139" y="631" on="1"/>
        <pt x="139" y="416" on="1"/>
        <pt x="153" y="419" on="0"/>
        <pt x="194" y="425" on="0"/>
        <pt x="213" y="425" on="1"/>
        <pt x="255" y="425" on="0"/>
        <pt x="329" y="406" on="0"/>
        <pt x="384" y="360" on="0"/>
        <pt x="416" y="281" on="0"/>
        <pt x="416" y="221" on="1"/>
        <pt x="416" y="161" on="0"/>
        <pt x="385" y="74" on="0"/>
        <pt x="330" y="19" on="0"/>
        <pt x="254" y="-8" on="0"/>
        <pt x="208" y="-8" on="1"/>
        <pt x="194" y="-8" on="0"/>
        <pt x="157" y="-7" on="0"/>
        <pt x="118" y="-4" on="0"/>
        <pt x="79" y="2" on="0"/>
        <pt x="64" y="6" on="1"/>
      </contour>
      <contour>
        <pt x="139" y="67" on="1"/>
        <pt x="150" y="63" on="0"/>
        <pt x="195" y="61" on="0"/>
        <pt x="215" y="61" on="1"/>
        <pt x="269" y="61" on="0"/>
        <pt x="337" y="131" on="0"/>
        <pt x="337" y="207" on="1"/>
        <pt x="337" y="255" on="0"/>
        <pt x="316" y="314" on="0"/>
        <pt x="280" y="346" on="0"/>
        <pt x="231" y="356" on="0"/>
        <pt x="203" y="356" on="1"/>
        <pt x="196" y="356" on="0"/>
        <pt x="178" y="354" on="0"/>
        <pt x="159" y="352" on="0"/>
        <pt x="143" y="348" on="0"/>
        <pt x="139" y="347" on="1"/>
      </contour>
    </TTGlyph>
    <TTGlyph name="afii10019" xMin="64" yMin="-8" xMax="428" yMax="708">
      <component glyphName="B" x="0" y="0" flags="0x204"/>
    </TTGlyph>
    <TTGlyph name="afii10020" xMin="64" yMin="0" xMax="370" yMax="700">
      <contour>
        <pt x="370" y="631" on="1"/>
        <pt x="139" y="631" on="1"/>
        <pt x="139" y="0" on="1"/>
        <pt x="64" y="0" on="1"/>
        <pt x="64" y="700" on="1"/>
        <pt x="370" y="700" on="1"/>
      </contour>
    </TTGlyph>
    <TTGlyph name="afii10021" xMin="3" yMin="-129" xMax="521" yMax="700">
      <contour>
        <pt x="521" y="-129" on="1"/>
        <pt x="468" y="-129" on="1"/>
        <pt x="456" y="0" on="1"/>
        <pt x="68" y="0" on="1"/>
        <pt x="56" y="-129" on="1"/>
        <pt x="3" y="-129" on="1"/>
        <pt x="3" y="69" on="1"/>
        <pt x="61" y="69" on="1"/>
        <pt x="67" y="80" on="0"/>
        <pt x="94" y="162" on="0"/>
        <pt x="121" y="315" on="0"/>
        <pt x="141" y="544" on="0"/>
        <pt x="140" y="700" on="1"/>
        <pt x="448" y="700" on="1"/>
        <pt x="448" y="69" on="1"/>
        <pt x="521" y="69" on="1"/>
      </contour>
      <contour>
        <pt x="373" y="69" on="1"/>
        <pt x="373" y="631" on="1"/>
        <pt x="212" y="631" on="1"/>
        <pt x="207" y="410" on="0"/>
        <pt x="165" y="136" on="0"/>
        <pt x="140" y="69" on="1"/>
      </contour>
    </TTGlyph>
    <TTGlyph name="afii10022" xMin="64" yMin="0" xMax="380" yMax="700">
      <component glyphName="E" x="0" y="0" flags="0x204"/>
    </TTGlyph>
    <TTGlyph name="afii10023" xMin="64" yMin="0" xMax="380" yMax="841">
      <component glyphName="E" x="0" y="0" flags="0x204"/>
      <component glyphName="uniF6CB" x="30" y="0" flags="0x4"/>
    </TTGlyph>
    <TTGlyph name="afii10024" xMin="-2" yMin="0" xMax="656" yMax="700">
      <contour>
        <pt x="287" y="700" on="1"/>
        <pt x="359" y="700" on="1"/>
        <pt x="359" y="374" on="1"/>
        <pt x="393" y="388" on="1"/>
        <pt x="547" y="700" on="1"/>
        <pt x="631" y="700" on="1"/>
        <pt x="474" y="396" on="1"/>
        <pt x="441" y="364" on="1"/>
        <pt x="482" y="324" on="1"/>
        <pt x="656" y="0" on="1"/>
        <pt x="563" y="0" on="1"/>
        <pt x="395" y="325" on="1"/>
        <pt x="359" y="325" on="1"/>
        <pt x="359" y="0" on="1"/>
        <pt x="287" y="0" on="1"/>
        <pt x="287" y="337" on="1"/>
        <pt x="254" y="323" on="1"/>
        <pt x="86" y="0" on="1"/>
        <pt x="-2" y="0" on="1"/>
        <pt x="170" y="314" on="1"/>
        <pt x="209" y="351" on="1"/>
        <pt x="172" y="386" on="1"/>
        <pt x="10" y="700" on="1"/>
        <pt x="98" y="700" on="1"/>
        <pt x="252" y="386" on="1"/>
        <pt x="287" y="386" on="1"/>
      </contour>
    </TTGlyph>
    <TTGlyph name="afii10025" xMin="31" yMin="-12" xMax="392" yMax="712">
      <contour>
        <pt x="109" y="333" on="1"/>
        <pt x="109" y="398" on="1"/>
        <pt x="127" y="398" on="1"/>
        <pt x="142" y="398" on="0"/>
        <pt x="186" y="400" on="0"/>
        <pt x="199" y="403" on="1"/>
        <pt x="239" y="413" on="0"/>
        <pt x="296" y="476" on="0"/>
        <pt x="296" y="524" on="1"/>
        <pt x="296" y="590" on="0"/>
        <pt x="232" y="643" on="0"/>
        <pt x="183" y="643" on="1"/>
        <pt x="144" y="643" on="0"/>
        <pt x="84" y="629" on="0"/>
        <pt x="65" y="618" on="1"/>
        <pt x="45" y="679" on="1"/>
        <pt x="63" y="690" on="0"/>
        <pt x="146" y="712" on="0"/>
        <pt x="198" y="712" on="1"/>
        <pt x="232" y="712" on="0"/>
        <pt x="296" y="696" on="0"/>
        <pt x="345" y="657" on="0"/>
        <pt x="375" y="590" on="0"/>
        <pt x="375" y="540" on="1"/>
        <pt x="375" y="489" on="0"/>
        <pt x="324" y="400" on="0"/>
        <pt x="271" y="378" on="1"/>
        <pt x="271" y="374" on="1"/>
        <pt x="327" y="363" on="0"/>
        <pt x="392" y="278" on="0"/>
        <pt x="392" y="206" on="1"/>
        <pt x="392" y="148" on="0"/>
        <pt x="357" y="66" on="0"/>
        <pt x="298" y="13" on="0"/>
        <pt x="220" y="-12" on="0"/>
        <pt x="178" y="-12" on="1"/>
        <pt x="125" y="-12" on="0"/>
        <pt x="54" y="2" on="0"/>
        <pt x="31" y="14" on="1"/>
        <pt x="51" y="82" on="1"/>
        <pt x="71" y="71" on="0"/>
        <pt x="135" y="57" on="0"/>
        <pt x="181" y="57" on="1"/>
        <pt x="208" y="57" on="0"/>
        <pt x="256" y="76" on="0"/>
        <pt x="292" y="112" on="0"/>
        <pt x="313" y="167" on="0"/>
        <pt x="313" y="203" on="1"/>
        <pt x="313" y="268" on="0"/>
        <pt x="244" y="327" on="0"/>
        <pt x="186" y="332" on="1"/>
        <pt x="176" y="333" on="0"/>
        <pt x="161" y="333" on="0"/>
        <pt x="150" y="333" on="1"/>
      </contour>
    </TTGlyph>
    <TTGlyph name="afii10026" xMin="64" yMin="0" xMax="480" yMax="700">
      <contour>
        <pt x="405" y="458" on="1"/>
        <pt x="411" y="550" on="1"/>
        <pt x="408" y="550" on="1"/>
        <pt x="373" y="456" on="1"/>
        <pt x="114" y="0" on="1"/>
        <pt x="64" y="0" on="1"/>
        <pt x="64" y="700" on="1"/>
        <pt x="139" y="700" on="1"/>
        <pt x="139" y="235" on="1"/>
        <pt x="132" y="145" on="1"/>
        <pt x="136" y="145" on="1"/>
        <pt x="171" y="239" on="1"/>
        <pt x="431" y="700" on="1"/>
        <pt x="480" y="700" on="1"/>
        <pt x="480" y="0" on="1"/>
        <pt x="405" y="0" on="1"/>
      </contour>
    </TTGlyph>
    <TTGlyph name="afii10027" xMin="64" yMin="0" xMax="480" yMax="870">
      <component glyphName="afii10026" x="0" y="0" flags="0x204"/>
      <component glyphName="uniF6D1" x="77" y="0" flags="0x4"/>
    </TTGlyph>
    <TTGlyph name="afii10028" xMin="64" yMin="0" xMax="468" yMax="700">
      <component glyphName="K" x="0" y="0" flags="0x204"/>
    </TTGlyph>
    <TTGlyph name="afii10029" xMin="-4" yMin="-5" xMax="438" yMax="700">
      <contour>
        <pt x="363" y="631" on="1"/>
        <pt x="205" y="631" on="1"/>
        <pt x="197" y="430" on="0"/>
        <pt x="171" y="160" on="0"/>
        <pt x="144" y="87" on="1"/>
        <pt x="127" y="39" on="0"/>
        <pt x="77" y="-5" on="0"/>
        <pt x="45" y="-5" on="1"/>
        <pt x="16" y="-5" on="0"/>
        <pt x="-4" y="5" on="1"/>
        <pt x="7" y="74" on="1"/>
        <pt x="27" y="68" on="0"/>
        <pt x="61" y="84" on="0"/>
        <pt x="76" y="122" on="1"/>
        <pt x="87" y="149" on="0"/>
        <pt x="106" y="240" on="0"/>
        <pt x="121" y="380" on="0"/>
        <pt x="131" y="572" on="0"/>
        <pt x="133" y="700" on="1"/>
        <pt x="438" y="700" on="1"/>
        <pt x="438" y="0" on="1"/>
        <pt x="363" y="0" on="1"/>
      </contour>
    </TTGlyph>
    <TTGlyph name="afii10030" xMin="64" yMin="0" xMax="573" yMax="700">
      <component glyphName="M" x="0" y="0" flags="0x204"/>
    </TTGlyph>
    <TTGlyph name="afii10031" xMin="64" yMin="0" xMax="472" yMax="700">
      <component glyphName="H" x="0" y="0" flags="0x204"/>
    </TTGlyph>
    <TTGlyph name="afii10032" xMin="43" yMin="-12" xMax="506" yMax="712">
      <component glyphName="O" x="0" y="0" flags="0x204"/>
    </TTGlyph>
    <TTGlyph name="afii10033" xMin="64" yMin="0" xMax="462" yMax="700">
      <contour>
        <pt x="387" y="631" on="1"/>
        <pt x="139" y="631" on="1"/>
        <pt x="139" y="0" on="1"/>
        <pt x="64" y="0" on="1"/>
        <pt x="64" y="700" on="1"/>
        <pt x="462" y="700" on="1"/>
        <pt x="462" y="0" on="1"/>
        <pt x="387" y="0" on="1"/>
      </contour>
    </TTGlyph>
    <TTGlyph name="afii10034" xMin="64" yMin="0" xMax="423" yMax="708">
      <component glyphName="P" x="0" y="0" flags="0x204"/>
    </TTGlyph>
    <TTGlyph name="afii10035" xMin="43" yMin="-12" xMax="430" yMax="712">
      <component glyphName="C" x="0" y="0" flags="0x204"/>
    </TTGlyph>
    <TTGlyph name="afii10036" xMin="14" yMin="0" xMax="433" yMax="700">
      <component glyphName="T" x="0" y="0" flags="0x204"/>
    </TTGlyph>
    <TTGlyph name="afii10037" xMin="3" yMin="-5" xMax="449" yMax="700">
      <contour>
        <pt x="228" y="341" on="1"/>
        <pt x="247" y="252" on="1"/>
        <pt x="252" y="252" on="1"/>
        <pt x="268" y="344" on="1"/>
        <pt x="372" y="700" on="1"/>
        <pt x="449" y="700" on="1"/>
        <pt x="306" y="245" on="1"/>
        <pt x="284" y="175" on="0"/>
        <pt x="251" y="79" on="0"/>
        <pt x="218" y="21" on="0"/>
        <pt x="178" y="-5" on="0"/>
        <pt x="149" y="-5" on="1"/>
        <pt x="123" y="-5" on="0"/>
        <pt x="89" y="5" on="0"/>
        <pt x="74" y="16" on="1"/>
        <pt x="96" y="80" on="1"/>
        <pt x="112" y="69" on="0"/>
        <pt x="138" y="64" on="0"/>
        <pt x="149" y="64" on="1"/>
        <pt x="171" y="64" on="0"/>
        <pt x="201" y="125" on="0"/>
        <pt x="212" y="181" on="1"/>
        <pt x="3" y="700" on="1"/>
        <pt x="91" y="700" on="1"/>
      </contour>
    </TTGlyph>
    <TTGlyph name="afii10038" xMin="31" yMin="-20" xMax="602" yMax="720">
      <contour>
        <pt x="279" y="78" on="1"/>
        <pt x="265" y="75" on="0"/>
        <pt x="227" y="73" on="0"/>
        <pt x="210" y="73" on="1"/>
        <pt x="171" y="73" on="0"/>
        <pt x="106" y="103" on="0"/>
        <pt x="58" y="170" on="0"/>
        <pt x="31" y="275" on="0"/>
        <pt x="31" y="350" on="1"/>
        <pt x="31" y="491" on="0"/>
        <pt x="136" y="638" on="0"/>
        <pt x="226" y="638" on="1"/>
        <pt x="237" y="638" on="0"/>
        <pt x="270" y="636" on="0"/>
        <pt x="279" y="634" on="1"/>
        <pt x="279" y="720" on="1"/>
        <pt x="354" y="720" on="1"/>
        <pt x="354" y="631" on="1"/>
        <pt x="368" y="636" on="0"/>
        <pt x="410" y="638" on="0"/>
        <pt x="423" y="638" on="1"/>
        <pt x="462" y="638" on="0"/>
        <pt x="528" y="605" on="0"/>
        <pt x="576" y="537" on="0"/>
        <pt x="602" y="432" on="0"/>
        <pt x="602" y="360" on="1"/>
        <pt x="602" y="286" on="0"/>
        <pt x="572" y="178" on="0"/>
        <pt x="520" y="108" on="0"/>
        <pt x="449" y="73" on="0"/>
        <pt x="409" y="73" on="1"/>
        <pt x="400" y="73" on="0"/>
        <pt x="364" y="76" on="0"/>
        <pt x="354" y="80" on="1"/>
        <pt x="354" y="-20" on="1"/>
        <pt x="279" y="-20" on="1"/>
      </contour>
      <contour>
        <pt x="410" y="573" on="1"/>
        <pt x="399" y="573" on="0"/>
        <pt x="363" y="571" on="0"/>
        <pt x="352" y="566" on="1"/>
        <pt x="352" y="141" on="1"/>
        <pt x="360" y="139" on="0"/>
        <pt x="388" y="138" on="0"/>
        <pt x="399" y="138" on="1"/>
        <pt x="455" y="138" on="0"/>
        <pt x="525" y="247" on="0"/>
        <pt x="525" y="360" on="1"/>
        <pt x="525" y="408" on="0"/>
        <pt x="510" y="486" on="0"/>
        <pt x="481" y="542" on="0"/>
        <pt x="438" y="573" on="0"/>
      </contour>
      <contour>
        <pt x="226" y="138" on="1"/>
        <pt x="235" y="138" on="0"/>
        <pt x="270" y="139" on="0"/>
        <pt x="281" y="144" on="1"/>
        <pt x="281" y="569" on="1"/>
        <pt x="271" y="571" on="0"/>
        <pt x="243" y="573" on="0"/>
        <pt x="232" y="573" on="1"/>
        <pt x="177" y="573" on="0"/>
        <pt x="108" y="463" on="0"/>
        <pt x="108" y="350" on="1"/>
        <pt x="108" y="251" on="0"/>
        <pt x="169" y="138" on="0"/>
      </contour>
    </TTGlyph>
    <TTGlyph name="afii10039" xMin="19" yMin="0" xMax="480" yMax="700">
      <component glyphName="X" x="0" y="0" flags="0x204"/>
    </TTGlyph>
    <TTGlyph name="afii10040" xMin="64" yMin="-129" xMax="530" yMax="700">
      <contour>
        <pt x="530" y="-129" on="1"/>
        <pt x="478" y="-129" on="1"/>
        <pt x="465" y="0" on="1"/>
        <pt x="64" y="0" on="1"/>
        <pt x="64" y="700" on="1"/>
        <pt x="139" y="700" on="1"/>
        <pt x="139" y="69" on="1"/>
        <pt x="381" y="69" on="1"/>
        <pt x="381" y="700" on="1"/>
        <pt x="456" y="700" on="1"/>
        <pt x="456" y="69" on="1"/>
        <pt x="530" y="69" on="1"/>
      </contour>
    </TTGlyph>
    <TTGlyph name="afii10041" xMin="55" yMin="0" xMax="423" yMax="700">
      <contour>
        <pt x="130" y="700" on="1"/>
        <pt x="130" y="456" on="1"/>
        <pt x="130" y="383" on="0"/>
        <pt x="180" y="326" on="0"/>
        <pt x="228" y="326" on="1"/>
        <pt x="263" y="326" on="0"/>
        <pt x="328" y="352" on="0"/>
        <pt x="348" y="373" on="1"/>
        <pt x="348" y="700" on="1"/>
        <pt x="423" y="700" on="1"/>
        <pt x="423" y="0" on="1"/>
        <pt x="348" y="0" on="1"/>
        <pt x="348" y="300" on="1"/>
        <pt x="328" y="285" on="0"/>
        <pt x="256" y="257" on="0"/>
        <pt x="212" y="257" on="1"/>
        <pt x="180" y="257" on="0"/>
        <pt x="123" y="273" on="0"/>
        <pt x="80" y="314" on="0"/>
        <pt x="55" y="384" on="0"/>
        <pt x="55" y="439" on="1"/>
        <pt x="55" y="700" on="1"/>
      </contour>
    </TTGlyph>
    <TTGlyph name="afii10042" xMin="64" yMin="0" xMax="635" yMax="700">
      <contour>
        <pt x="64" y="0" on="1"/>
        <pt x="64" y="700" on="1"/>
        <pt x="139" y="700" on="1"/>
        <pt x="139" y="69" on="1"/>
        <pt x="312" y="69" on="1"/>
        <pt x="312" y="700" on="1"/>
        <pt x="387" y="700" on="1"/>
        <pt x="387" y="69" on="1"/>
        <pt x="560" y="69" on="1"/>
        <pt x="560" y="700" on="1"/>
        <pt x="635" y="700" on="1"/>
        <pt x="635" y="0" on="1"/>
      </contour>
    </TTGlyph>
    <TTGlyph name="afii10043" xMin="64" yMin="-129" xMax="710" yMax="700">
      <contour>
        <pt x="64" y="0" on="1"/>
        <pt x="64" y="700" on="1"/>
        <pt x="139" y="700" on="1"/>
        <pt x="139" y="69" on="1"/>
        <pt x="312" y="69" on="1"/>
        <pt x="312" y="700" on="1"/>
        <pt x="387" y="700" on="1"/>
        <pt x="387" y="69" on="1"/>
        <pt x="560" y="69" on="1"/>
        <pt x="560" y="700" on="1"/>
        <pt x="635" y="700" on="1"/>
        <pt x="635" y="69" on="1"/>
        <pt x="710" y="69" on="1"/>
        <pt x="710" y="-129" on="1"/>
        <pt x="657" y="-129" on="1"/>
        <pt x="645" y="0" on="1"/>
      </contour>
    </TTGlyph>
    <TTGlyph name="afii10044" xMin="-1" yMin="-8" xMax="487" yMax="700">
      <contour>
        <pt x="128" y="631" on="1"/>
        <pt x="-1" y="631" on="1"/>
        <pt x="-1" y="700" on="1"/>
        <pt x="203" y="700" on="1"/>
        <pt x="203" y="428" on="1"/>
        <pt x="209" y="429" on="0"/>
        <pt x="229" y="433" on="0"/>
        <pt x="252" y="435" on="0"/>
        <pt x="276" y="437" on="0"/>
        <pt x="285" y="437" on="1"/>
        <pt x="324" y="437" on="0"/>
        <pt x="397" y="418" on="0"/>
        <pt x="453" y="370" on="0"/>
        <pt x="487" y="289" on="0"/>
        <pt x="487" y="226" on="1"/>
        <pt x="487" y="164" on="0"/>
        <pt x="455" y="76" on="0"/>
        <pt x="397" y="19" on="0"/>
        <pt x="315" y="-8" on="0"/>
        <pt x="265" y="-8" on="1"/>
        <pt x="254" y="-8" on="0"/>
        <pt x="220" y="-7" on="0"/>
        <pt x="183" y="-4" on="0"/>
        <pt x="144" y="1" on="0"/>
        <pt x="128" y="6" on="1"/>
      </contour>
      <contour>
        <pt x="273" y="61" on="1"/>
        <pt x="333" y="61" on="0"/>
        <pt x="408" y="137" on="0"/>
        <pt x="408" y="220" on="1"/>
        <pt x="408" y="264" on="0"/>
        <pt x="386" y="322" on="0"/>
        <pt x="349" y="355" on="0"/>
        <pt x="299" y="368" on="0"/>
        <pt x="272" y="368" on="1"/>
        <pt x="265" y="368" on="0"/>
        <pt x="244" y="366" on="0"/>
        <pt x="224" y="364" on="0"/>
        <pt x="207" y="360" on="0"/>
        <pt x="203" y="359" on="1"/>
        <pt x="203" y="67" on="1"/>
        <pt x="214" y="64" on="0"/>
        <pt x="254" y="61" on="0"/>
      </contour>
    </TTGlyph>
    <TTGlyph name="afii10045" xMin="64" yMin="-8" xMax="558" yMax="700">
      <contour>
        <pt x="483" y="700" on="1"/>
        <pt x="558" y="700" on="1"/>
        <pt x="558" y="0" on="1"/>
        <pt x="483" y="0" on="1"/>
      </contour>
      <contour>
        <pt x="64" y="700" on="1"/>
        <pt x="139" y="700" on="1"/>
        <pt x="139" y="428" on="1"/>
        <pt x="148" y="430" on="0"/>
        <pt x="190" y="437" on="0"/>
        <pt x="210" y="437" on="1"/>
        <pt x="249" y="437" on="0"/>
        <pt x="320" y="419" on="0"/>
        <pt x="374" y="372" on="0"/>
        <pt x="406" y="290" on="0"/>
        <pt x="406" y="227" on="1"/>
        <pt x="406" y="105" on="0"/>
        <pt x="293" y="-8" on="0"/>
        <pt x="192" y="-8" on="1"/>
        <pt x="169" y="-8" on="0"/>
        <pt x="96" y="-3" on="0"/>
        <pt x="64" y="6" on="1"/>
      </contour>
      <contour>
        <pt x="199" y="61" on="1"/>
        <pt x="259" y="61" on="0"/>
        <pt x="327" y="139" on="0"/>
        <pt x="327" y="220" on="1"/>
        <pt x="327" y="264" on="0"/>
        <pt x="307" y="321" on="0"/>
        <pt x="272" y="355" on="0"/>
        <pt x="224" y="368" on="0"/>
        <pt x="196" y="368" on="1"/>
        <pt x="182" y="368" on="0"/>
        <pt x="147" y="362" on="0"/>
        <pt x="139" y="359" on="1"/>
        <pt x="139" y="68" on="1"/>
        <pt x="159" y="61" on="0"/>
      </contour>
    </TTGlyph>
    <TTGlyph name="afii10046" xMin="64" yMin="-8" xMax="423" yMax="700">
      <contour>
        <pt x="64" y="700" on="1"/>
        <pt x="139" y="700" on="1"/>
        <pt x="139" y="428" on="1"/>
        <pt x="151" y="431" on="0"/>
        <pt x="202" y="437" on="0"/>
        <pt x="221" y="437" on="1"/>
        <pt x="261" y="437" on="0"/>
        <pt x="334" y="418" on="0"/>
        <pt x="390" y="370" on="0"/>
        <pt x="423" y="289" on="0"/>
        <pt x="423" y="227" on="1"/>
        <pt x="423" y="166" on="0"/>
        <pt x="392" y="78" on="0"/>
        <pt x="334" y="20" on="0"/>
        <pt x="252" y="-8" on="0"/>
        <pt x="201" y="-8" on="1"/>
        <pt x="190" y="-8" on="0"/>
        <pt x="156" y="-7" on="0"/>
        <pt x="119" y="-4" on="0"/>
        <pt x="80" y="1" on="0"/>
        <pt x="64" y="6" on="1"/>
      </contour>
      <contour>
        <pt x="209" y="61" on="1"/>
        <pt x="270" y="61" on="0"/>
        <pt x="344" y="139" on="0"/>
        <pt x="344" y="220" on="1"/>
        <pt x="344" y="263" on="0"/>
        <pt x="323" y="320" on="0"/>
        <pt x="286" y="354" on="0"/>
        <pt x="236" y="368" on="0"/>
        <pt x="208" y="368" on="1"/>
        <pt x="201" y="368" on="0"/>
        <pt x="181" y="366" on="0"/>
        <pt x="160" y="364" on="0"/>
        <pt x="143" y="360" on="0"/>
        <pt x="139" y="359" on="1"/>
        <pt x="139" y="67" on="1"/>
        <pt x="151" y="64" on="0"/>
        <pt x="190" y="61" on="0"/>
      </contour>
    </TTGlyph>
    <TTGlyph name="afii10047" xMin="30" yMin="-12" xMax="422" yMax="712">
      <contour>
        <pt x="118" y="390" on="1"/>
        <pt x="347" y="390" on="1"/>
        <pt x="342" y="517" on="0"/>
        <pt x="245" y="643" on="0"/>
        <pt x="169" y="643" on="1"/>
        <pt x="131" y="643" on="0"/>
        <pt x="73" y="625" on="0"/>
        <pt x="52" y="612" on="1"/>
        <pt x="30" y="674" on="1"/>
        <pt x="58" y="692" on="0"/>
        <pt x="135" y="712" on="0"/>
        <pt x="177" y="712" on="1"/>
        <pt x="232" y="712" on="0"/>
        <pt x="322" y="673" on="0"/>
        <pt x="386" y="587" on="0"/>
        <pt x="422" y="449" on="0"/>
        <pt x="422" y="351" on="1"/>
        <pt x="422" y="252" on="0"/>
        <pt x="382" y="113" on="0"/>
        <pt x="312" y="27" on="0"/>
        <pt x="218" y="-12" on="0"/>
        <pt x="163" y="-12" on="1"/>
        <pt x="122" y="-12" on="0"/>
        <pt x="55" y="2" on="0"/>
        <pt x="32" y="13" on="1"/>
        <pt x="53" y="81" on="1"/>
        <pt x="72" y="71" on="0"/>
        <pt x="134" y="57" on="0"/>
        <pt x="167" y="57" on="1"/>
        <pt x="201" y="57" on="0"/>
        <pt x="264" y="86" on="0"/>
        <pt x="314" y="149" on="0"/>
        <pt x="345" y="250" on="0"/>
        <pt x="347" y="323" on="1"/>
        <pt x="118" y="323" on="1"/>
      </contour>
    </TTGlyph>
    <TTGlyph name="afii10048" xMin="64" yMin="-12" xMax="676" yMax="712">
      <contour>
        <pt x="139" y="392" on="1"/>
        <pt x="234" y="392" on="1"/>
        <pt x="239" y="547" on="0"/>
        <pt x="347" y="712" on="0"/>
        <pt x="456" y="712" on="1"/>
        <pt x="517" y="712" on="0"/>
        <pt x="602" y="661" on="0"/>
        <pt x="653" y="567" on="0"/>
        <pt x="676" y="433" on="0"/>
        <pt x="676" y="350" on="1"/>
        <pt x="676" y="173" on="0"/>
        <pt x="571" y="-12" on="0"/>
        <pt x="455" y="-12" on="1"/>
        <pt x="396" y="-12" on="0"/>
        <pt x="314" y="35" on="0"/>
        <pt x="260" y="123" on="0"/>
        <pt x="234" y="246" on="0"/>
        <pt x="233" y="323" on="1"/>
        <pt x="139" y="323" on="1"/>
        <pt x="139" y="0" on="1"/>
        <pt x="64" y="0" on="1"/>
        <pt x="64" y="700" on="1"/>
        <pt x="139" y="700" on="1"/>
      </contour>
      <contour>
        <pt x="310" y="350" on="1"/>
        <pt x="310" y="291" on="0"/>
        <pt x="325" y="185" on="0"/>
        <pt x="359" y="104" on="0"/>
        <pt x="415" y="57" on="0"/>
        <pt x="456" y="57" on="1"/>
        <pt x="531" y="57" on="0"/>
        <pt x="597" y="200" on="0"/>
        <pt x="597" y="350" on="1"/>
        <pt x="597" y="408" on="0"/>
        <pt x="584" y="515" on="0"/>
        <pt x="552" y="595" on="0"/>
        <pt x="498" y="643" on="0"/>
        <pt x="456" y="643" on="1"/>
        <pt x="381" y="643" on="0"/>
        <pt x="310" y="499" on="0"/>
      </contour>
    </TTGlyph>
    <TTGlyph name="afii10049" xMin="19" yMin="0" xMax="397" yMax="708">
      <contour>
        <pt x="397" y="0" on="1"/>
        <pt x="322" y="0" on="1"/>
        <pt x="322" y="307" on="1"/>
        <pt x="242" y="286" on="1"/>
        <pt x="106" y="0" on="1"/>
        <pt x="19" y="0" on="1"/>
        <pt x="142" y="253" on="1"/>
        <pt x="190" y="295" on="1"/>
        <pt x="132" y="310" on="0"/>
        <pt x="59" y="409" on="0"/>
        <pt x="59" y="496" on="1"/>
        <pt x="59" y="558" on="0"/>
        <pt x="93" y="640" on="0"/>
        <pt x="151" y="689" on="0"/>
        <pt x="229" y="708" on="0"/>
        <pt x="273" y="708" on="1"/>
        <pt x="300" y="708" on="0"/>
        <pt x="367" y="702" on="0"/>
        <pt x="397" y="693" on="1"/>
      </contour>
      <contour>
        <pt x="267" y="639" on="1"/>
        <pt x="241" y="639" on="0"/>
        <pt x="195" y="626" on="0"/>
        <pt x="159" y="593" on="0"/>
        <pt x="138" y="538" on="0"/>
        <pt x="138" y="496" on="1"/>
        <pt x="138" y="419" on="0"/>
        <pt x="212" y="351" on="0"/>
        <pt x="268" y="351" on="1"/>
        <pt x="322" y="351" on="1"/>
        <pt x="322" y="633" on="1"/>
        <pt x="311" y="637" on="0"/>
        <pt x="285" y="639" on="0"/>
      </contour>
    </TTGlyph>
    <TTGlyph name="afii10050" xMin="64" yMin="0" xMax="370" yMax="834">
      <contour>
        <pt x="306" y="700" on="1"/>
        <pt x="320" y="834" on="1"/>
        <pt x="370" y="834" on="1"/>
        <pt x="370" y="631" on="1"/>
        <pt x="139" y="631" on="1"/>
        <pt x="139" y="0" on="1"/>
        <pt x="64" y="0" on="1"/>
        <pt x="64" y="700" on="1"/>
      </contour>
    </TTGlyph>
    <TTGlyph name="afii10051" xMin="14" yMin="-8" xMax="546" yMax="700">
      <contour>
        <pt x="262" y="0" on="1"/>
        <pt x="187" y="0" on="1"/>
        <pt x="187" y="631" on="1"/>
        <pt x="14" y="631" on="1"/>
        <pt x="14" y="700" on="1"/>
        <pt x="435" y="700" on="1"/>
        <pt x="435" y="631" on="1"/>
        <pt x="262" y="631" on="1"/>
        <pt x="262" y="415" on="1"/>
        <pt x="272" y="419" on="0"/>
        <pt x="330" y="437" on="0"/>
        <pt x="375" y="437" on="1"/>
        <pt x="408" y="437" on="0"/>
        <pt x="469" y="418" on="0"/>
        <pt x="517" y="370" on="0"/>
        <pt x="546" y="289" on="0"/>
        <pt x="546" y="226" on="1"/>
        <pt x="546" y="106" on="0"/>
        <pt x="453" y="-8" on="0"/>
        <pt x="358" y="-8" on="1"/>
        <pt x="332" y="-8" on="0"/>
        <pt x="307" y="-7" on="0"/>
        <pt x="301" y="-5" on="1"/>
        <pt x="301" y="64" on="1"/>
        <pt x="312" y="62" on="0"/>
        <pt x="336" y="61" on="0"/>
        <pt x="358" y="61" on="1"/>
        <pt x="467" y="61" on="0"/>
        <pt x="467" y="219" on="1"/>
        <pt x="467" y="262" on="0"/>
        <pt x="450" y="320" on="0"/>
        <pt x="418" y="354" on="0"/>
        <pt x="375" y="368" on="0"/>
        <pt x="350" y="368" on="1"/>
        <pt x="336" y="368" on="0"/>
        <pt x="308" y="363" on="0"/>
        <pt x="284" y="355" on="0"/>
        <pt x="266" y="348" on="0"/>
        <pt x="262" y="346" on="1"/>
      </contour>
    </TTGlyph>
    <TTGlyph name="afii10052" xMin="64" yMin="0" xMax="370" yMax="870">
      <component glyphName="afii10020" x="0" y="0" flags="0x204"/>
      <component glyphName="uniF6C9" x="97" y="0" flags="0x4"/>
    </TTGlyph>
    <TTGlyph name="afii10053" xMin="43" yMin="-12" xMax="432" yMax="712">
      <contour>
        <pt x="432" y="27" on="1"/>
        <pt x="407" y="6" on="0"/>
        <pt x="329" y="-12" on="0"/>
        <pt x="287" y="-12" on="1"/>
        <pt x="234" y="-12" on="0"/>
        <pt x="144" y="28" on="0"/>
        <pt x="79" y="115" on="0"/>
        <pt x="43" y="253" on="0"/>
        <pt x="43" y="350" on="1"/>
        <pt x="43" y="450" on="0"/>
        <pt x="84" y="588" on="0"/>
        <pt x="152" y="674" on="0"/>
        <pt x="241" y="712" on="0"/>
        <pt x="288" y="712" on="1"/>
        <pt x="336" y="712" on="0"/>
        <pt x="402" y="698" on="0"/>
        <pt x="425" y="688" on="1"/>
        <pt x="406" y="620" on="1"/>
        <pt x="387" y="631" on="0"/>
        <pt x="330" y="643" on="0"/>
        <pt x="295" y="643" on="1"/>
        <pt x="263" y="643" on="0"/>
        <pt x="204" y="617" on="0"/>
        <pt x="158" y="558" on="0"/>
        <pt x="127" y="464" on="0"/>
        <pt x="123" y="396" on="1"/>
        <pt x="365" y="396" on="1"/>
        <pt x="365" y="327" on="1"/>
        <pt x="122" y="327" on="1"/>
        <pt x="127" y="192" on="0"/>
        <pt x="227" y="57" on="0"/>
        <pt x="307" y="57" on="1"/>
        <pt x="342" y="57" on="0"/>
        <pt x="396" y="76" on="0"/>
        <pt x="414" y="89" on="1"/>
      </contour>
    </TTGlyph>
    <TTGlyph name="afii10054" xMin="33" yMin="-12" xMax="392" yMax="712">
      <component glyphName="S" x="0" y="0" flags="0x204"/>
    </TTGlyph>
    <TTGlyph name="afii10055" xMin="79" yMin="0" xMax="154" yMax="700">
      <component glyphName="I" x="0" y="0" flags="0x204"/>
    </TTGlyph>
    <TTGlyph name="afii10055.alt" xMin="62" yMin="0" xMax="171" yMax="849">
      <component glyphName="I" x="0" y="0" flags="0x204"/>
      <component glyphName="uniF40B" x="2" y="0" flags="0x4"/>
    </TTGlyph>
    <TTGlyph name="afii10056" xMin="19" yMin="0" xMax="217" yMax="841">
      <contour>
        <pt x="19" y="793" on="1"/>
        <pt x="19" y="815" on="0"/>
        <pt x="43" y="841" on="0"/>
        <pt x="63" y="841" on="1"/>
        <pt x="83" y="841" on="0"/>
        <pt x="106" y="815" on="0"/>
        <pt x="106" y="793" on="1"/>
        <pt x="106" y="771" on="0"/>
        <pt x="83" y="746" on="0"/>
        <pt x="63" y="746" on="1"/>
        <pt x="43" y="746" on="0"/>
        <pt x="19" y="771" on="0"/>
      </contour>
      <contour>
        <pt x="130" y="793" on="1"/>
        <pt x="130" y="815" on="0"/>
        <pt x="153" y="841" on="0"/>
        <pt x="173" y="841" on="1"/>
        <pt x="193" y="841" on="0"/>
        <pt x="217" y="815" on="0"/>
        <pt x="217" y="793" on="1"/>
        <pt x="217" y="771" on="0"/>
        <pt x="193" y="746" on="0"/>
        <pt x="173" y="746" on="1"/>
        <pt x="153" y="746" on="0"/>
        <pt x="130" y="771" on="0"/>
      </contour>
      <contour>
        <pt x="80" y="700" on="1"/>
        <pt x="155" y="700" on="1"/>
        <pt x="155" y="0" on="1"/>
        <pt x="80" y="0" on="1"/>
      </contour>
    </TTGlyph>
    <TTGlyph name="afii10057" xMin="-26" yMin="-10" xMax="168" yMax="700">
      <component glyphName="J" x="0" y="0" flags="0x204"/>
    </TTGlyph>
    <TTGlyph name="afii10058" xMin="-4" yMin="-8" xMax="721" yMax="700">
      <contour>
        <pt x="363" y="631" on="1"/>
        <pt x="205" y="631" on="1"/>
        <pt x="197" y="430" on="0"/>
        <pt x="171" y="160" on="0"/>
        <pt x="144" y="87" on="1"/>
        <pt x="127" y="39" on="0"/>
        <pt x="77" y="-5" on="0"/>
        <pt x="45" y="-5" on="1"/>
        <pt x="16" y="-5" on="0"/>
        <pt x="-4" y="5" on="1"/>
        <pt x="7" y="73" on="1"/>
        <pt x="27" y="67" on="0"/>
        <pt x="61" y="84" on="0"/>
        <pt x="76" y="122" on="1"/>
        <pt x="87" y="149" on="0"/>
        <pt x="106" y="240" on="0"/>
        <pt x="121" y="380" on="0"/>
        <pt x="131" y="572" on="0"/>
        <pt x="133" y="700" on="1"/>
        <pt x="438" y="700" on="1"/>
        <pt x="438" y="428" on="1"/>
        <pt x="451" y="431" on="0"/>
        <pt x="500" y="437" on="0"/>
        <pt x="519" y="437" on="1"/>
        <pt x="559" y="437" on="0"/>
        <pt x="632" y="418" on="0"/>
        <pt x="688" y="370" on="0"/>
        <pt x="721" y="289" on="0"/>
        <pt x="721" y="227" on="1"/>
        <pt x="721" y="166" on="0"/>
        <pt x="690" y="78" on="0"/>
        <pt x="632" y="20" on="0"/>
        <pt x="550" y="-8" on="0"/>
        <pt x="499" y="-8" on="1"/>
        <pt x="488" y="-8" on="0"/>
        <pt x="455" y="-7" on="0"/>
        <pt x="418" y="-4" on="0"/>
        <pt x="379" y="1" on="0"/>
        <pt x="363" y="6" on="1"/>
      </contour>
      <contour>
        <pt x="438" y="66" on="1"/>
        <pt x="450" y="63" on="0"/>
        <pt x="488" y="61" on="0"/>
        <pt x="507" y="61" on="1"/>
        <pt x="568" y="61" on="0"/>
        <pt x="642" y="139" on="0"/>
        <pt x="642" y="220" on="1"/>
        <pt x="642" y="263" on="0"/>
        <pt x="621" y="320" on="0"/>
        <pt x="584" y="354" on="0"/>
        <pt x="534" y="368" on="0"/>
        <pt x="506" y="368" on="1"/>
        <pt x="499" y="368" on="0"/>
        <pt x="479" y="366" on="0"/>
        <pt x="460" y="364" on="0"/>
        <pt x="442" y="360" on="0"/>
        <pt x="438" y="359" on="1"/>
      </contour>
    </TTGlyph>
    <TTGlyph name="afii10059" xMin="64" yMin="-8" xMax="755" yMax="700">
      <contour>
        <pt x="397" y="338" on="1"/>
        <pt x="139" y="338" on="1"/>
        <pt x="139" y="0" on="1"/>
        <pt x="64" y="0" on="1"/>
        <pt x="64" y="700" on="1"/>
        <pt x="139" y="700" on="1"/>
        <pt x="139" y="407" on="1"/>
        <pt x="397" y="407" on="1"/>
        <pt x="397" y="700" on="1"/>
        <pt x="472" y="700" on="1"/>
        <pt x="472" y="407" on="1"/>
        <pt x="476" y="408" on="0"/>
        <pt x="495" y="411" on="0"/>
        <pt x="519" y="413" on="0"/>
        <pt x="544" y="415" on="0"/>
        <pt x="553" y="415" on="1"/>
        <pt x="592" y="415" on="0"/>
        <pt x="665" y="399" on="0"/>
        <pt x="721" y="355" on="0"/>
        <pt x="755" y="277" on="0"/>
        <pt x="755" y="216" on="1"/>
        <pt x="755" y="156" on="0"/>
        <pt x="723" y="71" on="0"/>
        <pt x="665" y="17" on="0"/>
        <pt x="584" y="-8" on="0"/>
        <pt x="534" y="-8" on="1"/>
        <pt x="523" y="-8" on="0"/>
        <pt x="489" y="-7" on="0"/>
        <pt x="452" y="-4" on="0"/>
        <pt x="413" y="2" on="0"/>
        <pt x="397" y="6" on="1"/>
      </contour>
      <contour>
        <pt x="472" y="67" on="1"/>
        <pt x="483" y="63" on="0"/>
        <pt x="523" y="61" on="0"/>
        <pt x="543" y="61" on="1"/>
        <pt x="603" y="61" on="0"/>
        <pt x="676" y="132" on="0"/>
        <pt x="676" y="210" on="1"/>
        <pt x="676" y="252" on="0"/>
        <pt x="655" y="305" on="0"/>
        <pt x="618" y="335" on="0"/>
        <pt x="569" y="346" on="0"/>
        <pt x="542" y="346" on="1"/>
        <pt x="535" y="346" on="0"/>
        <pt x="514" y="344" on="0"/>
        <pt x="493" y="342" on="0"/>
        <pt x="476" y="338" on="0"/>
        <pt x="472" y="337" on="1"/>
      </contour>
    </TTGlyph>
    <TTGlyph name="afii10060" xMin="14" yMin="0" xMax="554" yMax="700">
      <contour>
        <pt x="261" y="0" on="1"/>
        <pt x="186" y="0" on="1"/>
        <pt x="186" y="631" on="1"/>
        <pt x="14" y="631" on="1"/>
        <pt x="14" y="700" on="1"/>
        <pt x="433" y="700" on="1"/>
        <pt x="433" y="631" on="1"/>
        <pt x="261" y="631" on="1"/>
        <pt x="261" y="397" on="1"/>
        <pt x="282" y="412" on="0"/>
        <pt x="354" y="440" on="0"/>
        <pt x="400" y="440" on="1"/>
        <pt x="435" y="440" on="0"/>
        <pt x="492" y="421" on="0"/>
        <pt x="532" y="376" on="0"/>
        <pt x="554" y="301" on="0"/>
        <pt x="554" y="245" on="1"/>
        <pt x="554" y="0" on="1"/>
        <pt x="479" y="0" on="1"/>
        <pt x="479" y="233" on="1"/>
        <pt x="479" y="308" on="0"/>
        <pt x="433" y="371" on="0"/>
        <pt x="383" y="371" on="1"/>
        <pt x="347" y="371" on="0"/>
        <pt x="281" y="346" on="0"/>
        <pt x="261" y="326" on="1"/>
      </contour>
    </TTGlyph>
    <TTGlyph name="afii10061" xMin="64" yMin="0" xMax="468" yMax="870">
      <component glyphName="K" x="0" y="0" flags="0x204"/>
      <component glyphName="uniF6C9" x="123" y="0" flags="0x4"/>
    </TTGlyph>
    <TTGlyph name="afii10062" xMin="3" yMin="-5" xMax="449" yMax="870">
      <component glyphName="afii10037" x="0" y="0" flags="0x204"/>
      <component glyphName="uniF6D1" x="38" y="0" flags="0x4"/>
    </TTGlyph>
    <TTGlyph name="afii10065" xMin="29" yMin="-7" xMax="350" yMax="508">
      <component glyphName="a" x="0" y="0" flags="0x204"/>
    </TTGlyph>
    <TTGlyph name="afii10066" xMin="37" yMin="-12" xMax="395" yMax="726">
      <contour>
        <pt x="102" y="415" on="1"/>
        <pt x="128" y="462" on="0"/>
        <pt x="192" y="498" on="0"/>
        <pt x="240" y="498" on="1"/>
        <pt x="314" y="498" on="0"/>
        <pt x="395" y="382" on="0"/>
        <pt x="395" y="261" on="1"/>
        <pt x="395" y="122" on="0"/>
        <pt x="301" y="-12" on="0"/>
        <pt x="217" y="-12" on="1"/>
        <pt x="172" y="-12" on="0"/>
        <pt x="105" y="23" on="0"/>
        <pt x="60" y="98" on="0"/>
        <pt x="37" y="218" on="0"/>
        <pt x="37" y="303" on="1"/>
        <pt x="37" y="389" on="0"/>
        <pt x="52" y="511" on="0"/>
        <pt x="79" y="595" on="0"/>
        <pt x="117" y="645" on="0"/>
        <pt x="165" y="674" on="0"/>
        <pt x="222" y="686" on="0"/>
        <pt x="254" y="690" on="1"/>
        <pt x="296" y="695" on="0"/>
        <pt x="346" y="709" on="0"/>
        <pt x="361" y="726" on="1"/>
        <pt x="366" y="655" on="1"/>
        <pt x="358" y="647" on="0"/>
        <pt x="338" y="636" on="0"/>
        <pt x="310" y="628" on="0"/>
        <pt x="273" y="623" on="0"/>
        <pt x="248" y="621" on="1"/>
        <pt x="214" y="618" on="0"/>
        <pt x="163" y="598" on="0"/>
        <pt x="126" y="553" on="0"/>
        <pt x="104" y="475" on="0"/>
        <pt x="100" y="415" on="1"/>
      </contour>
      <contour>
        <pt x="112" y="249" on="1"/>
        <pt x="112" y="208" on="0"/>
        <pt x="124" y="137" on="0"/>
        <pt x="150" y="84" on="0"/>
        <pt x="189" y="53" on="0"/>
        <pt x="216" y="53" on="1"/>
        <pt x="268" y="53" on="0"/>
        <pt x="320" y="151" on="0"/>
        <pt x="320" y="254" on="1"/>
        <pt x="320" y="336" on="0"/>
        <pt x="276" y="433" on="0"/>
        <pt x="226" y="433" on="1"/>
        <pt x="167" y="433" on="0"/>
        <pt x="112" y="337" on="0"/>
      </contour>
    </TTGlyph>
    <TTGlyph name="afii10067" xMin="59" yMin="-7" xMax="366" yMax="507">
      <contour>
        <pt x="59" y="499" on="1"/>
        <pt x="87" y="501" on="0"/>
        <pt x="153" y="507" on="0"/>
        <pt x="199" y="507" on="1"/>
        <pt x="280" y="507" on="0"/>
        <pt x="350" y="446" on="0"/>
        <pt x="350" y="384" on="1"/>
        <pt x="350" y="349" on="0"/>
        <pt x="317" y="283" on="0"/>
        <pt x="278" y="266" on="1"/>
        <pt x="278" y="262" on="1"/>
        <pt x="326" y="251" on="0"/>
        <pt x="366" y="192" on="0"/>
        <pt x="366" y="141" on="1"/>
        <pt x="366" y="63" on="0"/>
        <pt x="274" y="-7" on="0"/>
        <pt x="183" y="-7" on="1"/>
        <pt x="149" y="-7" on="0"/>
        <pt x="87" y="-2" on="0"/>
        <pt x="59" y="1" on="1"/>
      </contour>
      <contour>
        <pt x="131" y="62" on="1"/>
        <pt x="146" y="60" on="0"/>
        <pt x="173" y="58" on="0"/>
        <pt x="193" y="58" on="1"/>
        <pt x="244" y="58" on="0"/>
        <pt x="291" y="100" on="0"/>
        <pt x="291" y="147" on="1"/>
        <pt x="291" y="183" on="0"/>
        <pt x="251" y="230" on="0"/>
        <pt x="198" y="230" on="1"/>
        <pt x="131" y="230" on="1"/>
      </contour>
      <contour>
        <pt x="205" y="287" on="1"/>
        <pt x="219" y="287" on="0"/>
        <pt x="245" y="300" on="0"/>
        <pt x="266" y="322" on="0"/>
        <pt x="278" y="351" on="0"/>
        <pt x="278" y="367" on="1"/>
        <pt x="278" y="406" on="0"/>
        <pt x="241" y="442" on="0"/>
        <pt x="196" y="442" on="1"/>
        <pt x="172" y="442" on="0"/>
        <pt x="144" y="440" on="0"/>
        <pt x="131" y="439" on="1"/>
        <pt x="131" y="287" on="1"/>
      </contour>
    </TTGlyph>
    <TTGlyph name="afii10068" xMin="59" yMin="0" xMax="297" yMax="500">
      <contour>
        <pt x="297" y="435" on="1"/>
        <pt x="131" y="435" on="1"/>
        <pt x="131" y="0" on="1"/>
        <pt x="59" y="0" on="1"/>
        <pt x="59" y="500" on="1"/>
        <pt x="297" y="500" on="1"/>
      </contour>
    </TTGlyph>
    <TTGlyph name="afii10069" xMin="3" yMin="-127" xMax="423" yMax="500">
      <contour>
        <pt x="423" y="-127" on="1"/>
        <pt x="373" y="-127" on="1"/>
        <pt x="361" y="0" on="1"/>
        <pt x="65" y="0" on="1"/>
        <pt x="52" y="-127" on="1"/>
        <pt x="3" y="-127" on="1"/>
        <pt x="3" y="65" on="1"/>
        <pt x="50" y="65" on="1"/>
        <pt x="56" y="76" on="0"/>
        <pt x="77" y="135" on="0"/>
        <pt x="97" y="240" on="0"/>
        <pt x="112" y="394" on="0"/>
        <pt x="113" y="500" on="1"/>
        <pt x="364" y="500" on="1"/>
        <pt x="364" y="65" on="1"/>
        <pt x="423" y="65" on="1"/>
      </contour>
      <contour>
        <pt x="292" y="65" on="1"/>
        <pt x="292" y="435" on="1"/>
        <pt x="179" y="435" on="1"/>
        <pt x="177" y="392" on="0"/>
        <pt x="170" y="290" on="0"/>
        <pt x="156" y="189" on="0"/>
        <pt x="136" y="97" on="0"/>
        <pt x="123" y="65" on="1"/>
      </contour>
    </TTGlyph>
    <TTGlyph name="afii10070" xMin="37" yMin="-12" xMax="371" yMax="512">
      <component glyphName="e" x="0" y="0" flags="0x204"/>
    </TTGlyph>
    <TTGlyph name="afii10071" xMin="37" yMin="-12" xMax="371" yMax="683">
      <component glyphName="e" x="0" y="0" flags="0x204"/>
      <component glyphName="dieresis" x="30" y="-19" flags="0x4"/>
    </TTGlyph>
    <TTGlyph name="afii10072" xMin="0" yMin="0" xMax="537" yMax="500">
      <contour>
        <pt x="193" y="221" on="1"/>
        <pt x="81" y="0" on="1"/>
        <pt x="0" y="0" on="1"/>
        <pt x="123" y="229" on="1"/>
        <pt x="150" y="259" on="1"/>
        <pt x="109" y="297" on="1"/>
        <pt x="9" y="500" on="1"/>
        <pt x="85" y="500" on="1"/>
        <pt x="189" y="284" on="1"/>
        <pt x="230" y="284" on="1"/>
        <pt x="230" y="500" on="1"/>
        <pt x="302" y="500" on="1"/>
        <pt x="302" y="274" on="1"/>
        <pt x="339" y="288" on="1"/>
        <pt x="443" y="500" on="1"/>
        <pt x="518" y="500" on="1"/>
        <pt x="413" y="297" on="1"/>
        <pt x="381" y="265" on="1"/>
        <pt x="422" y="225" on="1"/>
        <pt x="537" y="0" on="1"/>
        <pt x="454" y="0" on="1"/>
        <pt x="342" y="225" on="1"/>
        <pt x="302" y="225" on="1"/>
        <pt x="302" y="0" on="1"/>
        <pt x="230" y="0" on="1"/>
        <pt x="230" y="235" on="1"/>
      </contour>
    </TTGlyph>
    <TTGlyph name="afii10073" xMin="26" yMin="-8" xMax="314" yMax="506">
      <contour>
        <pt x="97" y="224" on="1"/>
        <pt x="97" y="286" on="1"/>
        <pt x="152" y="286" on="1"/>
        <pt x="166" y="286" on="0"/>
        <pt x="193" y="299" on="0"/>
        <pt x="214" y="321" on="0"/>
        <pt x="227" y="350" on="0"/>
        <pt x="227" y="366" on="1"/>
        <pt x="227" y="405" on="0"/>
        <pt x="186" y="441" on="0"/>
        <pt x="144" y="441" on="1"/>
        <pt x="113" y="441" on="0"/>
        <pt x="62" y="423" on="0"/>
        <pt x="48" y="413" on="1"/>
        <pt x="27" y="470" on="1"/>
        <pt x="52" y="486" on="0"/>
        <pt x="119" y="506" on="0"/>
        <pt x="162" y="506" on="1"/>
        <pt x="228" y="506" on="0"/>
        <pt x="299" y="445" on="0"/>
        <pt x="299" y="384" on="1"/>
        <pt x="299" y="346" on="0"/>
        <pt x="261" y="282" on="0"/>
        <pt x="228" y="268" on="1"/>
        <pt x="228" y="264" on="1"/>
        <pt x="274" y="253" on="0"/>
        <pt x="314" y="191" on="0"/>
        <pt x="314" y="140" on="1"/>
        <pt x="314" y="77" on="0"/>
        <pt x="230" y="-8" on="0"/>
        <pt x="143" y="-8" on="1"/>
        <pt x="103" y="-8" on="0"/>
        <pt x="48" y="7" on="0"/>
        <pt x="26" y="19" on="1"/>
        <pt x="45" y="81" on="1"/>
        <pt x="64" y="69" on="0"/>
        <pt x="116" y="57" on="0"/>
        <pt x="144" y="57" on="1"/>
        <pt x="193" y="57" on="0"/>
        <pt x="242" y="103" on="0"/>
        <pt x="242" y="146" on="1"/>
        <pt x="242" y="182" on="0"/>
        <pt x="196" y="224" on="0"/>
        <pt x="142" y="224" on="1"/>
      </contour>
    </TTGlyph>
    <TTGlyph name="afii10074" xMin="59" yMin="0" xMax="380" yMax="500">
      <contour>
        <pt x="308" y="288" on="1"/>
        <pt x="314" y="364" on="1"/>
        <pt x="310" y="364" on="1"/>
        <pt x="275" y="280" on="1"/>
        <pt x="106" y="0" on="1"/>
        <pt x="59" y="0" on="1"/>
        <pt x="59" y="500" on="1"/>
        <pt x="131" y="500" on="1"/>
        <pt x="131" y="203" on="1"/>
        <pt x="125" y="130" on="1"/>
        <pt x="129" y="130" on="1"/>
        <pt x="162" y="212" on="1"/>
        <pt x="333" y="500" on="1"/>
        <pt x="380" y="500" on="1"/>
        <pt x="380" y="0" on="1"/>
        <pt x="308" y="0" on="1"/>
      </contour>
    </TTGlyph>
    <TTGlyph name="afii10075" xMin="59" yMin="0" xMax="380" yMax="702">
      <component glyphName="afii10074" x="0" y="0" flags="0x204"/>
      <component glyphName="uniF6D4" x="36" y="0" flags="0x4"/>
    </TTGlyph>
    <TTGlyph name="afii10076" xMin="59" yMin="0" xMax="381" yMax="500">
      <contour>
        <pt x="168" y="225" on="1"/>
        <pt x="131" y="225" on="1"/>
        <pt x="131" y="0" on="1"/>
        <pt x="59" y="0" on="1"/>
        <pt x="59" y="500" on="1"/>
        <pt x="131" y="500" on="1"/>
        <pt x="131" y="274" on="1"/>
        <pt x="165" y="288" on="1"/>
        <pt x="287" y="500" on="1"/>
        <pt x="364" y="500" on="1"/>
        <pt x="245" y="299" on="1"/>
        <pt x="210" y="266" on="1"/>
        <pt x="253" y="226" on="1"/>
        <pt x="381" y="0" on="1"/>
        <pt x="295" y="0" on="1"/>
      </contour>
    </TTGlyph>
    <TTGlyph name="afii10077" xMin="-6" yMin="-4" xMax="348" yMax="500">
      <contour>
        <pt x="276" y="435" on="1"/>
        <pt x="167" y="435" on="1"/>
        <pt x="164" y="350" on="0"/>
        <pt x="154" y="191" on="0"/>
        <pt x="129" y="69" on="0"/>
        <pt x="83" y="-4" on="0"/>
        <pt x="45" y="-4" on="1"/>
        <pt x="28" y="-4" on="0"/>
        <pt x="4" y="0" on="0"/>
        <pt x="-6" y="5" on="1"/>
        <pt x="5" y="68" on="1"/>
        <pt x="26" y="62" on="0"/>
        <pt x="59" y="79" on="0"/>
        <pt x="83" y="166" on="0"/>
        <pt x="98" y="345" on="0"/>
        <pt x="101" y="500" on="1"/>
        <pt x="348" y="500" on="1"/>
        <pt x="348" y="0" on="1"/>
        <pt x="276" y="0" on="1"/>
      </contour>
    </TTGlyph>
    <TTGlyph name="afii10078" xMin="59" yMin="0" xMax="463" yMax="500">
      <contour>
        <pt x="391" y="297" on="1"/>
        <pt x="398" y="392" on="1"/>
        <pt x="394" y="392" on="1"/>
        <pt x="364" y="307" on="1"/>
        <pt x="271" y="115" on="1"/>
        <pt x="245" y="115" on="1"/>
        <pt x="148" y="307" on="1"/>
        <pt x="121" y="392" on="1"/>
        <pt x="116" y="392" on="1"/>
        <pt x="124" y="298" on="1"/>
        <pt x="124" y="0" on="1"/>
        <pt x="59" y="0" on="1"/>
        <pt x="59" y="500" on="1"/>
        <pt x="131" y="500" on="1"/>
        <pt x="240" y="283" on="1"/>
        <pt x="262" y="218" on="1"/>
        <pt x="264" y="218" on="1"/>
        <pt x="288" y="285" on="1"/>
        <pt x="389" y="500" on="1"/>
        <pt x="463" y="500" on="1"/>
        <pt x="463" y="0" on="1"/>
        <pt x="391" y="0" on="1"/>
      </contour>
    </TTGlyph>
    <TTGlyph name="afii10079" xMin="59" yMin="0" xMax="376" yMax="500">
      <contour>
        <pt x="304" y="223" on="1"/>
        <pt x="131" y="223" on="1"/>
        <pt x="131" y="0" on="1"/>
        <pt x="59" y="0" on="1"/>
        <pt x="59" y="500" on="1"/>
        <pt x="131" y="500" on="1"/>
        <pt x="131" y="288" on="1"/>
        <pt x="304" y="288" on="1"/>
        <pt x="304" y="500" on="1"/>
        <pt x="376" y="500" on="1"/>
        <pt x="376" y="0" on="1"/>
        <pt x="304" y="0" on="1"/>
      </contour>
    </TTGlyph>
    <TTGlyph name="afii10080" xMin="37" yMin="-12" xMax="395" yMax="512">
      <component glyphName="o" x="0" y="0" flags="0x204"/>
    </TTGlyph>
    <TTGlyph name="afii10081" xMin="59" yMin="0" xMax="371" yMax="500">
      <contour>
        <pt x="299" y="435" on="1"/>
        <pt x="131" y="435" on="1"/>
        <pt x="131" y="0" on="1"/>
        <pt x="59" y="0" on="1"/>
        <pt x="59" y="500" on="1"/>
        <pt x="371" y="500" on="1"/>
        <pt x="371" y="0" on="1"/>
        <pt x="299" y="0" on="1"/>
      </contour>
    </TTGlyph>
    <TTGlyph name="afii10082" xMin="59" yMin="-200" xMax="399" yMax="512">
      <component glyphName="p" x="0" y="0" flags="0x204"/>
    </TTGlyph>
    <TTGlyph name="afii10083" xMin="37" yMin="-12" xMax="335" yMax="512">
      <component glyphName="c" x="0" y="0" flags="0x204"/>
    </TTGlyph>
    <TTGlyph name="afii10084" xMin="1" yMin="0" xMax="319" yMax="500">
      <contour>
        <pt x="319" y="435" on="1"/>
        <pt x="196" y="435" on="1"/>
        <pt x="196" y="0" on="1"/>
        <pt x="124" y="0" on="1"/>
        <pt x="124" y="435" on="1"/>
        <pt x="1" y="435" on="1"/>
        <pt x="1" y="500" on="1"/>
        <pt x="319" y="500" on="1"/>
      </contour>
    </TTGlyph>
    <TTGlyph name="afii10085" xMin="7" yMin="-205" xMax="373" yMax="500">
      <component glyphName="y" x="0" y="0" flags="0x204"/>
    </TTGlyph>
    <TTGlyph name="afii10086" xMin="33" yMin="-200" xMax="517" yMax="700">
      <contour>
        <pt x="240" y="-4" on="1"/>
        <pt x="226" y="-10" on="0"/>
        <pt x="197" y="-12" on="0"/>
        <pt x="185" y="-12" on="1"/>
        <pt x="111" y="-12" on="0"/>
        <pt x="33" y="113" on="0"/>
        <pt x="33" y="250" on="1"/>
        <pt x="33" y="383" on="0"/>
        <pt x="120" y="508" on="0"/>
        <pt x="201" y="508" on="1"/>
        <pt x="224" y="508" on="0"/>
        <pt x="240" y="504" on="1"/>
        <pt x="240" y="700" on="1"/>
        <pt x="310" y="700" on="1"/>
        <pt x="310" y="503" on="1"/>
        <pt x="324" y="506" on="0"/>
        <pt x="347" y="508" on="0"/>
        <pt x="357" y="508" on="1"/>
        <pt x="397" y="508" on="0"/>
        <pt x="457" y="482" on="0"/>
        <pt x="497" y="424" on="0"/>
        <pt x="517" y="329" on="0"/>
        <pt x="517" y="260" on="1"/>
        <pt x="517" y="125" on="0"/>
        <pt x="432" y="-12" on="0"/>
        <pt x="354" y="-12" on="1"/>
        <pt x="346" y="-12" on="0"/>
        <pt x="318" y="-9" on="0"/>
        <pt x="310" y="-5" on="1"/>
        <pt x="310" y="-200" on="1"/>
        <pt x="240" y="-200" on="1"/>
      </contour>
      <contour>
        <pt x="343" y="446" on="1"/>
        <pt x="333" y="446" on="0"/>
        <pt x="319" y="445" on="0"/>
        <pt x="308" y="441" on="1"/>
        <pt x="308" y="53" on="1"/>
        <pt x="316" y="51" on="0"/>
        <pt x="335" y="50" on="0"/>
        <pt x="347" y="50" on="1"/>
        <pt x="445" y="50" on="0"/>
        <pt x="445" y="260" on="1"/>
        <pt x="445" y="352" on="0"/>
        <pt x="400" y="446" on="0"/>
      </contour>
      <contour>
        <pt x="203" y="50" on="1"/>
        <pt x="213" y="50" on="0"/>
        <pt x="231" y="52" on="0"/>
        <pt x="242" y="55" on="1"/>
        <pt x="242" y="442" on="1"/>
        <pt x="225" y="446" on="0"/>
        <pt x="205" y="446" on="1"/>
        <pt x="158" y="446" on="0"/>
        <pt x="105" y="355" on="0"/>
        <pt x="105" y="250" on="1"/>
        <pt x="105" y="158" on="0"/>
        <pt x="152" y="50" on="0"/>
      </contour>
    </TTGlyph>
    <TTGlyph name="afii10087" xMin="19" yMin="0" xMax="393" yMax="500">
      <component glyphName="x" x="0" y="0" flags="0x204"/>
    </TTGlyph>
    <TTGlyph name="afii10088" xMin="59" yMin="-127" xMax="426" yMax="500">
      <contour>
        <pt x="426" y="-127" on="1"/>
        <pt x="376" y="-127" on="1"/>
        <pt x="364" y="0" on="1"/>
        <pt x="59" y="0" on="1"/>
        <pt x="59" y="500" on="1"/>
        <pt x="131" y="500" on="1"/>
        <pt x="131" y="65" on="1"/>
        <pt x="296" y="65" on="1"/>
        <pt x="296" y="500" on="1"/>
        <pt x="368" y="500" on="1"/>
        <pt x="368" y="65" on="1"/>
        <pt x="426" y="65" on="1"/>
      </contour>
    </TTGlyph>
    <TTGlyph name="afii10089" xMin="36" yMin="0" xMax="337" yMax="500">
      <contour>
        <pt x="108" y="500" on="1"/>
        <pt x="108" y="354" on="1"/>
        <pt x="108" y="329" on="0"/>
        <pt x="113" y="289" on="0"/>
        <pt x="127" y="260" on="0"/>
        <pt x="153" y="245" on="0"/>
        <pt x="174" y="245" on="1"/>
        <pt x="209" y="245" on="0"/>
        <pt x="253" y="263" on="0"/>
        <pt x="265" y="274" on="1"/>
        <pt x="265" y="500" on="1"/>
        <pt x="337" y="500" on="1"/>
        <pt x="337" y="0" on="1"/>
        <pt x="265" y="0" on="1"/>
        <pt x="265" y="210" on="1"/>
        <pt x="253" y="201" on="0"/>
        <pt x="202" y="180" on="0"/>
        <pt x="159" y="180" on="1"/>
        <pt x="130" y="180" on="0"/>
        <pt x="84" y="195" on="0"/>
        <pt x="53" y="229" on="0"/>
        <pt x="36" y="287" on="0"/>
        <pt x="36" y="331" on="1"/>
        <pt x="36" y="500" on="1"/>
      </contour>
    </TTGlyph>
    <TTGlyph name="afii10090" xMin="59" yMin="0" xMax="535" yMax="500">
      <contour>
        <pt x="59" y="0" on="1"/>
        <pt x="59" y="500" on="1"/>
        <pt x="131" y="500" on="1"/>
        <pt x="131" y="65" on="1"/>
        <pt x="261" y="65" on="1"/>
        <pt x="261" y="500" on="1"/>
        <pt x="333" y="500" on="1"/>
        <pt x="333" y="65" on="1"/>
        <pt x="463" y="65" on="1"/>
        <pt x="463" y="500" on="1"/>
        <pt x="535" y="500" on="1"/>
        <pt x="535" y="0" on="1"/>
      </contour>
    </TTGlyph>
    <TTGlyph name="afii10091" xMin="59" yMin="-127" xMax="593" yMax="500">
      <contour>
        <pt x="593" y="-127" on="1"/>
        <pt x="543" y="-127" on="1"/>
        <pt x="531" y="0" on="1"/>
        <pt x="59" y="0" on="1"/>
        <pt x="59" y="500" on="1"/>
        <pt x="131" y="500" on="1"/>
        <pt x="131" y="65" on="1"/>
        <pt x="261" y="65" on="1"/>
        <pt x="261" y="500" on="1"/>
        <pt x="333" y="500" on="1"/>
        <pt x="333" y="65" on="1"/>
        <pt x="463" y="65" on="1"/>
        <pt x="463" y="500" on="1"/>
        <pt x="535" y="500" on="1"/>
        <pt x="535" y="65" on="1"/>
        <pt x="593" y="65" on="1"/>
      </contour>
    </TTGlyph>
    <TTGlyph name="afii10092" xMin="0" yMin="-6" xMax="384" yMax="500">
      <contour>
        <pt x="160" y="65" on="1"/>
        <pt x="174" y="62" on="0"/>
        <pt x="203" y="59" on="0"/>
        <pt x="215" y="59" on="1"/>
        <pt x="264" y="59" on="0"/>
        <pt x="309" y="108" on="0"/>
        <pt x="309" y="158" on="1"/>
        <pt x="309" y="203" on="0"/>
        <pt x="265" y="254" on="0"/>
        <pt x="217" y="254" on="1"/>
        <pt x="204" y="254" on="0"/>
        <pt x="174" y="251" on="0"/>
        <pt x="160" y="247" on="1"/>
      </contour>
      <contour>
        <pt x="160" y="309" on="1"/>
        <pt x="179" y="313" on="0"/>
        <pt x="216" y="316" on="0"/>
        <pt x="232" y="316" on="1"/>
        <pt x="274" y="316" on="0"/>
        <pt x="332" y="293" on="0"/>
        <pt x="368" y="253" on="0"/>
        <pt x="384" y="198" on="0"/>
        <pt x="384" y="167" on="1"/>
        <pt x="384" y="76" on="0"/>
        <pt x="297" y="-6" on="0"/>
        <pt x="200" y="-6" on="1"/>
        <pt x="143" y="-6" on="0"/>
        <pt x="88" y="0" on="1"/>
        <pt x="88" y="435" on="1"/>
        <pt x="0" y="435" on="1"/>
        <pt x="0" y="500" on="1"/>
        <pt x="160" y="500" on="1"/>
      </contour>
    </TTGlyph>
    <TTGlyph name="afii10093" xMin="59" yMin="-6" xMax="479" yMax="500">
      <contour>
        <pt x="131" y="65" on="1"/>
        <pt x="161" y="59" on="0"/>
        <pt x="186" y="59" on="1"/>
        <pt x="234" y="59" on="0"/>
        <pt x="272" y="110" on="0"/>
        <pt x="272" y="158" on="1"/>
        <pt x="272" y="203" on="0"/>
        <pt x="235" y="254" on="0"/>
        <pt x="188" y="254" on="1"/>
        <pt x="175" y="254" on="0"/>
        <pt x="145" y="251" on="0"/>
        <pt x="131" y="247" on="1"/>
      </contour>
      <contour>
        <pt x="131" y="309" on="1"/>
        <pt x="151" y="313" on="0"/>
        <pt x="187" y="316" on="0"/>
        <pt x="203" y="316" on="1"/>
        <pt x="244" y="316" on="0"/>
        <pt x="300" y="293" on="0"/>
        <pt x="333" y="253" on="0"/>
        <pt x="347" y="198" on="0"/>
        <pt x="347" y="167" on="1"/>
        <pt x="347" y="76" on="0"/>
        <pt x="266" y="-6" on="0"/>
        <pt x="172" y="-6" on="1"/>
        <pt x="114" y="-6" on="0"/>
        <pt x="59" y="0" on="1"/>
        <pt x="59" y="500" on="1"/>
        <pt x="131" y="500" on="1"/>
      </contour>
      <contour>
        <pt x="407" y="500" on="1"/>
        <pt x="479" y="500" on="1"/>
        <pt x="479" y="0" on="1"/>
        <pt x="407" y="0" on="1"/>
      </contour>
    </TTGlyph>
    <TTGlyph name="afii10094" xMin="59" yMin="-6" xMax="355" yMax="500">
      <contour>
        <pt x="131" y="65" on="1"/>
        <pt x="161" y="59" on="0"/>
        <pt x="186" y="59" on="1"/>
        <pt x="280" y="59" on="0"/>
        <pt x="280" y="158" on="1"/>
        <pt x="280" y="203" on="0"/>
        <pt x="236" y="254" on="0"/>
        <pt x="188" y="254" on="1"/>
        <pt x="175" y="254" on="0"/>
        <pt x="145" y="251" on="0"/>
        <pt x="131" y="247" on="1"/>
      </contour>
      <contour>
        <pt x="131" y="309" on="1"/>
        <pt x="151" y="313" on="0"/>
        <pt x="187" y="316" on="0"/>
        <pt x="203" y="316" on="1"/>
        <pt x="245" y="316" on="0"/>
        <pt x="303" y="293" on="0"/>
        <pt x="339" y="253" on="0"/>
        <pt x="355" y="198" on="0"/>
        <pt x="355" y="167" on="1"/>
        <pt x="355" y="76" on="0"/>
        <pt x="267" y="-6" on="0"/>
        <pt x="173" y="-6" on="1"/>
        <pt x="114" y="-6" on="0"/>
        <pt x="59" y="0" on="1"/>
        <pt x="59" y="500" on="1"/>
        <pt x="131" y="500" on="1"/>
      </contour>
    </TTGlyph>
    <TTGlyph name="afii10095" xMin="28" yMin="-12" xMax="335" yMax="512">
      <contour>
        <pt x="94" y="283" on="1"/>
        <pt x="260" y="283" on="1"/>
        <pt x="257" y="361" on="0"/>
        <pt x="200" y="447" on="0"/>
        <pt x="148" y="447" on="1"/>
        <pt x="116" y="447" on="0"/>
        <pt x="68" y="429" on="0"/>
        <pt x="53" y="418" on="1"/>
        <pt x="28" y="475" on="1"/>
        <pt x="51" y="492" on="0"/>
        <pt x="117" y="512" on="0"/>
        <pt x="160" y="512" on="1"/>
        <pt x="250" y="512" on="0"/>
        <pt x="335" y="382" on="0"/>
        <pt x="335" y="250" on="1"/>
        <pt x="335" y="119" on="0"/>
        <pt x="238" y="-12" on="0"/>
        <pt x="150" y="-12" on="1"/>
        <pt x="73" y="-12" on="0"/>
        <pt x="28" y="12" on="1"/>
        <pt x="48" y="76" on="1"/>
        <pt x="67" y="65" on="0"/>
        <pt x="119" y="53" on="0"/>
        <pt x="143" y="53" on="1"/>
        <pt x="254" y="53" on="0"/>
        <pt x="260" y="221" on="1"/>
        <pt x="94" y="221" on="1"/>
      </contour>
    </TTGlyph>
    <TTGlyph name="afii10096" xMin="59" yMin="-11" xMax="544" yMax="511">
      <contour>
        <pt x="377" y="-11" on="1"/>
        <pt x="289" y="-11" on="0"/>
        <pt x="213" y="111" on="0"/>
        <pt x="208" y="225" on="1"/>
        <pt x="131" y="225" on="1"/>
        <pt x="131" y="0" on="1"/>
        <pt x="59" y="0" on="1"/>
        <pt x="59" y="500" on="1"/>
        <pt x="131" y="500" on="1"/>
        <pt x="131" y="290" on="1"/>
        <pt x="209" y="290" on="1"/>
        <pt x="216" y="401" on="0"/>
        <pt x="297" y="511" on="0"/>
        <pt x="378" y="511" on="1"/>
        <pt x="467" y="511" on="0"/>
        <pt x="544" y="374" on="0"/>
        <pt x="544" y="250" on="1"/>
        <pt x="544" y="117" on="0"/>
        <pt x="462" y="-11" on="0"/>
      </contour>
      <contour>
        <pt x="279" y="250" on="1"/>
        <pt x="279" y="210" on="0"/>
        <pt x="288" y="139" on="0"/>
        <pt x="311" y="85" on="0"/>
        <pt x="349" y="54" on="0"/>
        <pt x="378" y="54" on="1"/>
        <pt x="427" y="54" on="0"/>
        <pt x="469" y="145" on="0"/>
        <pt x="469" y="250" on="1"/>
        <pt x="469" y="293" on="0"/>
        <pt x="460" y="365" on="0"/>
        <pt x="439" y="417" on="0"/>
        <pt x="404" y="446" on="0"/>
        <pt x="377" y="446" on="1"/>
        <pt x="325" y="446" on="0"/>
        <pt x="279" y="349" on="0"/>
      </contour>
    </TTGlyph>
    <TTGlyph name="afii10097" xMin="15" yMin="0" xMax="334" yMax="512">
      <contour>
        <pt x="262" y="207" on="1"/>
        <pt x="201" y="195" on="1"/>
        <pt x="100" y="0" on="1"/>
        <pt x="15" y="0" on="1"/>
        <pt x="108" y="172" on="1"/>
        <pt x="140" y="208" on="1"/>
        <pt x="99" y="216" on="0"/>
        <pt x="42" y="284" on="0"/>
        <pt x="42" y="342" on="1"/>
        <pt x="42" y="432" on="0"/>
        <pt x="139" y="512" on="0"/>
        <pt x="223" y="512" on="1"/>
        <pt x="254" y="512" on="0"/>
        <pt x="309" y="503" on="0"/>
        <pt x="334" y="497" on="1"/>
        <pt x="334" y="0" on="1"/>
        <pt x="262" y="0" on="1"/>
      </contour>
      <contour>
        <pt x="262" y="253" on="1"/>
        <pt x="262" y="438" on="1"/>
        <pt x="252" y="443" on="0"/>
        <pt x="226" y="447" on="0"/>
        <pt x="216" y="447" on="1"/>
        <pt x="168" y="447" on="0"/>
        <pt x="117" y="397" on="0"/>
        <pt x="117" y="346" on="1"/>
        <pt x="117" y="300" on="0"/>
        <pt x="175" y="249" on="0"/>
        <pt x="223" y="251" on="1"/>
      </contour>
    </TTGlyph>
    <TTGlyph name="afii10098" xMin="59" yMin="0" xMax="297" yMax="634">
      <contour>
        <pt x="297" y="435" on="1"/>
        <pt x="131" y="435" on="1"/>
        <pt x="131" y="0" on="1"/>
        <pt x="59" y="0" on="1"/>
        <pt x="59" y="500" on="1"/>
        <pt x="233" y="500" on="1"/>
        <pt x="247" y="634" on="1"/>
        <pt x="297" y="634" on="1"/>
      </contour>
    </TTGlyph>
    <TTGlyph name="afii10099" xMin="-2" yMin="-217" xMax="391" yMax="700">
      <contour>
        <pt x="-2" y="600" on="1"/>
        <pt x="63" y="600" on="1"/>
        <pt x="63" y="700" on="1"/>
        <pt x="135" y="700" on="1"/>
        <pt x="135" y="600" on="1"/>
        <pt x="263" y="600" on="1"/>
        <pt x="263" y="541" on="1"/>
        <pt x="135" y="541" on="1"/>
        <pt x="135" y="401" on="1"/>
        <pt x="138" y="401" on="1"/>
        <pt x="158" y="428" on="0"/>
        <pt x="217" y="460" on="0"/>
        <pt x="261" y="460" on="1"/>
        <pt x="294" y="460" on="0"/>
        <pt x="343" y="442" on="0"/>
        <pt x="375" y="400" on="0"/>
        <pt x="391" y="330" on="0"/>
        <pt x="391" y="278" on="1"/>
        <pt x="391" y="-29" on="1"/>
        <pt x="391" y="-130" on="0"/>
        <pt x="325" y="-217" on="0"/>
        <pt x="251" y="-206" on="1"/>
        <pt x="251" y="-141" on="1"/>
        <pt x="273" y="-141" on="0"/>
        <pt x="300" y="-125" on="0"/>
        <pt x="315" y="-90" on="0"/>
        <pt x="319" y="-36" on="0"/>
        <pt x="319" y="0" on="1"/>
        <pt x="319" y="250" on="1"/>
        <pt x="319" y="328" on="0"/>
        <pt x="286" y="395" on="0"/>
        <pt x="236" y="395" on="1"/>
        <pt x="201" y="395" on="0"/>
        <pt x="146" y="349" on="0"/>
        <pt x="135" y="312" on="1"/>
        <pt x="135" y="0" on="1"/>
        <pt x="63" y="0" on="1"/>
        <pt x="63" y="541" on="1"/>
        <pt x="-2" y="541" on="1"/>
      </contour>
    </TTGlyph>
    <TTGlyph name="afii10100" xMin="59" yMin="0" xMax="297" yMax="720">
      <component glyphName="afii10068" x="0" y="0" flags="0x204"/>
      <component glyphName="acute" x="81" y="0" flags="0x4"/>
    </TTGlyph>
    <TTGlyph name="afii10101" xMin="37" yMin="-11" xMax="351" yMax="511">
      <contour>
        <pt x="351" y="24" on="1"/>
        <pt x="328" y="7" on="0"/>
        <pt x="259" y="-11" on="0"/>
        <pt x="225" y="-11" on="1"/>
        <pt x="177" y="-11" on="0"/>
        <pt x="106" y="26" on="0"/>
        <pt x="59" y="94" on="0"/>
        <pt x="37" y="191" on="0"/>
        <pt x="37" y="250" on="1"/>
        <pt x="37" y="377" on="0"/>
        <pt x="142" y="511" on="0"/>
        <pt x="230" y="511" on="1"/>
        <pt x="268" y="511" on="0"/>
        <pt x="323" y="499" on="0"/>
        <pt x="344" y="487" on="1"/>
        <pt x="325" y="424" on="1"/>
        <pt x="305" y="435" on="0"/>
        <pt x="259" y="446" on="0"/>
        <pt x="235" y="446" on="1"/>
        <pt x="181" y="446" on="0"/>
        <pt x="118" y="366" on="0"/>
        <pt x="112" y="285" on="1"/>
        <pt x="294" y="285" on="1"/>
        <pt x="294" y="223" on="1"/>
        <pt x="112" y="223" on="1"/>
        <pt x="114" y="189" on="0"/>
        <pt x="131" y="128" on="0"/>
        <pt x="162" y="81" on="0"/>
        <pt x="208" y="54" on="0"/>
        <pt x="241" y="54" on="1"/>
        <pt x="268" y="54" on="0"/>
        <pt x="316" y="71" on="0"/>
        <pt x="330" y="82" on="1"/>
      </contour>
    </TTGlyph>
    <TTGlyph name="afii10102" xMin="29" yMin="-12" xMax="306" yMax="512">
      <component glyphName="s" x="0" y="0" flags="0x204"/>
    </TTGlyph>
    <TTGlyph name="afii10103" xMin="58" yMin="0" xMax="158" yMax="706">
      <component glyphName="i" x="0" y="0" flags="0x204"/>
    </TTGlyph>
    <TTGlyph name="afii10103.alt" xMin="72" yMin="0" xMax="144" yMax="500">
      <component glyphName="dotlessi" x="0" y="0" flags="0x204"/>
    </TTGlyph>
    <TTGlyph name="afii10104" xMin="22" yMin="0" xMax="209" yMax="701">
      <contour>
        <pt x="22" y="653" on="1"/>
        <pt x="22" y="676" on="0"/>
        <pt x="43" y="701" on="0"/>
        <pt x="63" y="701" on="1"/>
        <pt x="83" y="701" on="0"/>
        <pt x="104" y="676" on="0"/>
        <pt x="104" y="653" on="1"/>
        <pt x="104" y="632" on="0"/>
        <pt x="83" y="606" on="0"/>
        <pt x="63" y="606" on="1"/>
        <pt x="43" y="606" on="0"/>
        <pt x="22" y="632" on="0"/>
      </contour>
      <contour>
        <pt x="127" y="653" on="1"/>
        <pt x="127" y="676" on="0"/>
        <pt x="148" y="701" on="0"/>
        <pt x="168" y="701" on="1"/>
        <pt x="188" y="701" on="0"/>
        <pt x="209" y="676" on="0"/>
        <pt x="209" y="653" on="1"/>
        <pt x="209" y="632" on="0"/>
        <pt x="188" y="606" on="0"/>
        <pt x="168" y="606" on="1"/>
        <pt x="148" y="606" on="0"/>
        <pt x="127" y="632" on="0"/>
      </contour>
      <contour>
        <pt x="76" y="500" on="1"/>
        <pt x="148" y="500" on="1"/>
        <pt x="148" y="0" on="1"/>
        <pt x="76" y="0" on="1"/>
      </contour>
    </TTGlyph>
    <TTGlyph name="afii10105" xMin="4" yMin="-221" xMax="158" yMax="706">
      <component glyphName="j" x="0" y="0" flags="0x204"/>
    </TTGlyph>
    <TTGlyph name="afii10106" xMin="-6" yMin="-6" xMax="572" yMax="500">
      <contour>
        <pt x="348" y="309" on="1"/>
        <pt x="368" y="313" on="0"/>
        <pt x="404" y="316" on="0"/>
        <pt x="420" y="316" on="1"/>
        <pt x="462" y="316" on="0"/>
        <pt x="520" y="293" on="0"/>
        <pt x="556" y="253" on="0"/>
        <pt x="572" y="198" on="0"/>
        <pt x="572" y="167" on="1"/>
        <pt x="572" y="76" on="0"/>
        <pt x="484" y="-6" on="0"/>
        <pt x="390" y="-6" on="1"/>
        <pt x="331" y="-6" on="0"/>
        <pt x="276" y="0" on="1"/>
        <pt x="276" y="435" on="1"/>
        <pt x="167" y="435" on="1"/>
        <pt x="164" y="350" on="0"/>
        <pt x="154" y="191" on="0"/>
        <pt x="129" y="69" on="0"/>
        <pt x="83" y="-4" on="0"/>
        <pt x="45" y="-4" on="1"/>
        <pt x="28" y="-4" on="0"/>
        <pt x="4" y="0" on="0"/>
        <pt x="-6" y="5" on="1"/>
        <pt x="5" y="68" on="1"/>
        <pt x="26" y="62" on="0"/>
        <pt x="59" y="79" on="0"/>
        <pt x="83" y="166" on="0"/>
        <pt x="98" y="345" on="0"/>
        <pt x="101" y="500" on="1"/>
        <pt x="348" y="500" on="1"/>
      </contour>
      <contour>
        <pt x="348" y="65" on="1"/>
        <pt x="378" y="59" on="0"/>
        <pt x="403" y="59" on="1"/>
        <pt x="497" y="59" on="0"/>
        <pt x="497" y="158" on="1"/>
        <pt x="497" y="203" on="0"/>
        <pt x="453" y="254" on="0"/>
        <pt x="405" y="254" on="1"/>
        <pt x="392" y="254" on="0"/>
        <pt x="362" y="251" on="0"/>
        <pt x="348" y="247" on="1"/>
      </contour>
    </TTGlyph>
    <TTGlyph name="afii10107" xMin="59" yMin="-6" xMax="599" yMax="500">
      <contour>
        <pt x="375" y="64" on="1"/>
        <pt x="390" y="61" on="0"/>
        <pt x="418" y="59" on="0"/>
        <pt x="430" y="59" on="1"/>
        <pt x="524" y="59" on="0"/>
        <pt x="524" y="156" on="1"/>
        <pt x="524" y="249" on="0"/>
        <pt x="432" y="249" on="1"/>
        <pt x="419" y="249" on="0"/>
        <pt x="389" y="247" on="0"/>
        <pt x="375" y="243" on="1"/>
      </contour>
      <contour>
        <pt x="375" y="305" on="1"/>
        <pt x="395" y="309" on="0"/>
        <pt x="431" y="311" on="0"/>
        <pt x="447" y="311" on="1"/>
        <pt x="489" y="311" on="0"/>
        <pt x="547" y="290" on="0"/>
        <pt x="583" y="251" on="0"/>
        <pt x="599" y="198" on="0"/>
        <pt x="599" y="167" on="1"/>
        <pt x="599" y="76" on="0"/>
        <pt x="512" y="-6" on="0"/>
        <pt x="417" y="-6" on="1"/>
        <pt x="358" y="-6" on="0"/>
        <pt x="303" y="0" on="1"/>
        <pt x="303" y="226" on="1"/>
        <pt x="131" y="226" on="1"/>
        <pt x="131" y="0" on="1"/>
        <pt x="59" y="0" on="1"/>
        <pt x="59" y="500" on="1"/>
        <pt x="131" y="500" on="1"/>
        <pt x="131" y="291" on="1"/>
        <pt x="303" y="291" on="1"/>
        <pt x="303" y="500" on="1"/>
        <pt x="375" y="500" on="1"/>
      </contour>
    </TTGlyph>
    <TTGlyph name="afii10108" xMin="-2" yMin="0" xMax="391" yMax="700">
      <contour>
        <pt x="-2" y="600" on="1"/>
        <pt x="63" y="600" on="1"/>
        <pt x="63" y="700" on="1"/>
        <pt x="135" y="700" on="1"/>
        <pt x="135" y="600" on="1"/>
        <pt x="263" y="600" on="1"/>
        <pt x="263" y="541" on="1"/>
        <pt x="135" y="541" on="1"/>
        <pt x="135" y="401" on="1"/>
        <pt x="138" y="401" on="1"/>
        <pt x="158" y="428" on="0"/>
        <pt x="217" y="460" on="0"/>
        <pt x="261" y="460" on="1"/>
        <pt x="294" y="460" on="0"/>
        <pt x="343" y="441" on="0"/>
        <pt x="375" y="397" on="0"/>
        <pt x="391" y="324" on="0"/>
        <pt x="391" y="270" on="1"/>
        <pt x="391" y="0" on="1"/>
        <pt x="319" y="0" on="1"/>
        <pt x="319" y="256" on="1"/>
        <pt x="319" y="326" on="0"/>
        <pt x="286" y="395" on="0"/>
        <pt x="236" y="395" on="1"/>
        <pt x="201" y="395" on="0"/>
        <pt x="145" y="348" on="0"/>
        <pt x="135" y="310" on="1"/>
        <pt x="135" y="0" on="1"/>
        <pt x="63" y="0" on="1"/>
        <pt x="63" y="541" on="1"/>
        <pt x="-2" y="541" on="1"/>
      </contour>
    </TTGlyph>
    <TTGlyph name="afii10109" xMin="59" yMin="0" xMax="381" yMax="720">
      <component glyphName="afii10076" x="0" y="0" flags="0x204"/>
      <component glyphName="acute" x="98" y="0" flags="0x4"/>
    </TTGlyph>
    <TTGlyph name="afii10110" xMin="7" yMin="-205" xMax="373" yMax="702">
      <component glyphName="y" x="0" y="0" flags="0x204"/>
      <component glyphName="uniF6D4" x="8" y="0" flags="0x4"/>
    </TTGlyph>
    <TTGlyph name="afii10145" xMin="64" yMin="-179" xMax="462" yMax="700">
      <contour>
        <pt x="64" y="0" on="1"/>
        <pt x="64" y="700" on="1"/>
        <pt x="139" y="700" on="1"/>
        <pt x="139" y="69" on="1"/>
        <pt x="387" y="69" on="1"/>
        <pt x="387" y="700" on="1"/>
        <pt x="462" y="700" on="1"/>
        <pt x="462" y="0" on="1"/>
        <pt x="300" y="0" on="1"/>
        <pt x="287" y="-179" on="1"/>
        <pt x="240" y="-179" on="1"/>
        <pt x="224" y="0" on="1"/>
      </contour>
    </TTGlyph>
    <TTGlyph name="afii10146" xMin="0" yMin="-8" xMax="478" yMax="721">
      <contour>
        <pt x="0" y="617" on="1"/>
        <pt x="119" y="617" on="1"/>
        <pt x="119" y="721" on="1"/>
        <pt x="194" y="721" on="1"/>
        <pt x="194" y="617" on="1"/>
        <pt x="360" y="617" on="1"/>
        <pt x="360" y="552" on="1"/>
        <pt x="194" y="552" on="1"/>
        <pt x="194" y="427" on="1"/>
        <pt x="198" y="428" on="0"/>
        <pt x="218" y="431" on="0"/>
        <pt x="241" y="433" on="0"/>
        <pt x="265" y="435" on="0"/>
        <pt x="275" y="435" on="1"/>
        <pt x="315" y="435" on="0"/>
        <pt x="388" y="416" on="0"/>
        <pt x="444" y="369" on="0"/>
        <pt x="478" y="288" on="0"/>
        <pt x="478" y="226" on="1"/>
        <pt x="478" y="106" on="0"/>
        <pt x="358" y="-8" on="0"/>
        <pt x="256" y="-8" on="1"/>
        <pt x="245" y="-8" on="0"/>
        <pt x="211" y="-7" on="0"/>
        <pt x="174" y="-4" on="0"/>
        <pt x="135" y="1" on="0"/>
        <pt x="119" y="6" on="1"/>
        <pt x="119" y="552" on="1"/>
        <pt x="0" y="552" on="1"/>
      </contour>
      <contour>
        <pt x="264" y="61" on="1"/>
        <pt x="323" y="61" on="0"/>
        <pt x="399" y="137" on="0"/>
        <pt x="399" y="220" on="1"/>
        <pt x="399" y="264" on="0"/>
        <pt x="377" y="321" on="0"/>
        <pt x="340" y="354" on="0"/>
        <pt x="290" y="366" on="0"/>
        <pt x="263" y="366" on="1"/>
        <pt x="256" y="366" on="0"/>
        <pt x="236" y="364" on="0"/>
        <pt x="215" y="362" on="0"/>
        <pt x="198" y="358" on="0"/>
        <pt x="194" y="357" on="1"/>
        <pt x="194" y="67" on="1"/>
        <pt x="205" y="64" on="0"/>
        <pt x="244" y="61" on="0"/>
      </contour>
    </TTGlyph>
    <TTGlyph name="afii10147" xMin="43" yMin="-12" xMax="506" yMax="712">
      <contour>
        <pt x="43" y="350" on="1"/>
        <pt x="43" y="528" on="0"/>
        <pt x="157" y="712" on="0"/>
        <pt x="274" y="712" on="1"/>
        <pt x="337" y="712" on="0"/>
        <pt x="425" y="661" on="0"/>
        <pt x="480" y="567" on="0"/>
        <pt x="506" y="433" on="0"/>
        <pt x="506" y="350" on="1"/>
        <pt x="506" y="172" on="0"/>
        <pt x="391" y="-12" on="0"/>
        <pt x="274" y="-12" on="1"/>
        <pt x="212" y="-12" on="0"/>
        <pt x="124" y="39" on="0"/>
        <pt x="68" y="133" on="0"/>
        <pt x="43" y="267" on="0"/>
      </contour>
      <contour>
        <pt x="274" y="57" on="1"/>
        <pt x="345" y="57" on="0"/>
        <pt x="423" y="187" on="0"/>
        <pt x="427" y="322" on="1"/>
        <pt x="122" y="322" on="1"/>
        <pt x="124" y="268" on="0"/>
        <pt x="143" y="172" on="0"/>
        <pt x="180" y="99" on="0"/>
        <pt x="235" y="57" on="0"/>
      </contour>
      <contour>
        <pt x="274" y="643" on="1"/>
        <pt x="205" y="643" on="0"/>
        <pt x="127" y="517" on="0"/>
        <pt x="122" y="389" on="1"/>
        <pt x="427" y="389" on="1"/>
        <pt x="424" y="441" on="0"/>
        <pt x="404" y="533" on="0"/>
        <pt x="367" y="602" on="0"/>
        <pt x="312" y="643" on="0"/>
      </contour>
    </TTGlyph>
    <TTGlyph name="afii10148" xMin="-3" yMin="-11" xMax="534" yMax="707">
      <contour>
        <pt x="252" y="-11" on="1"/>
        <pt x="213" y="-11" on="1"/>
        <pt x="-3" y="700" on="1"/>
        <pt x="81" y="700" on="1"/>
        <pt x="217" y="221" on="1"/>
        <pt x="236" y="114" on="1"/>
        <pt x="237" y="114" on="1"/>
        <pt x="250" y="223" on="1"/>
        <pt x="310" y="476" on="1"/>
        <pt x="327" y="550" on="0"/>
        <pt x="357" y="641" on="0"/>
        <pt x="390" y="690" on="0"/>
        <pt x="431" y="707" on="0"/>
        <pt x="459" y="707" on="1"/>
        <pt x="486" y="707" on="0"/>
        <pt x="520" y="696" on="0"/>
        <pt x="534" y="687" on="1"/>
        <pt x="513" y="622" on="1"/>
        <pt x="498" y="631" on="0"/>
        <pt x="473" y="638" on="0"/>
        <pt x="462" y="638" on="1"/>
        <pt x="439" y="638" on="0"/>
        <pt x="408" y="575" on="0"/>
        <pt x="393" y="520" on="1"/>
      </contour>
    </TTGlyph>
    <TTGlyph name="afii10193" xMin="59" yMin="-179" xMax="371" yMax="500">
      <contour>
        <pt x="59" y="0" on="1"/>
        <pt x="59" y="500" on="1"/>
        <pt x="131" y="500" on="1"/>
        <pt x="131" y="69" on="1"/>
        <pt x="299" y="69" on="1"/>
        <pt x="299" y="500" on="1"/>
        <pt x="371" y="500" on="1"/>
        <pt x="371" y="0" on="1"/>
        <pt x="253" y="0" on="1"/>
        <pt x="240" y="-179" on="1"/>
        <pt x="193" y="-179" on="1"/>
        <pt x="177" y="0" on="1"/>
      </contour>
    </TTGlyph>
    <TTGlyph name="afii10194" xMin="0" yMin="-6" xMax="384" yMax="700">
      <contour>
        <pt x="0" y="500" on="1"/>
        <pt x="88" y="500" on="1"/>
        <pt x="88" y="700" on="1"/>
        <pt x="160" y="700" on="1"/>
        <pt x="160" y="500" on="1"/>
        <pt x="289" y="500" on="1"/>
        <pt x="289" y="438" on="1"/>
        <pt x="160" y="438" on="1"/>
        <pt x="160" y="309" on="1"/>
        <pt x="179" y="313" on="0"/>
        <pt x="216" y="316" on="0"/>
        <pt x="232" y="316" on="1"/>
        <pt x="274" y="316" on="0"/>
        <pt x="332" y="293" on="0"/>
        <pt x="368" y="253" on="0"/>
        <pt x="384" y="198" on="0"/>
        <pt x="384" y="167" on="1"/>
        <pt x="384" y="76" on="0"/>
        <pt x="297" y="-6" on="0"/>
        <pt x="201" y="-6" on="1"/>
        <pt x="143" y="-6" on="0"/>
        <pt x="88" y="0" on="1"/>
        <pt x="88" y="438" on="1"/>
        <pt x="0" y="438" on="1"/>
      </contour>
      <contour>
        <pt x="160" y="64" on="1"/>
        <pt x="174" y="61" on="0"/>
        <pt x="202" y="59" on="0"/>
        <pt x="215" y="59" on="1"/>
        <pt x="264" y="59" on="0"/>
        <pt x="309" y="113" on="0"/>
        <pt x="309" y="158" on="1"/>
        <pt x="309" y="198" on="0"/>
        <pt x="265" y="254" on="0"/>
        <pt x="217" y="254" on="1"/>
        <pt x="204" y="254" on="0"/>
        <pt x="174" y="251" on="0"/>
        <pt x="160" y="247" on="1"/>
      </contour>
    </TTGlyph>
    <TTGlyph name="afii10195" xMin="37" yMin="-12" xMax="395" yMax="512">
      <contour>
        <pt x="37" y="250" on="1"/>
        <pt x="37" y="381" on="0"/>
        <pt x="130" y="512" on="0"/>
        <pt x="216" y="512" on="1"/>
        <pt x="308" y="512" on="0"/>
        <pt x="395" y="375" on="0"/>
        <pt x="395" y="250" on="1"/>
        <pt x="395" y="117" on="0"/>
        <pt x="302" y="-12" on="0"/>
        <pt x="216" y="-12" on="1"/>
        <pt x="124" y="-12" on="0"/>
        <pt x="37" y="125" on="0"/>
      </contour>
      <contour>
        <pt x="320" y="279" on="1"/>
        <pt x="315" y="370" on="0"/>
        <pt x="259" y="447" on="0"/>
        <pt x="216" y="447" on="1"/>
        <pt x="196" y="447" on="0"/>
        <pt x="160" y="430" on="0"/>
        <pt x="132" y="391" on="0"/>
        <pt x="114" y="327" on="0"/>
        <pt x="112" y="279" on="1"/>
      </contour>
      <contour>
        <pt x="112" y="220" on="1"/>
        <pt x="115" y="134" on="0"/>
        <pt x="174" y="53" on="0"/>
        <pt x="216" y="53" on="1"/>
        <pt x="235" y="53" on="0"/>
        <pt x="272" y="69" on="0"/>
        <pt x="300" y="108" on="0"/>
        <pt x="318" y="171" on="0"/>
        <pt x="320" y="220" on="1"/>
      </contour>
    </TTGlyph>
    <TTGlyph name="afii10196" xMin="5" yMin="-11" xMax="428" yMax="507">
      <contour>
        <pt x="88" y="500" on="1"/>
        <pt x="181" y="211" on="1"/>
        <pt x="201" y="112" on="1"/>
        <pt x="203" y="112" on="1"/>
        <pt x="221" y="213" on="1"/>
        <pt x="246" y="300" on="1"/>
        <pt x="260" y="349" on="0"/>
        <pt x="285" y="426" on="0"/>
        <pt x="314" y="479" on="0"/>
        <pt x="351" y="507" on="0"/>
        <pt x="377" y="507" on="1"/>
        <pt x="393" y="507" on="0"/>
        <pt x="418" y="503" on="0"/>
        <pt x="428" y="498" on="1"/>
        <pt x="418" y="431" on="1"/>
        <pt x="407" y="435" on="0"/>
        <pt x="387" y="440" on="0"/>
        <pt x="367" y="427" on="0"/>
        <pt x="346" y="391" on="0"/>
        <pt x="334" y="356" on="1"/>
        <pt x="214" y="-11" on="1"/>
        <pt x="180" y="-11" on="1"/>
        <pt x="5" y="500" on="1"/>
      </contour>
    </TTGlyph>
    <TTGlyph name="afii10846" xMin="37" yMin="-12" xMax="371" yMax="512">
      <contour>
        <pt x="50" y="468" on="1"/>
        <pt x="75" y="488" on="0"/>
        <pt x="150" y="512" on="0"/>
        <pt x="192" y="512" on="1"/>
        <pt x="285" y="512" on="0"/>
        <pt x="371" y="373" on="0"/>
        <pt x="371" y="250" on="1"/>
        <pt x="371" y="117" on="0"/>
        <pt x="279" y="-12" on="0"/>
        <pt x="198" y="-12" on="1"/>
        <pt x="170" y="-12" on="0"/>
        <pt x="113" y="7" on="0"/>
        <pt x="66" y="56" on="0"/>
        <pt x="37" y="139" on="0"/>
        <pt x="37" y="203" on="1"/>
        <pt x="37" y="220" on="0"/>
        <pt x="40" y="256" on="0"/>
        <pt x="42" y="276" on="1"/>
        <pt x="298" y="276" on="1"/>
        <pt x="295" y="364" on="0"/>
        <pt x="240" y="447" on="0"/>
        <pt x="172" y="447" on="1"/>
        <pt x="144" y="447" on="0"/>
        <pt x="91" y="428" on="0"/>
        <pt x="77" y="414" on="1"/>
      </contour>
      <contour>
        <pt x="199" y="53" on="1"/>
        <pt x="244" y="53" on="0"/>
        <pt x="298" y="136" on="0"/>
        <pt x="296" y="216" on="1"/>
        <pt x="107" y="216" on="1"/>
        <pt x="103" y="138" on="0"/>
        <pt x="156" y="53" on="0"/>
      </contour>
    </TTGlyph>
    <TTGlyph name="afii57929" xMin="31" yMin="502" xMax="131" yMax="708">
      <component glyphName="quoteright" x="0" y="0" flags="0x204"/>
    </TTGlyph>
    <TTGlyph name="afii61289" xMin="73" yMin="-12" xMax="406" yMax="712">
      <contour>
        <pt x="406" y="30" on="1"/>
        <pt x="384" y="16" on="0"/>
        <pt x="313" y="-12" on="0"/>
        <pt x="278" y="-12" on="1"/>
        <pt x="215" y="-12" on="0"/>
        <pt x="158" y="49" on="0"/>
        <pt x="158" y="114" on="1"/>
        <pt x="158" y="218" on="1"/>
        <pt x="108" y="174" on="1"/>
        <pt x="73" y="218" on="1"/>
        <pt x="158" y="292" on="1"/>
        <pt x="158" y="546" on="1"/>
        <pt x="158" y="590" on="0"/>
        <pt x="178" y="653" on="0"/>
        <pt x="213" y="693" on="0"/>
        <pt x="260" y="712" on="0"/>
        <pt x="287" y="712" on="1"/>
        <pt x="335" y="712" on="0"/>
        <pt x="397" y="653" on="0"/>
        <pt x="397" y="593" on="1"/>
        <pt x="397" y="519" on="0"/>
        <pt x="317" y="353" on="0"/>
        <pt x="226" y="265" on="1"/>
        <pt x="226" y="125" on="1"/>
        <pt x="226" y="81" on="0"/>
        <pt x="260" y="48" on="0"/>
        <pt x="284" y="48" on="1"/>
        <pt x="309" y="48" on="0"/>
        <pt x="369" y="69" on="0"/>
        <pt x="389" y="80" on="1"/>
      </contour>
      <contour>
        <pt x="333" y="588" on="1"/>
        <pt x="333" y="622" on="0"/>
        <pt x="305" y="652" on="0"/>
        <pt x="287" y="652" on="1"/>
        <pt x="275" y="652" on="0"/>
        <pt x="253" y="645" on="0"/>
        <pt x="236" y="624" on="0"/>
        <pt x="226" y="587" on="0"/>
        <pt x="226" y="557" on="1"/>
        <pt x="226" y="345" on="1"/>
        <pt x="282" y="410" on="0"/>
        <pt x="333" y="531" on="0"/>
      </contour>
    </TTGlyph>
    <TTGlyph name="afii61352" xMin="63" yMin="-11" xMax="775" yMax="712">
      <contour>
        <pt x="535" y="312" on="1"/>
        <pt x="765" y="312" on="1"/>
        <pt x="765" y="245" on="1"/>
        <pt x="535" y="245" on="1"/>
      </contour>
      <contour>
        <pt x="169" y="447" on="1"/>
        <pt x="127" y="562" on="1"/>
        <pt x="123" y="562" on="1"/>
        <pt x="135" y="452" on="1"/>
        <pt x="135" y="0" on="1"/>
        <pt x="63" y="0" on="1"/>
        <pt x="63" y="711" on="1"/>
        <pt x="108" y="711" on="1"/>
        <pt x="355" y="254" on="1"/>
        <pt x="397" y="144" on="1"/>
        <pt x="401" y="144" on="1"/>
        <pt x="388" y="249" on="1"/>
        <pt x="388" y="700" on="1"/>
        <pt x="460" y="700" on="1"/>
        <pt x="460" y="-11" on="1"/>
        <pt x="415" y="-11" on="1"/>
      </contour>
      <contour>
        <pt x="520" y="542" on="1"/>
        <pt x="520" y="588" on="0"/>
        <pt x="539" y="653" on="0"/>
        <pt x="574" y="694" on="0"/>
        <pt x="621" y="712" on="0"/>
        <pt x="647" y="712" on="1"/>
        <pt x="674" y="712" on="0"/>
        <pt x="721" y="695" on="0"/>
        <pt x="756" y="656" on="0"/>
        <pt x="775" y="590" on="0"/>
        <pt x="775" y="542" on="1"/>
        <pt x="775" y="494" on="0"/>
        <pt x="756" y="428" on="0"/>
        <pt x="721" y="389" on="0"/>
        <pt x="674" y="372" on="0"/>
        <pt x="647" y="372" on="1"/>
        <pt x="621" y="372" on="0"/>
        <pt x="574" y="389" on="0"/>
        <pt x="539" y="428" on="0"/>
        <pt x="520" y="494" on="0"/>
      </contour>
      <contour>
        <pt x="585" y="542" on="1"/>
        <pt x="585" y="477" on="0"/>
        <pt x="620" y="427" on="0"/>
        <pt x="647" y="427" on="1"/>
        <pt x="661" y="427" on="0"/>
        <pt x="684" y="437" on="0"/>
        <pt x="701" y="462" on="0"/>
        <pt x="710" y="507" on="0"/>
        <pt x="710" y="542" on="1"/>
        <pt x="710" y="576" on="0"/>
        <pt x="701" y="621" on="0"/>
        <pt x="684" y="647" on="0"/>
        <pt x="661" y="657" on="0"/>
        <pt x="647" y="657" on="1"/>
        <pt x="633" y="657" on="0"/>
        <pt x="610" y="647" on="0"/>
        <pt x="594" y="621" on="0"/>
        <pt x="585" y="576" on="0"/>
      </contour>
    </TTGlyph>
    <TTGlyph name="agrave" xMin="29" yMin="-7" xMax="350" yMax="720">
      <component glyphName="a" x="0" y="0" flags="0x204"/>
      <component glyphName="grave" x="49" y="0" flags="0x4"/>
    </TTGlyph>
    <TTGlyph name="amacron" xMin="29" yMin="-7" xMax="350" yMax="643">
      <component glyphName="a" x="0" y="0" flags="0x204"/>
      <component glyphName="macron" x="16" y="0" flags="0x4"/>
    </TTGlyph>
    <TTGlyph name="ampersand" xMin="91" yMin="-12" xMax="598" yMax="712">
      <contour>
        <pt x="91" y="188" on="1"/>
        <pt x="91" y="228" on="0"/>
        <pt x="115" y="299" on="0"/>
        <pt x="154" y="360" on="0"/>
        <pt x="204" y="410" on="0"/>
        <pt x="230" y="430" on="1"/>
        <pt x="210" y="466" on="0"/>
        <pt x="180" y="542" on="0"/>
        <pt x="180" y="584" on="1"/>
        <pt x="180" y="608" on="0"/>
        <pt x="193" y="654" on="0"/>
        <pt x="223" y="690" on="0"/>
        <pt x="269" y="712" on="0"/>
        <pt x="302" y="712" on="1"/>
        <pt x="336" y="712" on="0"/>
        <pt x="383" y="692" on="0"/>
        <pt x="411" y="660" on="0"/>
        <pt x="424" y="619" on="0"/>
        <pt x="424" y="597" on="1"/>
        <pt x="424" y="554" on="0"/>
        <pt x="370" y="464" on="0"/>
        <pt x="315" y="421" on="1"/>
        <pt x="328" y="393" on="0"/>
        <pt x="361" y="332" on="0"/>
        <pt x="398" y="271" on="0"/>
        <pt x="437" y="212" on="0"/>
        <pt x="456" y="187" on="1"/>
        <pt x="474" y="212" on="0"/>
        <pt x="506" y="296" on="0"/>
        <pt x="516" y="335" on="1"/>
        <pt x="574" y="312" on="1"/>
        <pt x="569" y="295" on="0"/>
        <pt x="551" y="247" on="0"/>
        <pt x="530" y="198" on="0"/>
        <pt x="507" y="153" on="0"/>
        <pt x="497" y="138" on="1"/>
        <pt x="530" y="99" on="0"/>
        <pt x="575" y="56" on="0"/>
        <pt x="598" y="40" on="1"/>
        <pt x="553" y="-12" on="1"/>
        <pt x="508" y="14" on="0"/>
        <pt x="455" y="81" on="1"/>
        <pt x="441" y="63" on="0"/>
        <pt x="406" y="30" on="0"/>
        <pt x="363" y="4" on="0"/>
        <pt x="310" y="-12" on="0"/>
        <pt x="279" y="-12" on="1"/>
        <pt x="240" y="-12" on="0"/>
        <pt x="171" y="13" on="0"/>
        <pt x="120" y="63" on="0"/>
        <pt x="91" y="138" on="0"/>
      </contour>
      <contour>
        <pt x="413" y="130" on="1"/>
        <pt x="390" y="159" on="0"/>
        <pt x="346" y="225" on="0"/>
        <pt x="306" y="291" on="0"/>
        <pt x="273" y="353" on="0"/>
        <pt x="262" y="379" on="1"/>
        <pt x="241" y="359" on="0"/>
        <pt x="205" y="319" on="0"/>
        <pt x="178" y="274" on="0"/>
        <pt x="163" y="221" on="0"/>
        <pt x="163" y="189" on="1"/>
        <pt x="163" y="156" on="0"/>
        <pt x="183" y="105" on="0"/>
        <pt x="218" y="71" on="0"/>
        <pt x="263" y="53" on="0"/>
        <pt x="288" y="53" on="1"/>
        <pt x="307" y="53" on="0"/>
        <pt x="345" y="67" on="0"/>
        <pt x="378" y="89" on="0"/>
        <pt x="404" y="116" on="0"/>
      </contour>
      <contour>
        <pt x="252" y="584" on="1"/>
        <pt x="252" y="554" on="0"/>
        <pt x="271" y="496" on="0"/>
        <pt x="286" y="466" on="1"/>
        <pt x="327" y="501" on="0"/>
        <pt x="358" y="559" on="0"/>
        <pt x="358" y="582" on="1"/>
        <pt x="358" y="610" on="0"/>
        <pt x="335" y="651" on="0"/>
        <pt x="305" y="651" on="1"/>
        <pt x="277" y="651" on="0"/>
        <pt x="252" y="613" on="0"/>
      </contour>
    </TTGlyph>
    <TTGlyph name="aogonek" xMin="29" yMin="-196" xMax="371" yMax="508">
      <contour>
        <pt x="54" y="470" on="1"/>
        <pt x="83" y="488" on="0"/>
        <pt x="166" y="508" on="0"/>
        <pt x="212" y="508" on="1"/>
        <pt x="254" y="508" on="0"/>
        <pt x="305" y="483" on="0"/>
        <pt x="334" y="440" on="0"/>
        <pt x="343" y="385" on="0"/>
        <pt x="343" y="355" on="1"/>
        <pt x="343" y="295" on="0"/>
        <pt x="338" y="181" on="0"/>
        <pt x="338" y="130" on="1"/>
        <pt x="338" y="92" on="0"/>
        <pt x="343" y="27" on="0"/>
        <pt x="350" y="-2" on="1"/>
        <pt x="331" y="-2" on="1"/>
        <pt x="310" y="-18" on="0"/>
        <pt x="286" y="-61" on="0"/>
        <pt x="286" y="-88" on="1"/>
        <pt x="287" y="-117" on="0"/>
        <pt x="324" y="-148" on="0"/>
        <pt x="361" y="-133" on="1"/>
        <pt x="371" y="-173" on="1"/>
        <pt x="360" y="-184" on="0"/>
        <pt x="319" y="-196" on="0"/>
        <pt x="300" y="-196" on="1"/>
        <pt x="260" y="-196" on="0"/>
        <pt x="213" y="-148" on="0"/>
        <pt x="213" y="-110" on="1"/>
        <pt x="213" y="-68" on="0"/>
        <pt x="257" y="-11" on="0"/>
        <pt x="292" y="6" on="1"/>
        <pt x="278" y="57" on="1"/>
        <pt x="274" y="57" on="1"/>
        <pt x="259" y="31" on="0"/>
        <pt x="201" y="-7" on="0"/>
        <pt x="152" y="-7" on="1"/>
        <pt x="98" y="-7" on="0"/>
        <pt x="29" y="68" on="0"/>
        <pt x="29" y="134" on="1"/>
        <pt x="29" y="177" on="0"/>
        <pt x="58" y="235" on="0"/>
        <pt x="111" y="271" on="0"/>
        <pt x="184" y="286" on="0"/>
        <pt x="229" y="286" on="1"/>
        <pt x="239" y="286" on="0"/>
        <pt x="259" y="286" on="0"/>
        <pt x="270" y="285" on="1"/>
        <pt x="273" y="316" on="0"/>
        <pt x="273" y="341" on="1"/>
        <pt x="273" y="398" on="0"/>
        <pt x="239" y="443" on="0"/>
        <pt x="194" y="443" on="1"/>
        <pt x="166" y="443" on="0"/>
        <pt x="100" y="426" on="0"/>
        <pt x="78" y="413" on="1"/>
      </contour>
      <contour>
        <pt x="271" y="228" on="1"/>
        <pt x="261" y="229" on="0"/>
        <pt x="240" y="230" on="0"/>
        <pt x="230" y="230" on="1"/>
        <pt x="206" y="230" on="0"/>
        <pt x="160" y="222" on="0"/>
        <pt x="125" y="202" on="0"/>
        <pt x="104" y="168" on="0"/>
        <pt x="104" y="142" on="1"/>
        <pt x="104" y="102" on="0"/>
        <pt x="142" y="58" on="0"/>
        <pt x="173" y="58" on="1"/>
        <pt x="215" y="58" on="0"/>
        <pt x="262" y="98" on="0"/>
        <pt x="271" y="122" on="1"/>
      </contour>
    </TTGlyph>
    <TTGlyph name="approxequal" xMin="23" yMin="209" xMax="391" yMax="503">
      <component glyphName="asciitilde" x="0" y="83" flags="0x204"/>
      <component glyphName="asciitilde" x="0" y="-83" flags="0x4"/>
    </TTGlyph>
    <TTGlyph name="aring" xMin="29" yMin="-7" xMax="350" yMax="732">
      <component glyphName="a" x="0" y="0" flags="0x204"/>
      <component glyphName="ring" x="58" y="0" flags="0x4"/>
    </TTGlyph>
    <TTGlyph name="asciicircum" xMin="40" yMin="435" xMax="360" yMax="711">
      <contour>
        <pt x="191" y="711" on="1"/>
        <pt x="221" y="711" on="1"/>
        <pt x="360" y="435" on="1"/>
        <pt x="285" y="435" on="1"/>
        <pt x="223" y="570" on="1"/>
        <pt x="205" y="639" on="1"/>
        <pt x="181" y="569" on="1"/>
        <pt x="109" y="435" on="1"/>
        <pt x="40" y="435" on="1"/>
      </contour>
    </TTGlyph>
    <TTGlyph name="asciitilde" xMin="23" yMin="292" xMax="391" yMax="420">
      <contour>
        <pt x="23" y="361" on="1"/>
        <pt x="59" y="394" on="0"/>
        <pt x="117" y="420" on="0"/>
        <pt x="142" y="420" on="1"/>
        <pt x="165" y="420" on="0"/>
        <pt x="205" y="403" on="0"/>
        <pt x="241" y="384" on="0"/>
        <pt x="276" y="367" on="0"/>
        <pt x="294" y="367" on="1"/>
        <pt x="308" y="367" on="0"/>
        <pt x="340" y="381" on="0"/>
        <pt x="357" y="400" on="1"/>
        <pt x="391" y="340" on="1"/>
        <pt x="359" y="313" on="0"/>
        <pt x="309" y="292" on="0"/>
        <pt x="288" y="292" on="1"/>
        <pt x="266" y="292" on="0"/>
        <pt x="229" y="309" on="0"/>
        <pt x="194" y="330" on="0"/>
        <pt x="159" y="347" on="0"/>
        <pt x="140" y="347" on="1"/>
        <pt x="122" y="347" on="0"/>
        <pt x="81" y="327" on="0"/>
        <pt x="56" y="302" on="1"/>
      </contour>
    </TTGlyph>
    <TTGlyph name="asterisk" xMin="30" yMin="462" xMax="260" yMax="703">
      <contour>
        <pt x="108" y="703" on="1"/>
        <pt x="128" y="665" on="1"/>
        <pt x="143" y="613" on="1"/>
        <pt x="159" y="665" on="1"/>
        <pt x="180" y="702" on="1"/>
        <pt x="224" y="678" on="1"/>
        <pt x="201" y="638" on="1"/>
        <pt x="163" y="595" on="1"/>
        <pt x="218" y="606" on="1"/>
        <pt x="260" y="606" on="1"/>
        <pt x="260" y="555" on="1"/>
        <pt x="221" y="555" on="1"/>
        <pt x="167" y="566" on="1"/>
        <pt x="206" y="522" on="1"/>
        <pt x="226" y="487" on="1"/>
        <pt x="183" y="462" on="1"/>
        <pt x="162" y="500" on="1"/>
        <pt x="143" y="555" on="1"/>
        <pt x="128" y="502" on="1"/>
        <pt x="107" y="465" on="1"/>
        <pt x="63" y="490" on="1"/>
        <pt x="86" y="528" on="1"/>
        <pt x="121" y="566" on="1"/>
        <pt x="74" y="555" on="1"/>
        <pt x="30" y="555" on="1"/>
        <pt x="30" y="606" on="1"/>
        <pt x="74" y="606" on="1"/>
        <pt x="124" y="595" on="1"/>
        <pt x="86" y="636" on="1"/>
        <pt x="64" y="677" on="1"/>
      </contour>
    </TTGlyph>
    <TTGlyph name="at" xMin="68" yMin="-162" xMax="789" yMax="674">
      <contour>
        <pt x="565" y="491" on="1"/>
        <pt x="598" y="491" on="1"/>
        <pt x="557" y="200" on="1"/>
        <pt x="548" y="133" on="0"/>
        <pt x="555" y="68" on="0"/>
        <pt x="581" y="68" on="1"/>
        <pt x="607" y="68" on="0"/>
        <pt x="659" y="102" on="0"/>
        <pt x="700" y="168" on="0"/>
        <pt x="725" y="264" on="0"/>
        <pt x="725" y="326" on="1"/>
        <pt x="725" y="397" on="0"/>
        <pt x="684" y="504" on="0"/>
        <pt x="611" y="576" on="0"/>
        <pt x="507" y="613" on="0"/>
        <pt x="444" y="613" on="1"/>
        <pt x="379" y="613" on="0"/>
        <pt x="265" y="560" on="0"/>
        <pt x="181" y="462" on="0"/>
        <pt x="132" y="326" on="0"/>
        <pt x="132" y="242" on="1"/>
        <pt x="132" y="155" on="0"/>
        <pt x="177" y="27" on="0"/>
        <pt x="259" y="-59" on="0"/>
        <pt x="371" y="-101" on="0"/>
        <pt x="439" y="-101" on="1"/>
        <pt x="463" y="-101" on="0"/>
        <pt x="526" y="-89" on="0"/>
        <pt x="549" y="-77" on="1"/>
        <pt x="567" y="-133" on="1"/>
        <pt x="533" y="-149" on="0"/>
        <pt x="466" y="-162" on="0"/>
        <pt x="429" y="-162" on="1"/>
        <pt x="356" y="-162" on="0"/>
        <pt x="225" y="-116" on="0"/>
        <pt x="126" y="-19" on="0"/>
        <pt x="68" y="132" on="0"/>
        <pt x="68" y="236" on="1"/>
        <pt x="68" y="339" on="0"/>
        <pt x="129" y="502" on="0"/>
        <pt x="232" y="614" on="0"/>
        <pt x="370" y="674" on="0"/>
        <pt x="447" y="674" on="1"/>
        <pt x="521" y="674" on="0"/>
        <pt x="646" y="630" on="0"/>
        <pt x="738" y="542" on="0"/>
        <pt x="789" y="412" on="0"/>
        <pt x="789" y="326" on="1"/>
        <pt x="789" y="257" on="0"/>
        <pt x="753" y="139" on="0"/>
        <pt x="692" y="53" on="0"/>
        <pt x="611" y="4" on="0"/>
        <pt x="565" y="4" on="1"/>
        <pt x="546" y="4" on="0"/>
        <pt x="515" y="14" on="0"/>
        <pt x="496" y="38" on="0"/>
        <pt x="488" y="78" on="0"/>
        <pt x="492" y="107" on="1"/>
        <pt x="488" y="107" on="1"/>
        <pt x="477" y="87" on="0"/>
        <pt x="447" y="50" on="0"/>
        <pt x="412" y="21" on="0"/>
        <pt x="371" y="4" on="0"/>
        <pt x="349" y="4" on="1"/>
        <pt x="307" y="4" on="0"/>
        <pt x="248" y="79" on="0"/>
        <pt x="248" y="150" on="1"/>
        <pt x="248" y="224" on="0"/>
        <pt x="281" y="352" on="0"/>
        <pt x="338" y="446" on="0"/>
        <pt x="414" y="499" on="0"/>
        <pt x="457" y="499" on="1"/>
        <pt x="486" y="499" on="0"/>
        <pt x="523" y="479" on="0"/>
        <pt x="540" y="462" on="1"/>
      </contour>
      <contour>
        <pt x="519" y="400" on="1"/>
        <pt x="506" y="418" on="0"/>
        <pt x="479" y="434" on="0"/>
        <pt x="459" y="434" on="1"/>
        <pt x="429" y="434" on="0"/>
        <pt x="377" y="389" on="0"/>
        <pt x="339" y="314" on="0"/>
        <pt x="317" y="218" on="0"/>
        <pt x="317" y="167" on="1"/>
        <pt x="317" y="122" on="0"/>
        <pt x="344" y="69" on="0"/>
        <pt x="376" y="69" on="1"/>
        <pt x="391" y="69" on="0"/>
        <pt x="423" y="91" on="0"/>
        <pt x="454" y="126" on="0"/>
        <pt x="482" y="170" on="0"/>
        <pt x="492" y="192" on="1"/>
      </contour>
    </TTGlyph>
    <TTGlyph name="atilde" xMin="29" yMin="-7" xMax="350" yMax="712">
      <component glyphName="a" x="0" y="0" flags="0x204"/>
      <component glyphName="tilde" x="20" y="0" flags="0x4"/>
    </TTGlyph>
    <TTGlyph name="b" xMin="59" yMin="-9" xMax="397" yMax="700">
      <contour>
        <pt x="59" y="700" on="1"/>
        <pt x="131" y="700" on="1"/>
        <pt x="131" y="462" on="1"/>
        <pt x="134" y="462" on="1"/>
        <pt x="175" y="512" on="0"/>
        <pt x="243" y="512" on="1"/>
        <pt x="320" y="512" on="0"/>
        <pt x="397" y="390" on="0"/>
        <pt x="397" y="258" on="1"/>
        <pt x="397" y="123" on="0"/>
        <pt x="294" y="-9" on="0"/>
        <pt x="200" y="-9" on="1"/>
        <pt x="154" y="-9" on="0"/>
        <pt x="78" y="12" on="0"/>
        <pt x="59" y="26" on="1"/>
      </contour>
      <contour>
        <pt x="131" y="73" on="1"/>
        <pt x="145" y="65" on="0"/>
        <pt x="186" y="56" on="0"/>
        <pt x="209" y="56" on="1"/>
        <pt x="261" y="56" on="0"/>
        <pt x="322" y="155" on="0"/>
        <pt x="322" y="258" on="1"/>
        <pt x="322" y="301" on="0"/>
        <pt x="311" y="370" on="0"/>
        <pt x="288" y="420" on="0"/>
        <pt x="251" y="447" on="0"/>
        <pt x="225" y="447" on="1"/>
        <pt x="189" y="447" on="0"/>
        <pt x="142" y="404" on="0"/>
        <pt x="131" y="367" on="1"/>
      </contour>
    </TTGlyph>
    <TTGlyph name="backslash" xMin="-28" yMin="-140" xMax="330" yMax="712">
      <contour>
        <pt x="330" y="-117" on="1"/>
        <pt x="270" y="-140" on="1"/>
        <pt x="-28" y="689" on="1"/>
        <pt x="33" y="712" on="1"/>
      </contour>
    </TTGlyph>
    <TTGlyph name="bar" xMin="65" yMin="-130" xMax="126" yMax="700">
      <contour>
        <pt x="65" y="700" on="1"/>
        <pt x="126" y="700" on="1"/>
        <pt x="126" y="-130" on="1"/>
        <pt x="65" y="-130" on="1"/>
      </contour>
    </TTGlyph>
    <TTGlyph name="braceleft" xMin="43" yMin="-230" xMax="260" yMax="701">
      <contour>
        <pt x="107" y="114" on="1"/>
        <pt x="107" y="165" on="0"/>
        <pt x="74" y="203" on="0"/>
        <pt x="43" y="203" on="1"/>
        <pt x="43" y="268" on="1"/>
        <pt x="74" y="268" on="0"/>
        <pt x="107" y="308" on="0"/>
        <pt x="107" y="352" on="1"/>
        <pt x="107" y="599" on="1"/>
        <pt x="107" y="646" on="0"/>
        <pt x="144" y="701" on="0"/>
        <pt x="186" y="701" on="1"/>
        <pt x="260" y="701" on="1"/>
        <pt x="260" y="636" on="1"/>
        <pt x="221" y="636" on="1"/>
        <pt x="198" y="636" on="0"/>
        <pt x="179" y="611" on="0"/>
        <pt x="179" y="579" on="1"/>
        <pt x="179" y="335" on="1"/>
        <pt x="179" y="291" on="0"/>
        <pt x="146" y="245" on="0"/>
        <pt x="123" y="240" on="1"/>
        <pt x="123" y="234" on="1"/>
        <pt x="146" y="230" on="0"/>
        <pt x="179" y="177" on="0"/>
        <pt x="179" y="135" on="1"/>
        <pt x="179" y="-108" on="1"/>
        <pt x="179" y="-139" on="0"/>
        <pt x="198" y="-165" on="0"/>
        <pt x="222" y="-165" on="1"/>
        <pt x="260" y="-165" on="1"/>
        <pt x="260" y="-230" on="1"/>
        <pt x="186" y="-230" on="1"/>
        <pt x="107" y="-230" on="0"/>
        <pt x="107" y="-129" on="1"/>
      </contour>
    </TTGlyph>
    <TTGlyph name="braceright" xMin="22" yMin="-230" xMax="239" yMax="701">
      <contour>
        <pt x="175" y="-129" on="1"/>
        <pt x="175" y="-230" on="0"/>
        <pt x="96" y="-230" on="1"/>
        <pt x="22" y="-230" on="1"/>
        <pt x="22" y="-165" on="1"/>
        <pt x="60" y="-165" on="1"/>
        <pt x="84" y="-165" on="0"/>
        <pt x="103" y="-139" on="0"/>
        <pt x="103" y="-108" on="1"/>
        <pt x="103" y="135" on="1"/>
        <pt x="103" y="177" on="0"/>
        <pt x="136" y="230" on="0"/>
        <pt x="159" y="234" on="1"/>
        <pt x="159" y="240" on="1"/>
        <pt x="136" y="245" on="0"/>
        <pt x="103" y="291" on="0"/>
        <pt x="103" y="335" on="1"/>
        <pt x="103" y="579" on="1"/>
        <pt x="103" y="611" on="0"/>
        <pt x="84" y="636" on="0"/>
        <pt x="61" y="636" on="1"/>
        <pt x="22" y="636" on="1"/>
        <pt x="22" y="701" on="1"/>
        <pt x="96" y="701" on="1"/>
        <pt x="138" y="701" on="0"/>
        <pt x="175" y="646" on="0"/>
        <pt x="175" y="599" on="1"/>
        <pt x="175" y="352" on="1"/>
        <pt x="175" y="308" on="0"/>
        <pt x="208" y="268" on="0"/>
        <pt x="239" y="268" on="1"/>
        <pt x="239" y="203" on="1"/>
        <pt x="208" y="203" on="0"/>
        <pt x="175" y="165" on="0"/>
        <pt x="175" y="114" on="1"/>
      </contour>
    </TTGlyph>
    <TTGlyph name="bracketleft" xMin="64" yMin="-230" xMax="220" yMax="700">
      <contour>
        <pt x="64" y="700" on="1"/>
        <pt x="220" y="700" on="1"/>
        <pt x="220" y="635" on="1"/>
        <pt x="136" y="635" on="1"/>
        <pt x="136" y="-165" on="1"/>
        <pt x="220" y="-165" on="1"/>
        <pt x="220" y="-230" on="1"/>
        <pt x="64" y="-230" on="1"/>
      </contour>
    </TTGlyph>
    <TTGlyph name="bracketright" xMin="29" yMin="-230" xMax="184" yMax="700">
      <contour>
        <pt x="184" y="-230" on="1"/>
        <pt x="29" y="-230" on="1"/>
        <pt x="29" y="-165" on="1"/>
        <pt x="112" y="-165" on="1"/>
        <pt x="112" y="635" on="1"/>
        <pt x="29" y="635" on="1"/>
        <pt x="29" y="700" on="1"/>
        <pt x="184" y="700" on="1"/>
      </contour>
    </TTGlyph>
    <TTGlyph name="breve" xMin="60" yMin="573" xMax="311" yMax="717">
      <contour>
        <pt x="99" y="717" on="1"/>
        <pt x="113" y="681" on="0"/>
        <pt x="161" y="638" on="0"/>
        <pt x="190" y="638" on="1"/>
        <pt x="218" y="638" on="0"/>
        <pt x="261" y="680" on="0"/>
        <pt x="274" y="717" on="1"/>
        <pt x="311" y="702" on="1"/>
        <pt x="309" y="676" on="0"/>
        <pt x="288" y="629" on="0"/>
        <pt x="256" y="594" on="0"/>
        <pt x="213" y="573" on="0"/>
        <pt x="189" y="573" on="1"/>
        <pt x="142" y="573" on="0"/>
        <pt x="71" y="639" on="0"/>
        <pt x="60" y="699" on="1"/>
      </contour>
    </TTGlyph>
    <TTGlyph name="brokenbar" xMin="64" yMin="-130" xMax="125" yMax="700">
      <contour>
        <pt x="64" y="206" on="1"/>
        <pt x="125" y="206" on="1"/>
        <pt x="125" y="-130" on="1"/>
        <pt x="64" y="-130" on="1"/>
      </contour>
      <contour>
        <pt x="125" y="364" on="1"/>
        <pt x="64" y="364" on="1"/>
        <pt x="64" y="700" on="1"/>
        <pt x="125" y="700" on="1"/>
      </contour>
    </TTGlyph>
    <TTGlyph name="bullet" xMin="68" yMin="172" xMax="296" yMax="450">
      <contour>
        <pt x="68" y="311" on="1"/>
        <pt x="68" y="374" on="0"/>
        <pt x="131" y="450" on="0"/>
        <pt x="182" y="450" on="1"/>
        <pt x="232" y="450" on="0"/>
        <pt x="296" y="377" on="0"/>
        <pt x="296" y="311" on="1"/>
        <pt x="296" y="245" on="0"/>
        <pt x="232" y="172" on="0"/>
        <pt x="182" y="172" on="1"/>
        <pt x="131" y="172" on="0"/>
        <pt x="68" y="245" on="0"/>
      </contour>
    </TTGlyph>
    <TTGlyph name="c" xMin="37" yMin="-12" xMax="335" yMax="512">
      <contour>
        <pt x="335" y="25" on="1"/>
        <pt x="310" y="6" on="0"/>
        <pt x="246" y="-12" on="0"/>
        <pt x="211" y="-12" on="1"/>
        <pt x="163" y="-12" on="0"/>
        <pt x="97" y="25" on="0"/>
        <pt x="56" y="94" on="0"/>
        <pt x="37" y="191" on="0"/>
        <pt x="37" y="250" on="1"/>
        <pt x="37" y="378" on="0"/>
        <pt x="128" y="512" on="0"/>
        <pt x="213" y="512" on="1"/>
        <pt x="252" y="512" on="0"/>
        <pt x="308" y="498" on="0"/>
        <pt x="328" y="487" on="1"/>
        <pt x="308" y="424" on="1"/>
        <pt x="268" y="447" on="0"/>
        <pt x="221" y="447" on="1"/>
        <pt x="167" y="447" on="0"/>
        <pt x="112" y="352" on="0"/>
        <pt x="112" y="250" on="1"/>
        <pt x="112" y="209" on="0"/>
        <pt x="124" y="137" on="0"/>
        <pt x="152" y="84" on="0"/>
        <pt x="196" y="53" on="0"/>
        <pt x="229" y="53" on="1"/>
        <pt x="255" y="53" on="0"/>
        <pt x="300" y="71" on="0"/>
        <pt x="314" y="83" on="1"/>
      </contour>
    </TTGlyph>
    <TTGlyph name="cacute" xMin="37" yMin="-12" xMax="335" yMax="720">
      <component glyphName="c" x="0" y="0" flags="0x204"/>
      <component glyphName="acute" x="125" y="0" flags="0x4"/>
    </TTGlyph>
    <TTGlyph name="caron" xMin="60" yMin="550" xMax="290" yMax="732">
      <contour>
        <pt x="191" y="550" on="1"/>
        <pt x="153" y="550" on="1"/>
        <pt x="60" y="732" on="1"/>
        <pt x="128" y="732" on="1"/>
        <pt x="159" y="666" on="1"/>
        <pt x="176" y="608" on="1"/>
        <pt x="193" y="666" on="1"/>
        <pt x="229" y="732" on="1"/>
        <pt x="290" y="732" on="1"/>
      </contour>
    </TTGlyph>
    <TTGlyph name="caron.l" xMin="164" yMin="511" xMax="264" yMax="700">
      <contour>
        <pt x="264" y="700" on="1"/>
        <pt x="262" y="671" on="0"/>
        <pt x="246" y="611" on="0"/>
        <pt x="224" y="559" on="0"/>
        <pt x="201" y="520" on="0"/>
        <pt x="194" y="511" on="1"/>
        <pt x="164" y="526" on="1"/>
        <pt x="178" y="562" on="0"/>
        <pt x="192" y="654" on="0"/>
        <pt x="192" y="700" on="1"/>
      </contour>
    </TTGlyph>
    <TTGlyph name="ccaron" xMin="37" yMin="-12" xMax="335" yMax="732">
      <component glyphName="c" x="0" y="0" flags="0x204"/>
      <component glyphName="caron" x="31" y="0" flags="0x4"/>
    </TTGlyph>
    <TTGlyph name="ccedilla" xMin="37" yMin="-208" xMax="335" yMax="512">
      <contour>
        <pt x="335" y="25" on="1"/>
        <pt x="315" y="10" on="0"/>
        <pt x="267" y="-7" on="0"/>
        <pt x="241" y="-10" on="1"/>
        <pt x="227" y="-43" on="1"/>
        <pt x="292" y="-58" on="0"/>
        <pt x="292" y="-118" on="1"/>
        <pt x="292" y="-157" on="0"/>
        <pt x="235" y="-208" on="0"/>
        <pt x="187" y="-208" on="1"/>
        <pt x="167" y="-208" on="0"/>
        <pt x="150" y="-204" on="1"/>
        <pt x="157" y="-165" on="1"/>
        <pt x="180" y="-167" on="0"/>
        <pt x="207" y="-161" on="0"/>
        <pt x="221" y="-149" on="0"/>
        <pt x="225" y="-134" on="0"/>
        <pt x="225" y="-127" on="1"/>
        <pt x="225" y="-99" on="0"/>
        <pt x="156" y="-90" on="1"/>
        <pt x="191" y="-11" on="1"/>
        <pt x="149" y="-7" on="0"/>
        <pt x="90" y="34" on="0"/>
        <pt x="54" y="101" on="0"/>
        <pt x="37" y="194" on="0"/>
        <pt x="37" y="250" on="1"/>
        <pt x="37" y="378" on="0"/>
        <pt x="128" y="512" on="0"/>
        <pt x="213" y="512" on="1"/>
        <pt x="252" y="512" on="0"/>
        <pt x="308" y="498" on="0"/>
        <pt x="328" y="487" on="1"/>
        <pt x="308" y="425" on="1"/>
        <pt x="270" y="447" on="0"/>
        <pt x="221" y="447" on="1"/>
        <pt x="167" y="447" on="0"/>
        <pt x="112" y="352" on="0"/>
        <pt x="112" y="250" on="1"/>
        <pt x="112" y="209" on="0"/>
        <pt x="124" y="138" on="0"/>
        <pt x="152" y="85" on="0"/>
        <pt x="196" y="55" on="0"/>
        <pt x="229" y="55" on="1"/>
        <pt x="255" y="55" on="0"/>
        <pt x="300" y="72" on="0"/>
        <pt x="314" y="84" on="1"/>
      </contour>
    </TTGlyph>
    <TTGlyph name="ccircumflex" xMin="37" yMin="-12" xMax="335" yMax="732">
      <component glyphName="c" x="0" y="0" flags="0x204"/>
      <component glyphName="circumflex" x="28" y="0" flags="0x4"/>
    </TTGlyph>
    <TTGlyph name="cedilla" xMin="60" yMin="-208" xMax="202" yMax="0">
      <contour>
        <pt x="156" y="0" on="1"/>
        <pt x="137" y="-43" on="1"/>
        <pt x="202" y="-58" on="0"/>
        <pt x="202" y="-118" on="1"/>
        <pt x="202" y="-157" on="0"/>
        <pt x="145" y="-208" on="0"/>
        <pt x="97" y="-208" on="1"/>
        <pt x="77" y="-208" on="0"/>
        <pt x="60" y="-204" on="1"/>
        <pt x="67" y="-165" on="1"/>
        <pt x="90" y="-167" on="0"/>
        <pt x="117" y="-161" on="0"/>
        <pt x="131" y="-149" on="0"/>
        <pt x="135" y="-134" on="0"/>
        <pt x="135" y="-127" on="1"/>
        <pt x="135" y="-99" on="0"/>
        <pt x="66" y="-90" on="1"/>
        <pt x="106" y="0" on="1"/>
      </contour>
    </TTGlyph>
    <TTGlyph name="cent" xMin="76" yMin="-100" xMax="382" yMax="600">
      <contour>
        <pt x="382" y="27" on="1"/>
        <pt x="364" y="12" on="0"/>
        <pt x="315" y="-6" on="0"/>
        <pt x="289" y="-9" on="1"/>
        <pt x="289" y="-100" on="1"/>
        <pt x="224" y="-100" on="1"/>
        <pt x="224" y="-10" on="1"/>
        <pt x="183" y="-4" on="0"/>
        <pt x="127" y="38" on="0"/>
        <pt x="92" y="105" on="0"/>
        <pt x="76" y="196" on="0"/>
        <pt x="76" y="250" on="1"/>
        <pt x="76" y="364" on="0"/>
        <pt x="152" y="496" on="0"/>
        <pt x="224" y="509" on="1"/>
        <pt x="224" y="600" on="1"/>
        <pt x="289" y="600" on="1"/>
        <pt x="289" y="511" on="1"/>
        <pt x="316" y="509" on="0"/>
        <pt x="358" y="497" on="0"/>
        <pt x="375" y="487" on="1"/>
        <pt x="355" y="424" on="1"/>
        <pt x="340" y="433" on="0"/>
        <pt x="303" y="444" on="0"/>
        <pt x="283" y="446" on="1"/>
        <pt x="283" y="53" on="1"/>
        <pt x="308" y="55" on="0"/>
        <pt x="348" y="73" on="0"/>
        <pt x="361" y="84" on="1"/>
      </contour>
      <contour>
        <pt x="148" y="250" on="1"/>
        <pt x="151" y="214" on="0"/>
        <pt x="160" y="151" on="0"/>
        <pt x="180" y="101" on="0"/>
        <pt x="212" y="65" on="0"/>
        <pt x="235" y="58" on="1"/>
        <pt x="235" y="443" on="1"/>
        <pt x="192" y="432" on="0"/>
        <pt x="151" y="338" on="0"/>
      </contour>
    </TTGlyph>
    <TTGlyph name="circumflex" xMin="60" yMin="550" xMax="283" yMax="732">
      <contour>
        <pt x="159" y="732" on="1"/>
        <pt x="194" y="732" on="1"/>
        <pt x="283" y="550" on="1"/>
        <pt x="220" y="550" on="1"/>
        <pt x="188" y="616" on="1"/>
        <pt x="172" y="674" on="1"/>
        <pt x="155" y="616" on="1"/>
        <pt x="119" y="550" on="1"/>
        <pt x="60" y="550" on="1"/>
      </contour>
    </TTGlyph>
    <TTGlyph name="colon" xMin="76" yMin="-12" xMax="176" yMax="504">
      <component glyphName="period" x="37" y="403" flags="0x4"/>
      <component glyphName="period" x="37" y="0" flags="0x4"/>
    </TTGlyph>
    <TTGlyph name="comma" xMin="31" yMin="-147" xMax="147" yMax="98">
      <contour>
        <pt x="36" y="43" on="1"/>
        <pt x="36" y="68" on="0"/>
        <pt x="65" y="98" on="0"/>
        <pt x="88" y="98" on="1"/>
        <pt x="114" y="98" on="0"/>
        <pt x="147" y="56" on="0"/>
        <pt x="147" y="11" on="1"/>
        <pt x="147" y="-22" on="0"/>
        <pt x="130" y="-75" on="0"/>
        <pt x="103" y="-115" on="0"/>
        <pt x="71" y="-141" on="0"/>
        <pt x="56" y="-147" on="1"/>
        <pt x="31" y="-113" on="1"/>
        <pt x="44" y="-106" on="0"/>
        <pt x="67" y="-83" on="0"/>
        <pt x="82" y="-55" on="0"/>
        <pt x="90" y="-24" on="0"/>
        <pt x="90" y="-9" on="1"/>
        <pt x="70" y="-15" on="0"/>
        <pt x="36" y="13" on="0"/>
      </contour>
    </TTGlyph>
    <TTGlyph name="copyright" xMin="50" yMin="-4" xMax="644" yMax="590">
      <contour>
        <pt x="50" y="293" on="1"/>
        <pt x="50" y="363" on="0"/>
        <pt x="97" y="473" on="0"/>
        <pt x="178" y="549" on="0"/>
        <pt x="286" y="590" on="0"/>
        <pt x="347" y="590" on="1"/>
        <pt x="408" y="590" on="0"/>
        <pt x="516" y="549" on="0"/>
        <pt x="597" y="473" on="0"/>
        <pt x="644" y="363" on="0"/>
        <pt x="644" y="293" on="1"/>
        <pt x="644" y="223" on="0"/>
        <pt x="597" y="113" on="0"/>
        <pt x="516" y="36" on="0"/>
        <pt x="408" y="-4" on="0"/>
        <pt x="347" y="-4" on="1"/>
        <pt x="279" y="-4" on="0"/>
        <pt x="170" y="36" on="0"/>
        <pt x="92" y="113" on="0"/>
        <pt x="50" y="223" on="0"/>
      </contour>
      <contour>
        <pt x="110" y="293" on="1"/>
        <pt x="110" y="235" on="0"/>
        <pt x="147" y="145" on="0"/>
        <pt x="211" y="84" on="0"/>
        <pt x="297" y="52" on="0"/>
        <pt x="347" y="52" on="1"/>
        <pt x="396" y="52" on="0"/>
        <pt x="483" y="84" on="0"/>
        <pt x="547" y="145" on="0"/>
        <pt x="584" y="235" on="0"/>
        <pt x="584" y="293" on="1"/>
        <pt x="584" y="351" on="0"/>
        <pt x="547" y="441" on="0"/>
        <pt x="483" y="502" on="0"/>
        <pt x="396" y="534" on="0"/>
        <pt x="347" y="534" on="1"/>
        <pt x="297" y="534" on="0"/>
        <pt x="211" y="502" on="0"/>
        <pt x="147" y="441" on="0"/>
        <pt x="110" y="351" on="0"/>
      </contour>
      <contour>
        <pt x="446" y="155" on="1"/>
        <pt x="426" y="144" on="0"/>
        <pt x="378" y="132" on="0"/>
        <pt x="346" y="132" on="1"/>
        <pt x="278" y="132" on="0"/>
        <pt x="206" y="219" on="0"/>
        <pt x="206" y="293" on="1"/>
        <pt x="206" y="370" on="0"/>
        <pt x="283" y="453" on="0"/>
        <pt x="346" y="453" on="1"/>
        <pt x="377" y="453" on="0"/>
        <pt x="415" y="441" on="0"/>
        <pt x="440" y="430" on="1"/>
        <pt x="418" y="375" on="1"/>
        <pt x="399" y="384" on="0"/>
        <pt x="366" y="392" on="0"/>
        <pt x="354" y="392" on="1"/>
        <pt x="319" y="392" on="0"/>
        <pt x="278" y="347" on="0"/>
        <pt x="278" y="293" on="1"/>
        <pt x="278" y="194" on="0"/>
        <pt x="361" y="194" on="1"/>
        <pt x="399" y="194" on="0"/>
        <pt x="428" y="210" on="1"/>
      </contour>
    </TTGlyph>
</ttFont>
